%TF.GenerationSoftware,KiCad,Pcbnew,(5.1.4-0-10_14)*%
%TF.CreationDate,2020-04-13T14:17:21-07:00*%
%TF.ProjectId,8051dumper,38303531-6475-46d7-9065-722e6b696361,1*%
%TF.SameCoordinates,PX60e4b00PYc1c9600*%
%TF.FileFunction,Other,Fab,Top*%
%FSLAX46Y46*%
G04 Gerber Fmt 4.6, Leading zero omitted, Abs format (unit mm)*
G04 Created by KiCad (PCBNEW (5.1.4-0-10_14)) date 2020-04-13 14:17:21*
%MOMM*%
%LPD*%
G04 APERTURE LIST*
%ADD10C,0.150000*%
%ADD11C,0.100000*%
%ADD12C,0.127000*%
%ADD13C,0.120000*%
%ADD14C,0.025400*%
%ADD15C,0.080000*%
%ADD16C,0.050800*%
%ADD17C,0.010000*%
G04 APERTURE END LIST*
D10*
X105622619Y34600000D02*
X105575000Y34647620D01*
X105527380Y34742858D01*
X105527380Y34980953D01*
X105575000Y35076191D01*
X105622619Y35123810D01*
X105717857Y35171429D01*
X105813095Y35171429D01*
X105955952Y35123810D01*
X106527380Y34552381D01*
X106527380Y35171429D01*
X106432142Y35600000D02*
X106479761Y35647620D01*
X106527380Y35600000D01*
X106479761Y35552381D01*
X106432142Y35600000D01*
X106527380Y35600000D01*
X105527380Y36504762D02*
X105527380Y36314286D01*
X105575000Y36219048D01*
X105622619Y36171429D01*
X105765476Y36076191D01*
X105955952Y36028572D01*
X106336904Y36028572D01*
X106432142Y36076191D01*
X106479761Y36123810D01*
X106527380Y36219048D01*
X106527380Y36409524D01*
X106479761Y36504762D01*
X106432142Y36552381D01*
X106336904Y36600000D01*
X106098809Y36600000D01*
X106003571Y36552381D01*
X105955952Y36504762D01*
X105908333Y36409524D01*
X105908333Y36219048D01*
X105955952Y36123810D01*
X106003571Y36076191D01*
X106098809Y36028572D01*
X105527380Y37219048D02*
X105527380Y37314286D01*
X105575000Y37409524D01*
X105622619Y37457143D01*
X105717857Y37504762D01*
X105908333Y37552381D01*
X106146428Y37552381D01*
X106336904Y37504762D01*
X106432142Y37457143D01*
X106479761Y37409524D01*
X106527380Y37314286D01*
X106527380Y37219048D01*
X106479761Y37123810D01*
X106432142Y37076191D01*
X106336904Y37028572D01*
X106146428Y36980953D01*
X105908333Y36980953D01*
X105717857Y37028572D01*
X105622619Y37076191D01*
X105575000Y37123810D01*
X105527380Y37219048D01*
X105527380Y38171429D02*
X105527380Y38266667D01*
X105575000Y38361905D01*
X105622619Y38409524D01*
X105717857Y38457143D01*
X105908333Y38504762D01*
X106146428Y38504762D01*
X106336904Y38457143D01*
X106432142Y38409524D01*
X106479761Y38361905D01*
X106527380Y38266667D01*
X106527380Y38171429D01*
X106479761Y38076191D01*
X106432142Y38028572D01*
X106336904Y37980953D01*
X106146428Y37933334D01*
X105908333Y37933334D01*
X105717857Y37980953D01*
X105622619Y38028572D01*
X105575000Y38076191D01*
X105527380Y38171429D01*
X105527380Y39123810D02*
X105527380Y39219048D01*
X105575000Y39314286D01*
X105622619Y39361905D01*
X105717857Y39409524D01*
X105908333Y39457143D01*
X106146428Y39457143D01*
X106336904Y39409524D01*
X106432142Y39361905D01*
X106479761Y39314286D01*
X106527380Y39219048D01*
X106527380Y39123810D01*
X106479761Y39028572D01*
X106432142Y38980953D01*
X106336904Y38933334D01*
X106146428Y38885715D01*
X105908333Y38885715D01*
X105717857Y38933334D01*
X105622619Y38980953D01*
X105575000Y39028572D01*
X105527380Y39123810D01*
X106527380Y40647620D02*
X105860714Y40647620D01*
X105527380Y40647620D02*
X105575000Y40600000D01*
X105622619Y40647620D01*
X105575000Y40695239D01*
X105527380Y40647620D01*
X105622619Y40647620D01*
X105860714Y41123810D02*
X106527380Y41123810D01*
X105955952Y41123810D02*
X105908333Y41171429D01*
X105860714Y41266667D01*
X105860714Y41409524D01*
X105908333Y41504762D01*
X106003571Y41552381D01*
X106527380Y41552381D01*
X104775000Y5080000D02*
X104775000Y71120000D01*
X96520000Y5080000D02*
X105361421Y5080000D01*
X96520000Y71120000D02*
X105361421Y71120000D01*
X104775000Y71120000D02*
X105361421Y69993496D01*
X104775000Y71120000D02*
X104188579Y69993496D01*
X104775000Y5080000D02*
X105361421Y6206504D01*
X104775000Y5080000D02*
X104188579Y6206504D01*
X47252380Y-3927379D02*
X47871428Y-3927379D01*
X47538095Y-4308332D01*
X47680952Y-4308332D01*
X47776190Y-4355951D01*
X47823809Y-4403570D01*
X47871428Y-4498808D01*
X47871428Y-4736903D01*
X47823809Y-4832141D01*
X47776190Y-4879760D01*
X47680952Y-4927379D01*
X47395238Y-4927379D01*
X47300000Y-4879760D01*
X47252380Y-4832141D01*
X48300000Y-4832141D02*
X48347619Y-4879760D01*
X48300000Y-4927379D01*
X48252380Y-4879760D01*
X48300000Y-4832141D01*
X48300000Y-4927379D01*
X49204761Y-3927379D02*
X49014285Y-3927379D01*
X48919047Y-3974999D01*
X48871428Y-4022618D01*
X48776190Y-4165475D01*
X48728571Y-4355951D01*
X48728571Y-4736903D01*
X48776190Y-4832141D01*
X48823809Y-4879760D01*
X48919047Y-4927379D01*
X49109523Y-4927379D01*
X49204761Y-4879760D01*
X49252380Y-4832141D01*
X49300000Y-4736903D01*
X49300000Y-4498808D01*
X49252380Y-4403570D01*
X49204761Y-4355951D01*
X49109523Y-4308332D01*
X48919047Y-4308332D01*
X48823809Y-4355951D01*
X48776190Y-4403570D01*
X48728571Y-4498808D01*
X49919047Y-3927379D02*
X50014285Y-3927379D01*
X50109523Y-3974999D01*
X50157142Y-4022618D01*
X50204761Y-4117856D01*
X50252380Y-4308332D01*
X50252380Y-4546427D01*
X50204761Y-4736903D01*
X50157142Y-4832141D01*
X50109523Y-4879760D01*
X50014285Y-4927379D01*
X49919047Y-4927379D01*
X49823809Y-4879760D01*
X49776190Y-4832141D01*
X49728571Y-4736903D01*
X49680952Y-4546427D01*
X49680952Y-4308332D01*
X49728571Y-4117856D01*
X49776190Y-4022618D01*
X49823809Y-3974999D01*
X49919047Y-3927379D01*
X50871428Y-3927379D02*
X50966666Y-3927379D01*
X51061904Y-3974999D01*
X51109523Y-4022618D01*
X51157142Y-4117856D01*
X51204761Y-4308332D01*
X51204761Y-4546427D01*
X51157142Y-4736903D01*
X51109523Y-4832141D01*
X51061904Y-4879760D01*
X50966666Y-4927379D01*
X50871428Y-4927379D01*
X50776190Y-4879760D01*
X50728571Y-4832141D01*
X50680952Y-4736903D01*
X50633333Y-4546427D01*
X50633333Y-4308332D01*
X50680952Y-4117856D01*
X50728571Y-4022618D01*
X50776190Y-3974999D01*
X50871428Y-3927379D01*
X51823809Y-3927379D02*
X51919047Y-3927379D01*
X52014285Y-3974999D01*
X52061904Y-4022618D01*
X52109523Y-4117856D01*
X52157142Y-4308332D01*
X52157142Y-4546427D01*
X52109523Y-4736903D01*
X52061904Y-4832141D01*
X52014285Y-4879760D01*
X51919047Y-4927379D01*
X51823809Y-4927379D01*
X51728571Y-4879760D01*
X51680952Y-4832141D01*
X51633333Y-4736903D01*
X51585714Y-4546427D01*
X51585714Y-4308332D01*
X51633333Y-4117856D01*
X51680952Y-4022618D01*
X51728571Y-3974999D01*
X51823809Y-3927379D01*
X53347619Y-4927379D02*
X53347619Y-4260713D01*
X53347619Y-3927379D02*
X53300000Y-3974999D01*
X53347619Y-4022618D01*
X53395238Y-3974999D01*
X53347619Y-3927379D01*
X53347619Y-4022618D01*
X53823809Y-4260713D02*
X53823809Y-4927379D01*
X53823809Y-4355951D02*
X53871428Y-4308332D01*
X53966666Y-4260713D01*
X54109523Y-4260713D01*
X54204761Y-4308332D01*
X54252380Y-4403570D01*
X54252380Y-4927379D01*
X5080000Y-3174999D02*
X96520000Y-3174999D01*
X5080000Y5080000D02*
X5080000Y-3761420D01*
X96520000Y5080000D02*
X96520000Y-3761420D01*
X96520000Y-3174999D02*
X95393496Y-3761420D01*
X96520000Y-3174999D02*
X95393496Y-2588578D01*
X5080000Y-3174999D02*
X6206504Y-3761420D01*
X5080000Y-3174999D02*
X6206504Y-2588578D01*
X-4387620Y35028572D02*
X-4387620Y35647620D01*
X-4006667Y35314286D01*
X-4006667Y35457143D01*
X-3959048Y35552381D01*
X-3911429Y35600000D01*
X-3816191Y35647620D01*
X-3578096Y35647620D01*
X-3482858Y35600000D01*
X-3435239Y35552381D01*
X-3387620Y35457143D01*
X-3387620Y35171429D01*
X-3435239Y35076191D01*
X-3482858Y35028572D01*
X-3482858Y36076191D02*
X-3435239Y36123810D01*
X-3387620Y36076191D01*
X-3435239Y36028572D01*
X-3482858Y36076191D01*
X-3387620Y36076191D01*
X-4387620Y36742858D02*
X-4387620Y36838096D01*
X-4340000Y36933334D01*
X-4292381Y36980953D01*
X-4197143Y37028572D01*
X-4006667Y37076191D01*
X-3768572Y37076191D01*
X-3578096Y37028572D01*
X-3482858Y36980953D01*
X-3435239Y36933334D01*
X-3387620Y36838096D01*
X-3387620Y36742858D01*
X-3435239Y36647620D01*
X-3482858Y36600000D01*
X-3578096Y36552381D01*
X-3768572Y36504762D01*
X-4006667Y36504762D01*
X-4197143Y36552381D01*
X-4292381Y36600000D01*
X-4340000Y36647620D01*
X-4387620Y36742858D01*
X-4387620Y37695239D02*
X-4387620Y37790477D01*
X-4340000Y37885715D01*
X-4292381Y37933334D01*
X-4197143Y37980953D01*
X-4006667Y38028572D01*
X-3768572Y38028572D01*
X-3578096Y37980953D01*
X-3482858Y37933334D01*
X-3435239Y37885715D01*
X-3387620Y37790477D01*
X-3387620Y37695239D01*
X-3435239Y37600000D01*
X-3482858Y37552381D01*
X-3578096Y37504762D01*
X-3768572Y37457143D01*
X-4006667Y37457143D01*
X-4197143Y37504762D01*
X-4292381Y37552381D01*
X-4340000Y37600000D01*
X-4387620Y37695239D01*
X-4387620Y38647620D02*
X-4387620Y38742858D01*
X-4340000Y38838096D01*
X-4292381Y38885715D01*
X-4197143Y38933334D01*
X-4006667Y38980953D01*
X-3768572Y38980953D01*
X-3578096Y38933334D01*
X-3482858Y38885715D01*
X-3435239Y38838096D01*
X-3387620Y38742858D01*
X-3387620Y38647620D01*
X-3435239Y38552381D01*
X-3482858Y38504762D01*
X-3578096Y38457143D01*
X-3768572Y38409524D01*
X-4006667Y38409524D01*
X-4197143Y38457143D01*
X-4292381Y38504762D01*
X-4340000Y38552381D01*
X-4387620Y38647620D01*
X-3387620Y40171429D02*
X-4054286Y40171429D01*
X-4387620Y40171429D02*
X-4340000Y40123810D01*
X-4292381Y40171429D01*
X-4340000Y40219048D01*
X-4387620Y40171429D01*
X-4292381Y40171429D01*
X-4054286Y40647620D02*
X-3387620Y40647620D01*
X-3959048Y40647620D02*
X-4006667Y40695239D01*
X-4054286Y40790477D01*
X-4054286Y40933334D01*
X-4006667Y41028572D01*
X-3911429Y41076191D01*
X-3387620Y41076191D01*
X-2540000Y0D02*
X-2540000Y76200000D01*
X0Y0D02*
X-3126421Y0D01*
X0Y76200000D02*
X-3126421Y76200000D01*
X-2540000Y76200000D02*
X-1953579Y75073496D01*
X-2540000Y76200000D02*
X-3126421Y75073496D01*
X-2540000Y0D02*
X-1953579Y1126504D01*
X-2540000Y0D02*
X-3126421Y1126504D01*
X48252380Y80254286D02*
X48252380Y79587620D01*
X48014285Y80635239D02*
X47776190Y79920953D01*
X48395238Y79920953D01*
X48776190Y79682858D02*
X48823809Y79635239D01*
X48776190Y79587620D01*
X48728571Y79635239D01*
X48776190Y79682858D01*
X48776190Y79587620D01*
X49442857Y80587620D02*
X49538095Y80587620D01*
X49633333Y80540000D01*
X49680952Y80492381D01*
X49728571Y80397143D01*
X49776190Y80206667D01*
X49776190Y79968572D01*
X49728571Y79778096D01*
X49680952Y79682858D01*
X49633333Y79635239D01*
X49538095Y79587620D01*
X49442857Y79587620D01*
X49347619Y79635239D01*
X49300000Y79682858D01*
X49252380Y79778096D01*
X49204761Y79968572D01*
X49204761Y80206667D01*
X49252380Y80397143D01*
X49300000Y80492381D01*
X49347619Y80540000D01*
X49442857Y80587620D01*
X50395238Y80587620D02*
X50490476Y80587620D01*
X50585714Y80540000D01*
X50633333Y80492381D01*
X50680952Y80397143D01*
X50728571Y80206667D01*
X50728571Y79968572D01*
X50680952Y79778096D01*
X50633333Y79682858D01*
X50585714Y79635239D01*
X50490476Y79587620D01*
X50395238Y79587620D01*
X50300000Y79635239D01*
X50252380Y79682858D01*
X50204761Y79778096D01*
X50157142Y79968572D01*
X50157142Y80206667D01*
X50204761Y80397143D01*
X50252380Y80492381D01*
X50300000Y80540000D01*
X50395238Y80587620D01*
X51347619Y80587620D02*
X51442857Y80587620D01*
X51538095Y80540000D01*
X51585714Y80492381D01*
X51633333Y80397143D01*
X51680952Y80206667D01*
X51680952Y79968572D01*
X51633333Y79778096D01*
X51585714Y79682858D01*
X51538095Y79635239D01*
X51442857Y79587620D01*
X51347619Y79587620D01*
X51252380Y79635239D01*
X51204761Y79682858D01*
X51157142Y79778096D01*
X51109523Y79968572D01*
X51109523Y80206667D01*
X51157142Y80397143D01*
X51204761Y80492381D01*
X51252380Y80540000D01*
X51347619Y80587620D01*
X52871428Y79587620D02*
X52871428Y80254286D01*
X52871428Y80587620D02*
X52823809Y80540000D01*
X52871428Y80492381D01*
X52919047Y80540000D01*
X52871428Y80587620D01*
X52871428Y80492381D01*
X53347619Y80254286D02*
X53347619Y79587620D01*
X53347619Y80159048D02*
X53395238Y80206667D01*
X53490476Y80254286D01*
X53633333Y80254286D01*
X53728571Y80206667D01*
X53776190Y80111429D01*
X53776190Y79587620D01*
X0Y78740000D02*
X101600000Y78740000D01*
X0Y76200000D02*
X0Y79326421D01*
X101600000Y76200000D02*
X101600000Y79326421D01*
X101600000Y78740000D02*
X100473496Y78153579D01*
X101600000Y78740000D02*
X100473496Y79326421D01*
X0Y78740000D02*
X1126504Y78153579D01*
X0Y78740000D02*
X1126504Y79326421D01*
D11*
%TO.C,R14*%
X21590000Y40894000D02*
X19660000Y40894000D01*
X11430000Y40894000D02*
X13360000Y40894000D01*
X19660000Y42144000D02*
X13360000Y42144000D01*
X19660000Y39644000D02*
X19660000Y42144000D01*
X13360000Y39644000D02*
X19660000Y39644000D01*
X13360000Y42144000D02*
X13360000Y39644000D01*
%TO.C,D1*%
X25360000Y48060306D02*
X25360000Y50999694D01*
X25360000Y49530000D02*
G75*
G03X25360000Y49530000I-2500000J0D01*
G01*
X25360016Y50999666D02*
G75*
G03X25360000Y48060306I-2500016J-1469666D01*
G01*
%TO.C,R13*%
X13335000Y27940000D02*
X13335000Y29870000D01*
X13335000Y38100000D02*
X13335000Y36170000D01*
X14585000Y29870000D02*
X14585000Y36170000D01*
X12085000Y29870000D02*
X14585000Y29870000D01*
X12085000Y36170000D02*
X12085000Y29870000D01*
X14585000Y36170000D02*
X12085000Y36170000D01*
%TO.C,R12*%
X16510000Y27940000D02*
X16510000Y29870000D01*
X16510000Y38100000D02*
X16510000Y36170000D01*
X17760000Y29870000D02*
X17760000Y36170000D01*
X15260000Y29870000D02*
X17760000Y29870000D01*
X15260000Y36170000D02*
X15260000Y29870000D01*
X17760000Y36170000D02*
X15260000Y36170000D01*
%TO.C,R11*%
X19685000Y27940000D02*
X19685000Y29870000D01*
X19685000Y38100000D02*
X19685000Y36170000D01*
X20935000Y29870000D02*
X20935000Y36170000D01*
X18435000Y29870000D02*
X20935000Y29870000D01*
X18435000Y36170000D02*
X18435000Y29870000D01*
X20935000Y36170000D02*
X18435000Y36170000D01*
%TO.C,R10*%
X22860000Y27940000D02*
X22860000Y29870000D01*
X22860000Y38100000D02*
X22860000Y36170000D01*
X24110000Y29870000D02*
X24110000Y36170000D01*
X21610000Y29870000D02*
X24110000Y29870000D01*
X21610000Y36170000D02*
X21610000Y29870000D01*
X24110000Y36170000D02*
X21610000Y36170000D01*
D12*
%TO.C,S4*%
X12123763Y16790364D02*
X11717231Y16495001D01*
X12123763Y16790365D02*
G75*
G02X12241321Y16628561I58779J-80902D01*
G01*
X11834788Y16333198D02*
X12241321Y16628561D01*
X11717231Y16495001D02*
G75*
G02X11834788Y16333198I-1557231J-1255001D01*
G01*
X10837436Y17648542D02*
X10682155Y17170635D01*
X10837436Y17648543D02*
G75*
G02X11027648Y17586739I95106J-30902D01*
G01*
X10872366Y17108832D02*
X11027648Y17586739D01*
X10682155Y17170636D02*
G75*
G02X10872366Y17108832I-522155J-1930636D01*
G01*
X9292352Y17586740D02*
G75*
G02X9482564Y17648542I95106J30901D01*
G01*
X9637845Y17170635D02*
X9482564Y17648542D01*
X9447634Y17108831D02*
G75*
G02X9637845Y17170635I712366J-1868831D01*
G01*
X9292352Y17586739D02*
X9447634Y17108832D01*
X8078679Y16628562D02*
G75*
G02X8196237Y16790364I58779J80901D01*
G01*
X8602769Y16495001D02*
X8196237Y16790364D01*
X8485212Y16333198D02*
G75*
G02X8602769Y16495001I1674788J-1093198D01*
G01*
X8078679Y16628561D02*
X8485212Y16333198D01*
X8602769Y16495002D02*
G75*
G02X9447634Y17108832I1557231J-1255002D01*
G01*
X9637845Y17170635D02*
G75*
G02X10682155Y17170635I522155J-1930635D01*
G01*
X10872366Y17108831D02*
G75*
G02X11717231Y16495001I-712366J-1868831D01*
G01*
X11834788Y16333198D02*
G75*
G02X8485212Y16333198I-1674788J-1093198D01*
G01*
X12159999Y10240000D02*
X14660000Y10240000D01*
X15160000Y13240000D02*
X12159999Y10240000D01*
X15160000Y10740000D02*
X15160000Y13240000D01*
X15160000Y10740000D02*
G75*
G02X14660000Y10240000I-500000J0D01*
G01*
X5660000Y10240000D02*
G75*
G02X5160000Y10740000I0J500000D01*
G01*
X5160001Y19740000D02*
X5160000Y10740000D01*
X5160000Y19740000D02*
G75*
G02X5660000Y20240000I500000J0D01*
G01*
X14660000Y20239999D02*
X5660000Y20240000D01*
X14660000Y20240000D02*
G75*
G02X15160000Y19740000I0J-500000D01*
G01*
X15160000Y13240000D02*
X15160000Y19740000D01*
X12159999Y10240000D02*
X15160000Y13240000D01*
X5660000Y10240001D02*
X12159999Y10240000D01*
D11*
%TO.C,U2*%
X62865000Y68850000D02*
X63865000Y69850000D01*
X62865000Y44450000D02*
X62865000Y68850000D01*
X69215000Y44450000D02*
X62865000Y44450000D01*
X69215000Y69850000D02*
X69215000Y44450000D01*
X63865000Y69850000D02*
X69215000Y69850000D01*
D12*
%TO.C,S1*%
X9378950Y46228001D02*
X7569200Y46228001D01*
X12750799Y46228001D02*
X10941049Y46228001D01*
X9378950Y46075601D02*
X9378950Y46228001D01*
X10941049Y46075601D02*
X10941049Y46228001D01*
X16509999Y46228001D02*
X15112999Y46228001D01*
X5207000Y46228001D02*
X3810000Y46228001D01*
X12750799Y52832000D02*
X10941049Y52832000D01*
X16509999Y52832000D02*
X15112999Y52832000D01*
X9378950Y52832000D02*
X7569200Y52832000D01*
X5207000Y52832000D02*
X3810000Y52832000D01*
X9378950Y52984400D02*
X9378950Y52832000D01*
X10941049Y52984400D02*
X10941049Y52832000D01*
X13474699Y51485800D02*
X9563100Y51485800D01*
X13474699Y47574201D02*
X9563100Y47574201D01*
X5207000Y46075601D02*
X7569200Y46075601D01*
X12750799Y46075601D02*
X12750799Y46228001D01*
X5207000Y46075601D02*
X5207000Y46228001D01*
X7569200Y46228001D02*
X7569200Y46075601D01*
X9378950Y46075601D02*
X10941049Y46075601D01*
X12750799Y46075601D02*
X15112999Y46075601D01*
X15112999Y46075601D02*
X15112999Y46228001D01*
X7569200Y52984400D02*
X7569200Y52832000D01*
X5207000Y52832000D02*
X5207000Y52984400D01*
X5207000Y52984400D02*
X7569200Y52984400D01*
X9378950Y52984400D02*
X10941049Y52984400D01*
X12750799Y52832000D02*
X12750799Y52984400D01*
X12750799Y52984400D02*
X15112999Y52984400D01*
X15112999Y52832000D02*
X15112999Y52984400D01*
X3810000Y52832000D02*
X3810000Y52451000D01*
X16509999Y52451000D02*
X16509999Y52832000D01*
X13005159Y47574201D02*
X13005159Y51485800D01*
X12475021Y47574201D02*
X12475021Y51485800D01*
X11815117Y47574201D02*
X11815117Y51485800D01*
X11222682Y47574201D02*
X11222682Y51485800D01*
X10562778Y47574201D02*
X10562778Y51485800D01*
X10032641Y47574201D02*
X10032641Y51485800D01*
X9563100Y51485800D02*
X9563100Y47574201D01*
X6845300Y51542950D02*
X6845300Y47517051D01*
X13474699Y51542950D02*
X6845300Y51542950D01*
X13474699Y51485800D02*
X13474699Y51542950D01*
X13474699Y47574201D02*
X13474699Y51485800D01*
X13474699Y47517051D02*
X13474699Y47574201D01*
X6845300Y47517051D02*
X13474699Y47517051D01*
X16509999Y46609001D02*
X16509999Y52451000D01*
X16509999Y46228001D02*
X16509999Y46609001D01*
X3810000Y46228001D02*
X3810000Y46609001D01*
X3810000Y52451000D02*
X3810000Y46609001D01*
D11*
%TO.C,C1*%
X58450000Y55270000D02*
X58450000Y59070000D01*
X55850000Y55270000D02*
X58450000Y55270000D01*
X55850000Y59070000D02*
X55850000Y55270000D01*
X58450000Y59070000D02*
X55850000Y59070000D01*
%TO.C,C4*%
X23520000Y22195000D02*
X27320000Y22195000D01*
X23520000Y24795000D02*
X23520000Y22195000D01*
X27320000Y24795000D02*
X23520000Y24795000D01*
X27320000Y22195000D02*
X27320000Y24795000D01*
%TO.C,C3*%
X87020000Y71090000D02*
X90820000Y71090000D01*
X87020000Y73690000D02*
X87020000Y71090000D01*
X90820000Y73690000D02*
X87020000Y73690000D01*
X90820000Y71090000D02*
X90820000Y73690000D01*
%TO.C,C2*%
X66700000Y71090000D02*
X70500000Y71090000D01*
X66700000Y73690000D02*
X66700000Y71090000D01*
X70500000Y73690000D02*
X66700000Y73690000D01*
X70500000Y71090000D02*
X70500000Y73690000D01*
%TO.C,C6*%
X11460000Y64440000D02*
X16560000Y64440000D01*
X11460000Y67640000D02*
X11460000Y64440000D01*
X16560000Y67640000D02*
X11460000Y67640000D01*
X16560000Y64440000D02*
X16560000Y67640000D01*
%TO.C,C5*%
X30810000Y40670000D02*
X30810000Y45770000D01*
X27610000Y40670000D02*
X30810000Y40670000D01*
X27610000Y45770000D02*
X27610000Y40670000D01*
X30810000Y45770000D02*
X27610000Y45770000D01*
%TO.C,R9*%
X29210000Y27940000D02*
X29210000Y29870000D01*
X29210000Y38100000D02*
X29210000Y36170000D01*
X30460000Y29870000D02*
X30460000Y36170000D01*
X27960000Y29870000D02*
X30460000Y29870000D01*
X27960000Y36170000D02*
X27960000Y29870000D01*
X30460000Y36170000D02*
X27960000Y36170000D01*
%TO.C,R8*%
X26035000Y27940000D02*
X26035000Y29870000D01*
X26035000Y38100000D02*
X26035000Y36170000D01*
X27285000Y29870000D02*
X27285000Y36170000D01*
X24785000Y29870000D02*
X27285000Y29870000D01*
X24785000Y36170000D02*
X24785000Y29870000D01*
X27285000Y36170000D02*
X24785000Y36170000D01*
%TO.C,R7*%
X90170000Y21590000D02*
X88240000Y21590000D01*
X80010000Y21590000D02*
X81940000Y21590000D01*
X88240000Y22840000D02*
X81940000Y22840000D01*
X88240000Y20340000D02*
X88240000Y22840000D01*
X81940000Y20340000D02*
X88240000Y20340000D01*
X81940000Y22840000D02*
X81940000Y20340000D01*
%TO.C,R6*%
X72390000Y21590000D02*
X70460000Y21590000D01*
X62230000Y21590000D02*
X64160000Y21590000D01*
X70460000Y22840000D02*
X64160000Y22840000D01*
X70460000Y20340000D02*
X70460000Y22840000D01*
X64160000Y20340000D02*
X70460000Y20340000D01*
X64160000Y22840000D02*
X64160000Y20340000D01*
%TO.C,R5*%
X90170000Y29210000D02*
X88240000Y29210000D01*
X80010000Y29210000D02*
X81940000Y29210000D01*
X88240000Y30460000D02*
X81940000Y30460000D01*
X88240000Y27960000D02*
X88240000Y30460000D01*
X81940000Y27960000D02*
X88240000Y27960000D01*
X81940000Y30460000D02*
X81940000Y27960000D01*
%TO.C,R4*%
X90170000Y25400000D02*
X88240000Y25400000D01*
X80010000Y25400000D02*
X81940000Y25400000D01*
X88240000Y26650000D02*
X81940000Y26650000D01*
X88240000Y24150000D02*
X88240000Y26650000D01*
X81940000Y24150000D02*
X88240000Y24150000D01*
X81940000Y26650000D02*
X81940000Y24150000D01*
%TO.C,R3*%
X72390000Y25400000D02*
X70460000Y25400000D01*
X62230000Y25400000D02*
X64160000Y25400000D01*
X70460000Y26650000D02*
X64160000Y26650000D01*
X70460000Y24150000D02*
X70460000Y26650000D01*
X64160000Y24150000D02*
X70460000Y24150000D01*
X64160000Y26650000D02*
X64160000Y24150000D01*
%TO.C,R2*%
X67310000Y35560000D02*
X65380000Y35560000D01*
X57150000Y35560000D02*
X59080000Y35560000D01*
X65380000Y36810000D02*
X59080000Y36810000D01*
X65380000Y34310000D02*
X65380000Y36810000D01*
X59080000Y34310000D02*
X65380000Y34310000D01*
X59080000Y36810000D02*
X59080000Y34310000D01*
%TO.C,R1*%
X57150000Y39370000D02*
X59080000Y39370000D01*
X67310000Y39370000D02*
X65380000Y39370000D01*
X59080000Y38120000D02*
X65380000Y38120000D01*
X59080000Y40620000D02*
X59080000Y38120000D01*
X65380000Y40620000D02*
X59080000Y40620000D01*
X65380000Y38120000D02*
X65380000Y40620000D01*
D13*
%TO.C,J1*%
X3810000Y39370000D02*
X3810000Y24130000D01*
X6350000Y39370000D02*
X3810000Y39370000D01*
X6350000Y24130000D02*
X6350000Y39370000D01*
X3810000Y24130000D02*
X6350000Y24130000D01*
D11*
%TO.C,U3*%
X91440000Y69910000D02*
X73660000Y69910000D01*
X91440000Y34230000D02*
X91440000Y69910000D01*
X73660000Y34230000D02*
X91440000Y34230000D01*
X73660000Y69910000D02*
X73660000Y34230000D01*
X75185000Y68850000D02*
X76185000Y69850000D01*
X75185000Y34290000D02*
X75185000Y68850000D01*
X89915000Y34290000D02*
X75185000Y34290000D01*
X89915000Y69850000D02*
X89915000Y34290000D01*
X76185000Y69850000D02*
X89915000Y69850000D01*
D10*
%TO.C,J2*%
X14820000Y64190000D02*
X420000Y64190000D01*
X14820000Y55190000D02*
X14820000Y64190000D01*
X420000Y55190000D02*
X14820000Y55190000D01*
X420000Y64190000D02*
X420000Y55190000D01*
%TO.C,REF\002A\002A*%
X99695000Y71120000D02*
G75*
G03X99695000Y71120000I-3175000J0D01*
G01*
X99695000Y5080000D02*
G75*
G03X99695000Y5080000I-3175000J0D01*
G01*
X8255000Y71120000D02*
G75*
G03X8255000Y71120000I-3175000J0D01*
G01*
X8255000Y5080000D02*
G75*
G03X8255000Y5080000I-3175000J0D01*
G01*
D14*
%TO.C,U1*%
X53797199Y69164199D02*
G75*
G02X54609999Y68351399I0J-812800D01*
G01*
X54609999Y4191000D02*
X54609999Y68351399D01*
X54609999Y4191001D02*
G75*
G02X53797200Y3378200I-812800J-1D01*
G01*
X32562801Y3378200D02*
X53797200Y3378200D01*
X32562800Y3378201D02*
G75*
G02X31750001Y4191000I0J812799D01*
G01*
X31750000Y68351399D02*
X31750001Y4191000D01*
X31750000Y68351399D02*
G75*
G02X32562800Y69164199I812800J0D01*
G01*
X53797199Y69164199D02*
X32562800Y69164199D01*
D11*
%TO.C,X1*%
X29210000Y20940000D02*
G75*
G03X28560000Y21590000I-650000J0D01*
G01*
X28560000Y8890000D02*
G75*
G03X29210000Y9540000I0J650000D01*
G01*
X16510000Y9540000D02*
G75*
G03X17160000Y8890000I650000J0D01*
G01*
X28210000Y20240000D02*
G75*
G03X27860000Y20590000I-350000J0D01*
G01*
X27860000Y9890000D02*
G75*
G03X28210000Y10240000I0J350000D01*
G01*
X17510000Y10240000D02*
G75*
G03X17860000Y9890000I350000J0D01*
G01*
X16510000Y21590000D02*
X28560000Y21590000D01*
X29210000Y20940000D02*
X29210000Y9540000D01*
X28560000Y8890000D02*
X17160000Y8890000D01*
X16510000Y21590000D02*
X16510000Y9540000D01*
X17510000Y20590000D02*
X17510000Y10240000D01*
X17510000Y20590000D02*
X27860000Y20590000D01*
X28210000Y20240000D02*
X28210000Y10240000D01*
X17860000Y9890000D02*
X27860000Y9890000D01*
D10*
%TO.C,TP2*%
X13970000Y71120000D02*
G75*
G03X13970000Y71120000I-1270000J0D01*
G01*
%TO.C,TP1*%
X26670000Y71120000D02*
G75*
G03X26670000Y71120000I-1270000J0D01*
G01*
%TO.C,S3*%
X91440000Y19050000D02*
X76200000Y19050000D01*
X91440000Y3810000D02*
X91440000Y19050000D01*
X76200000Y3810000D02*
X91440000Y3810000D01*
X76200000Y19050000D02*
X76200000Y3810000D01*
%TO.C,S2*%
X73660000Y19050000D02*
X58420000Y19050000D01*
X73660000Y3810000D02*
X73660000Y19050000D01*
X58420000Y3810000D02*
X73660000Y3810000D01*
X58420000Y19050000D02*
X58420000Y3810000D01*
D11*
%TO.C,Q3*%
X74446375Y25883625D02*
G75*
G02X78680000Y24130000I1753625J-1753625D01*
G01*
X74446375Y22376375D02*
G75*
G03X78680000Y24130000I1753625J1753625D01*
G01*
X74450000Y25870000D02*
X74450000Y22370000D01*
%TO.C,Q2*%
X56666375Y25883625D02*
G75*
G02X60900000Y24130000I1753625J-1753625D01*
G01*
X56666375Y22376375D02*
G75*
G03X60900000Y24130000I1753625J1753625D01*
G01*
X56670000Y25870000D02*
X56670000Y22370000D01*
%TO.C,Q1*%
X61443625Y33503625D02*
G75*
G02X59690000Y29270000I-1753625J-1753625D01*
G01*
X57936375Y33503625D02*
G75*
G03X59690000Y29270000I1753625J-1753625D01*
G01*
X61430000Y33500000D02*
X57930000Y33500000D01*
%TD*%
%TO.C,R14*%
X15867142Y40441620D02*
X15533809Y40917810D01*
X15295714Y40441620D02*
X15295714Y41441620D01*
X15676666Y41441620D01*
X15771904Y41394000D01*
X15819523Y41346381D01*
X15867142Y41251143D01*
X15867142Y41108286D01*
X15819523Y41013048D01*
X15771904Y40965429D01*
X15676666Y40917810D01*
X15295714Y40917810D01*
X16819523Y40441620D02*
X16248095Y40441620D01*
X16533809Y40441620D02*
X16533809Y41441620D01*
X16438571Y41298762D01*
X16343333Y41203524D01*
X16248095Y41155905D01*
X17676666Y41108286D02*
X17676666Y40441620D01*
X17438571Y41489239D02*
X17200476Y40774953D01*
X17819523Y40774953D01*
%TO.C,D1*%
D15*
X22289523Y49168096D02*
X22289523Y49968096D01*
X22480000Y49968096D01*
X22594285Y49930000D01*
X22670476Y49853810D01*
X22708571Y49777620D01*
X22746666Y49625239D01*
X22746666Y49510953D01*
X22708571Y49358572D01*
X22670476Y49282381D01*
X22594285Y49206191D01*
X22480000Y49168096D01*
X22289523Y49168096D01*
X23508571Y49168096D02*
X23051428Y49168096D01*
X23280000Y49168096D02*
X23280000Y49968096D01*
X23203809Y49853810D01*
X23127619Y49777620D01*
X23051428Y49739524D01*
%TO.C,R13*%
D11*
X13787380Y32377143D02*
X13311190Y32043810D01*
X13787380Y31805715D02*
X12787380Y31805715D01*
X12787380Y32186667D01*
X12835000Y32281905D01*
X12882619Y32329524D01*
X12977857Y32377143D01*
X13120714Y32377143D01*
X13215952Y32329524D01*
X13263571Y32281905D01*
X13311190Y32186667D01*
X13311190Y31805715D01*
X13787380Y33329524D02*
X13787380Y32758096D01*
X13787380Y33043810D02*
X12787380Y33043810D01*
X12930238Y32948572D01*
X13025476Y32853334D01*
X13073095Y32758096D01*
X12787380Y33662858D02*
X12787380Y34281905D01*
X13168333Y33948572D01*
X13168333Y34091429D01*
X13215952Y34186667D01*
X13263571Y34234286D01*
X13358809Y34281905D01*
X13596904Y34281905D01*
X13692142Y34234286D01*
X13739761Y34186667D01*
X13787380Y34091429D01*
X13787380Y33805715D01*
X13739761Y33710477D01*
X13692142Y33662858D01*
%TO.C,R12*%
X16962380Y32377143D02*
X16486190Y32043810D01*
X16962380Y31805715D02*
X15962380Y31805715D01*
X15962380Y32186667D01*
X16010000Y32281905D01*
X16057619Y32329524D01*
X16152857Y32377143D01*
X16295714Y32377143D01*
X16390952Y32329524D01*
X16438571Y32281905D01*
X16486190Y32186667D01*
X16486190Y31805715D01*
X16962380Y33329524D02*
X16962380Y32758096D01*
X16962380Y33043810D02*
X15962380Y33043810D01*
X16105238Y32948572D01*
X16200476Y32853334D01*
X16248095Y32758096D01*
X16057619Y33710477D02*
X16010000Y33758096D01*
X15962380Y33853334D01*
X15962380Y34091429D01*
X16010000Y34186667D01*
X16057619Y34234286D01*
X16152857Y34281905D01*
X16248095Y34281905D01*
X16390952Y34234286D01*
X16962380Y33662858D01*
X16962380Y34281905D01*
%TO.C,R11*%
X20137380Y32377143D02*
X19661190Y32043810D01*
X20137380Y31805715D02*
X19137380Y31805715D01*
X19137380Y32186667D01*
X19185000Y32281905D01*
X19232619Y32329524D01*
X19327857Y32377143D01*
X19470714Y32377143D01*
X19565952Y32329524D01*
X19613571Y32281905D01*
X19661190Y32186667D01*
X19661190Y31805715D01*
X20137380Y33329524D02*
X20137380Y32758096D01*
X20137380Y33043810D02*
X19137380Y33043810D01*
X19280238Y32948572D01*
X19375476Y32853334D01*
X19423095Y32758096D01*
X20137380Y34281905D02*
X20137380Y33710477D01*
X20137380Y33996191D02*
X19137380Y33996191D01*
X19280238Y33900953D01*
X19375476Y33805715D01*
X19423095Y33710477D01*
%TO.C,R10*%
X23312380Y32377143D02*
X22836190Y32043810D01*
X23312380Y31805715D02*
X22312380Y31805715D01*
X22312380Y32186667D01*
X22360000Y32281905D01*
X22407619Y32329524D01*
X22502857Y32377143D01*
X22645714Y32377143D01*
X22740952Y32329524D01*
X22788571Y32281905D01*
X22836190Y32186667D01*
X22836190Y31805715D01*
X23312380Y33329524D02*
X23312380Y32758096D01*
X23312380Y33043810D02*
X22312380Y33043810D01*
X22455238Y32948572D01*
X22550476Y32853334D01*
X22598095Y32758096D01*
X22312380Y33948572D02*
X22312380Y34043810D01*
X22360000Y34139048D01*
X22407619Y34186667D01*
X22502857Y34234286D01*
X22693333Y34281905D01*
X22931428Y34281905D01*
X23121904Y34234286D01*
X23217142Y34186667D01*
X23264761Y34139048D01*
X23312380Y34043810D01*
X23312380Y33948572D01*
X23264761Y33853334D01*
X23217142Y33805715D01*
X23121904Y33758096D01*
X22931428Y33710477D01*
X22693333Y33710477D01*
X22502857Y33758096D01*
X22407619Y33805715D01*
X22360000Y33853334D01*
X22312380Y33948572D01*
%TO.C,S4*%
D10*
X9398095Y11660239D02*
X9540952Y11612620D01*
X9779047Y11612620D01*
X9874285Y11660239D01*
X9921904Y11707858D01*
X9969523Y11803096D01*
X9969523Y11898334D01*
X9921904Y11993572D01*
X9874285Y12041191D01*
X9779047Y12088810D01*
X9588571Y12136429D01*
X9493333Y12184048D01*
X9445714Y12231667D01*
X9398095Y12326905D01*
X9398095Y12422143D01*
X9445714Y12517381D01*
X9493333Y12565000D01*
X9588571Y12612620D01*
X9826666Y12612620D01*
X9969523Y12565000D01*
X10826666Y12279286D02*
X10826666Y11612620D01*
X10588571Y12660239D02*
X10350476Y11945953D01*
X10969523Y11945953D01*
%TO.C,S1*%
X6314761Y48768096D02*
X6362380Y48910953D01*
X6362380Y49149048D01*
X6314761Y49244286D01*
X6267142Y49291905D01*
X6171904Y49339524D01*
X6076666Y49339524D01*
X5981428Y49291905D01*
X5933809Y49244286D01*
X5886190Y49149048D01*
X5838571Y48958572D01*
X5790952Y48863334D01*
X5743333Y48815715D01*
X5648095Y48768096D01*
X5552857Y48768096D01*
X5457619Y48815715D01*
X5410000Y48863334D01*
X5362380Y48958572D01*
X5362380Y49196667D01*
X5410000Y49339524D01*
X6362380Y50291905D02*
X6362380Y49720477D01*
X6362380Y50006191D02*
X5362380Y50006191D01*
X5505238Y49910953D01*
X5600476Y49815715D01*
X5648095Y49720477D01*
%TO.C,C1*%
D16*
X57331428Y57065334D02*
X57355619Y57041143D01*
X57379809Y56968572D01*
X57379809Y56920191D01*
X57355619Y56847620D01*
X57307238Y56799239D01*
X57258857Y56775048D01*
X57162095Y56750858D01*
X57089523Y56750858D01*
X56992761Y56775048D01*
X56944380Y56799239D01*
X56896000Y56847620D01*
X56871809Y56920191D01*
X56871809Y56968572D01*
X56896000Y57041143D01*
X56920190Y57065334D01*
X57379809Y57549143D02*
X57379809Y57258858D01*
X57379809Y57404000D02*
X56871809Y57404000D01*
X56944380Y57355620D01*
X56992761Y57307239D01*
X57016952Y57258858D01*
%TO.C,C4*%
X25315333Y23313572D02*
X25291142Y23289381D01*
X25218571Y23265191D01*
X25170190Y23265191D01*
X25097619Y23289381D01*
X25049238Y23337762D01*
X25025047Y23386143D01*
X25000857Y23482905D01*
X25000857Y23555477D01*
X25025047Y23652239D01*
X25049238Y23700620D01*
X25097619Y23749000D01*
X25170190Y23773191D01*
X25218571Y23773191D01*
X25291142Y23749000D01*
X25315333Y23724810D01*
X25750761Y23603858D02*
X25750761Y23265191D01*
X25629809Y23797381D02*
X25508857Y23434524D01*
X25823333Y23434524D01*
%TO.C,C3*%
X88815333Y72208572D02*
X88791142Y72184381D01*
X88718571Y72160191D01*
X88670190Y72160191D01*
X88597619Y72184381D01*
X88549238Y72232762D01*
X88525047Y72281143D01*
X88500857Y72377905D01*
X88500857Y72450477D01*
X88525047Y72547239D01*
X88549238Y72595620D01*
X88597619Y72644000D01*
X88670190Y72668191D01*
X88718571Y72668191D01*
X88791142Y72644000D01*
X88815333Y72619810D01*
X88984666Y72668191D02*
X89299142Y72668191D01*
X89129809Y72474667D01*
X89202380Y72474667D01*
X89250761Y72450477D01*
X89274952Y72426286D01*
X89299142Y72377905D01*
X89299142Y72256953D01*
X89274952Y72208572D01*
X89250761Y72184381D01*
X89202380Y72160191D01*
X89057238Y72160191D01*
X89008857Y72184381D01*
X88984666Y72208572D01*
%TO.C,C2*%
X68495333Y72208572D02*
X68471142Y72184381D01*
X68398571Y72160191D01*
X68350190Y72160191D01*
X68277619Y72184381D01*
X68229238Y72232762D01*
X68205047Y72281143D01*
X68180857Y72377905D01*
X68180857Y72450477D01*
X68205047Y72547239D01*
X68229238Y72595620D01*
X68277619Y72644000D01*
X68350190Y72668191D01*
X68398571Y72668191D01*
X68471142Y72644000D01*
X68495333Y72619810D01*
X68688857Y72619810D02*
X68713047Y72644000D01*
X68761428Y72668191D01*
X68882380Y72668191D01*
X68930761Y72644000D01*
X68954952Y72619810D01*
X68979142Y72571429D01*
X68979142Y72523048D01*
X68954952Y72450477D01*
X68664666Y72160191D01*
X68979142Y72160191D01*
%TO.C,C6*%
X13885333Y65858572D02*
X13861142Y65834381D01*
X13788571Y65810191D01*
X13740190Y65810191D01*
X13667619Y65834381D01*
X13619238Y65882762D01*
X13595047Y65931143D01*
X13570857Y66027905D01*
X13570857Y66100477D01*
X13595047Y66197239D01*
X13619238Y66245620D01*
X13667619Y66294000D01*
X13740190Y66318191D01*
X13788571Y66318191D01*
X13861142Y66294000D01*
X13885333Y66269810D01*
X14320761Y66318191D02*
X14224000Y66318191D01*
X14175619Y66294000D01*
X14151428Y66269810D01*
X14103047Y66197239D01*
X14078857Y66100477D01*
X14078857Y65906953D01*
X14103047Y65858572D01*
X14127238Y65834381D01*
X14175619Y65810191D01*
X14272380Y65810191D01*
X14320761Y65834381D01*
X14344952Y65858572D01*
X14369142Y65906953D01*
X14369142Y66027905D01*
X14344952Y66076286D01*
X14320761Y66100477D01*
X14272380Y66124667D01*
X14175619Y66124667D01*
X14127238Y66100477D01*
X14103047Y66076286D01*
X14078857Y66027905D01*
%TO.C,C5*%
D17*
X29245714Y45703334D02*
X29250476Y45698572D01*
X29255238Y45684286D01*
X29255238Y45674762D01*
X29250476Y45660477D01*
X29240952Y45650953D01*
X29231428Y45646191D01*
X29212380Y45641429D01*
X29198095Y45641429D01*
X29179047Y45646191D01*
X29169523Y45650953D01*
X29160000Y45660477D01*
X29155238Y45674762D01*
X29155238Y45684286D01*
X29160000Y45698572D01*
X29164761Y45703334D01*
X29155238Y45793810D02*
X29155238Y45746191D01*
X29202857Y45741429D01*
X29198095Y45746191D01*
X29193333Y45755715D01*
X29193333Y45779524D01*
X29198095Y45789048D01*
X29202857Y45793810D01*
X29212380Y45798572D01*
X29236190Y45798572D01*
X29245714Y45793810D01*
X29250476Y45789048D01*
X29255238Y45779524D01*
X29255238Y45755715D01*
X29250476Y45746191D01*
X29245714Y45741429D01*
%TO.C,R9*%
D11*
X29662380Y32853334D02*
X29186190Y32520000D01*
X29662380Y32281905D02*
X28662380Y32281905D01*
X28662380Y32662858D01*
X28710000Y32758096D01*
X28757619Y32805715D01*
X28852857Y32853334D01*
X28995714Y32853334D01*
X29090952Y32805715D01*
X29138571Y32758096D01*
X29186190Y32662858D01*
X29186190Y32281905D01*
X29662380Y33329524D02*
X29662380Y33520000D01*
X29614761Y33615239D01*
X29567142Y33662858D01*
X29424285Y33758096D01*
X29233809Y33805715D01*
X28852857Y33805715D01*
X28757619Y33758096D01*
X28710000Y33710477D01*
X28662380Y33615239D01*
X28662380Y33424762D01*
X28710000Y33329524D01*
X28757619Y33281905D01*
X28852857Y33234286D01*
X29090952Y33234286D01*
X29186190Y33281905D01*
X29233809Y33329524D01*
X29281428Y33424762D01*
X29281428Y33615239D01*
X29233809Y33710477D01*
X29186190Y33758096D01*
X29090952Y33805715D01*
%TO.C,R8*%
X26487380Y32853334D02*
X26011190Y32520000D01*
X26487380Y32281905D02*
X25487380Y32281905D01*
X25487380Y32662858D01*
X25535000Y32758096D01*
X25582619Y32805715D01*
X25677857Y32853334D01*
X25820714Y32853334D01*
X25915952Y32805715D01*
X25963571Y32758096D01*
X26011190Y32662858D01*
X26011190Y32281905D01*
X25915952Y33424762D02*
X25868333Y33329524D01*
X25820714Y33281905D01*
X25725476Y33234286D01*
X25677857Y33234286D01*
X25582619Y33281905D01*
X25535000Y33329524D01*
X25487380Y33424762D01*
X25487380Y33615239D01*
X25535000Y33710477D01*
X25582619Y33758096D01*
X25677857Y33805715D01*
X25725476Y33805715D01*
X25820714Y33758096D01*
X25868333Y33710477D01*
X25915952Y33615239D01*
X25915952Y33424762D01*
X25963571Y33329524D01*
X26011190Y33281905D01*
X26106428Y33234286D01*
X26296904Y33234286D01*
X26392142Y33281905D01*
X26439761Y33329524D01*
X26487380Y33424762D01*
X26487380Y33615239D01*
X26439761Y33710477D01*
X26392142Y33758096D01*
X26296904Y33805715D01*
X26106428Y33805715D01*
X26011190Y33758096D01*
X25963571Y33710477D01*
X25915952Y33615239D01*
%TO.C,R7*%
X84923333Y21137620D02*
X84590000Y21613810D01*
X84351904Y21137620D02*
X84351904Y22137620D01*
X84732857Y22137620D01*
X84828095Y22090000D01*
X84875714Y22042381D01*
X84923333Y21947143D01*
X84923333Y21804286D01*
X84875714Y21709048D01*
X84828095Y21661429D01*
X84732857Y21613810D01*
X84351904Y21613810D01*
X85256666Y22137620D02*
X85923333Y22137620D01*
X85494761Y21137620D01*
%TO.C,R6*%
X67143333Y21137620D02*
X66810000Y21613810D01*
X66571904Y21137620D02*
X66571904Y22137620D01*
X66952857Y22137620D01*
X67048095Y22090000D01*
X67095714Y22042381D01*
X67143333Y21947143D01*
X67143333Y21804286D01*
X67095714Y21709048D01*
X67048095Y21661429D01*
X66952857Y21613810D01*
X66571904Y21613810D01*
X68000476Y22137620D02*
X67810000Y22137620D01*
X67714761Y22090000D01*
X67667142Y22042381D01*
X67571904Y21899524D01*
X67524285Y21709048D01*
X67524285Y21328096D01*
X67571904Y21232858D01*
X67619523Y21185239D01*
X67714761Y21137620D01*
X67905238Y21137620D01*
X68000476Y21185239D01*
X68048095Y21232858D01*
X68095714Y21328096D01*
X68095714Y21566191D01*
X68048095Y21661429D01*
X68000476Y21709048D01*
X67905238Y21756667D01*
X67714761Y21756667D01*
X67619523Y21709048D01*
X67571904Y21661429D01*
X67524285Y21566191D01*
%TO.C,R5*%
X84923333Y28757620D02*
X84590000Y29233810D01*
X84351904Y28757620D02*
X84351904Y29757620D01*
X84732857Y29757620D01*
X84828095Y29710000D01*
X84875714Y29662381D01*
X84923333Y29567143D01*
X84923333Y29424286D01*
X84875714Y29329048D01*
X84828095Y29281429D01*
X84732857Y29233810D01*
X84351904Y29233810D01*
X85828095Y29757620D02*
X85351904Y29757620D01*
X85304285Y29281429D01*
X85351904Y29329048D01*
X85447142Y29376667D01*
X85685238Y29376667D01*
X85780476Y29329048D01*
X85828095Y29281429D01*
X85875714Y29186191D01*
X85875714Y28948096D01*
X85828095Y28852858D01*
X85780476Y28805239D01*
X85685238Y28757620D01*
X85447142Y28757620D01*
X85351904Y28805239D01*
X85304285Y28852858D01*
%TO.C,R4*%
X84923333Y24947620D02*
X84590000Y25423810D01*
X84351904Y24947620D02*
X84351904Y25947620D01*
X84732857Y25947620D01*
X84828095Y25900000D01*
X84875714Y25852381D01*
X84923333Y25757143D01*
X84923333Y25614286D01*
X84875714Y25519048D01*
X84828095Y25471429D01*
X84732857Y25423810D01*
X84351904Y25423810D01*
X85780476Y25614286D02*
X85780476Y24947620D01*
X85542380Y25995239D02*
X85304285Y25280953D01*
X85923333Y25280953D01*
%TO.C,R3*%
X67143333Y24947620D02*
X66810000Y25423810D01*
X66571904Y24947620D02*
X66571904Y25947620D01*
X66952857Y25947620D01*
X67048095Y25900000D01*
X67095714Y25852381D01*
X67143333Y25757143D01*
X67143333Y25614286D01*
X67095714Y25519048D01*
X67048095Y25471429D01*
X66952857Y25423810D01*
X66571904Y25423810D01*
X67476666Y25947620D02*
X68095714Y25947620D01*
X67762380Y25566667D01*
X67905238Y25566667D01*
X68000476Y25519048D01*
X68048095Y25471429D01*
X68095714Y25376191D01*
X68095714Y25138096D01*
X68048095Y25042858D01*
X68000476Y24995239D01*
X67905238Y24947620D01*
X67619523Y24947620D01*
X67524285Y24995239D01*
X67476666Y25042858D01*
%TO.C,R2*%
X62063333Y35107620D02*
X61730000Y35583810D01*
X61491904Y35107620D02*
X61491904Y36107620D01*
X61872857Y36107620D01*
X61968095Y36060000D01*
X62015714Y36012381D01*
X62063333Y35917143D01*
X62063333Y35774286D01*
X62015714Y35679048D01*
X61968095Y35631429D01*
X61872857Y35583810D01*
X61491904Y35583810D01*
X62444285Y36012381D02*
X62491904Y36060000D01*
X62587142Y36107620D01*
X62825238Y36107620D01*
X62920476Y36060000D01*
X62968095Y36012381D01*
X63015714Y35917143D01*
X63015714Y35821905D01*
X62968095Y35679048D01*
X62396666Y35107620D01*
X63015714Y35107620D01*
%TO.C,R1*%
X62063333Y38917620D02*
X61730000Y39393810D01*
X61491904Y38917620D02*
X61491904Y39917620D01*
X61872857Y39917620D01*
X61968095Y39870000D01*
X62015714Y39822381D01*
X62063333Y39727143D01*
X62063333Y39584286D01*
X62015714Y39489048D01*
X61968095Y39441429D01*
X61872857Y39393810D01*
X61491904Y39393810D01*
X63015714Y38917620D02*
X62444285Y38917620D01*
X62730000Y38917620D02*
X62730000Y39917620D01*
X62634761Y39774762D01*
X62539523Y39679524D01*
X62444285Y39631905D01*
%TO.C,J1*%
D10*
X4532380Y31416667D02*
X5246666Y31416667D01*
X5389523Y31369048D01*
X5484761Y31273810D01*
X5532380Y31130953D01*
X5532380Y31035715D01*
X5532380Y32416667D02*
X5532380Y31845239D01*
X5532380Y32130953D02*
X4532380Y32130953D01*
X4675238Y32035715D01*
X4770476Y31940477D01*
X4818095Y31845239D01*
%TO.C,J2*%
X10372380Y59356667D02*
X11086666Y59356667D01*
X11229523Y59309048D01*
X11324761Y59213810D01*
X11372380Y59070953D01*
X11372380Y58975715D01*
X10467619Y59785239D02*
X10420000Y59832858D01*
X10372380Y59928096D01*
X10372380Y60166191D01*
X10420000Y60261429D01*
X10467619Y60309048D01*
X10562857Y60356667D01*
X10658095Y60356667D01*
X10800952Y60309048D01*
X11372380Y59737620D01*
X11372380Y60356667D01*
%TO.C,U1*%
X42418095Y33567620D02*
X42418095Y32758096D01*
X42465714Y32662858D01*
X42513333Y32615239D01*
X42608571Y32567620D01*
X42799047Y32567620D01*
X42894285Y32615239D01*
X42941904Y32662858D01*
X42989523Y32758096D01*
X42989523Y33567620D01*
X43989523Y32567620D02*
X43418095Y32567620D01*
X43703809Y32567620D02*
X43703809Y33567620D01*
X43608571Y33424762D01*
X43513333Y33329524D01*
X43418095Y33281905D01*
%TO.C,X1*%
X22050476Y15787620D02*
X22717142Y14787620D01*
X22717142Y15787620D02*
X22050476Y14787620D01*
X23621904Y14787620D02*
X23050476Y14787620D01*
X23336190Y14787620D02*
X23336190Y15787620D01*
X23240952Y15644762D01*
X23145714Y15549524D01*
X23050476Y15501905D01*
%TO.C,TP2*%
D14*
X12379476Y71259096D02*
X12524619Y71259096D01*
X12452047Y71005096D02*
X12452047Y71259096D01*
X12609285Y71005096D02*
X12609285Y71259096D01*
X12706047Y71259096D01*
X12730238Y71247000D01*
X12742333Y71234905D01*
X12754428Y71210715D01*
X12754428Y71174429D01*
X12742333Y71150239D01*
X12730238Y71138143D01*
X12706047Y71126048D01*
X12609285Y71126048D01*
X12851190Y71234905D02*
X12863285Y71247000D01*
X12887476Y71259096D01*
X12947952Y71259096D01*
X12972142Y71247000D01*
X12984238Y71234905D01*
X12996333Y71210715D01*
X12996333Y71186524D01*
X12984238Y71150239D01*
X12839095Y71005096D01*
X12996333Y71005096D01*
X12488333Y70630143D02*
X12524619Y70618048D01*
X12536714Y70605953D01*
X12548809Y70581762D01*
X12548809Y70545477D01*
X12536714Y70521286D01*
X12524619Y70509191D01*
X12500428Y70497096D01*
X12403666Y70497096D01*
X12403666Y70751096D01*
X12488333Y70751096D01*
X12512523Y70739000D01*
X12524619Y70726905D01*
X12536714Y70702715D01*
X12536714Y70678524D01*
X12524619Y70654334D01*
X12512523Y70642239D01*
X12488333Y70630143D01*
X12403666Y70630143D01*
X12778619Y70497096D02*
X12657666Y70497096D01*
X12657666Y70751096D01*
X12863285Y70497096D02*
X12863285Y70751096D01*
X13008428Y70497096D02*
X12899571Y70642239D01*
X13008428Y70751096D02*
X12863285Y70605953D01*
%TO.C,TP1*%
X25079476Y71259096D02*
X25224619Y71259096D01*
X25152047Y71005096D02*
X25152047Y71259096D01*
X25309285Y71005096D02*
X25309285Y71259096D01*
X25406047Y71259096D01*
X25430238Y71247000D01*
X25442333Y71234905D01*
X25454428Y71210715D01*
X25454428Y71174429D01*
X25442333Y71150239D01*
X25430238Y71138143D01*
X25406047Y71126048D01*
X25309285Y71126048D01*
X25696333Y71005096D02*
X25551190Y71005096D01*
X25623761Y71005096D02*
X25623761Y71259096D01*
X25599571Y71222810D01*
X25575380Y71198620D01*
X25551190Y71186524D01*
X25236714Y70497096D02*
X25152047Y70618048D01*
X25091571Y70497096D02*
X25091571Y70751096D01*
X25188333Y70751096D01*
X25212523Y70739000D01*
X25224619Y70726905D01*
X25236714Y70702715D01*
X25236714Y70666429D01*
X25224619Y70642239D01*
X25212523Y70630143D01*
X25188333Y70618048D01*
X25091571Y70618048D01*
X25345571Y70630143D02*
X25430238Y70630143D01*
X25466523Y70497096D02*
X25345571Y70497096D01*
X25345571Y70751096D01*
X25466523Y70751096D01*
X25575380Y70497096D02*
X25575380Y70751096D01*
X25635857Y70751096D01*
X25672142Y70739000D01*
X25696333Y70714810D01*
X25708428Y70690620D01*
X25720523Y70642239D01*
X25720523Y70605953D01*
X25708428Y70557572D01*
X25696333Y70533381D01*
X25672142Y70509191D01*
X25635857Y70497096D01*
X25575380Y70497096D01*
%TO.C,S3*%
D10*
X83058095Y13565239D02*
X83200952Y13517620D01*
X83439047Y13517620D01*
X83534285Y13565239D01*
X83581904Y13612858D01*
X83629523Y13708096D01*
X83629523Y13803334D01*
X83581904Y13898572D01*
X83534285Y13946191D01*
X83439047Y13993810D01*
X83248571Y14041429D01*
X83153333Y14089048D01*
X83105714Y14136667D01*
X83058095Y14231905D01*
X83058095Y14327143D01*
X83105714Y14422381D01*
X83153333Y14470000D01*
X83248571Y14517620D01*
X83486666Y14517620D01*
X83629523Y14470000D01*
X83962857Y14517620D02*
X84581904Y14517620D01*
X84248571Y14136667D01*
X84391428Y14136667D01*
X84486666Y14089048D01*
X84534285Y14041429D01*
X84581904Y13946191D01*
X84581904Y13708096D01*
X84534285Y13612858D01*
X84486666Y13565239D01*
X84391428Y13517620D01*
X84105714Y13517620D01*
X84010476Y13565239D01*
X83962857Y13612858D01*
%TO.C,S2*%
X65278095Y13565239D02*
X65420952Y13517620D01*
X65659047Y13517620D01*
X65754285Y13565239D01*
X65801904Y13612858D01*
X65849523Y13708096D01*
X65849523Y13803334D01*
X65801904Y13898572D01*
X65754285Y13946191D01*
X65659047Y13993810D01*
X65468571Y14041429D01*
X65373333Y14089048D01*
X65325714Y14136667D01*
X65278095Y14231905D01*
X65278095Y14327143D01*
X65325714Y14422381D01*
X65373333Y14470000D01*
X65468571Y14517620D01*
X65706666Y14517620D01*
X65849523Y14470000D01*
X66230476Y14422381D02*
X66278095Y14470000D01*
X66373333Y14517620D01*
X66611428Y14517620D01*
X66706666Y14470000D01*
X66754285Y14422381D01*
X66801904Y14327143D01*
X66801904Y14231905D01*
X66754285Y14089048D01*
X66182857Y13517620D01*
X66801904Y13517620D01*
%TO.C,Q3*%
X78017619Y24034762D02*
X77970000Y23939524D01*
X77874761Y23844286D01*
X77731904Y23701429D01*
X77684285Y23606191D01*
X77684285Y23510953D01*
X77922380Y23558572D02*
X77874761Y23463334D01*
X77779523Y23368096D01*
X77589047Y23320477D01*
X77255714Y23320477D01*
X77065238Y23368096D01*
X76970000Y23463334D01*
X76922380Y23558572D01*
X76922380Y23749048D01*
X76970000Y23844286D01*
X77065238Y23939524D01*
X77255714Y23987143D01*
X77589047Y23987143D01*
X77779523Y23939524D01*
X77874761Y23844286D01*
X77922380Y23749048D01*
X77922380Y23558572D01*
X76922380Y24320477D02*
X76922380Y24939524D01*
X77303333Y24606191D01*
X77303333Y24749048D01*
X77350952Y24844286D01*
X77398571Y24891905D01*
X77493809Y24939524D01*
X77731904Y24939524D01*
X77827142Y24891905D01*
X77874761Y24844286D01*
X77922380Y24749048D01*
X77922380Y24463334D01*
X77874761Y24368096D01*
X77827142Y24320477D01*
%TO.C,Q2*%
X60237619Y24034762D02*
X60190000Y23939524D01*
X60094761Y23844286D01*
X59951904Y23701429D01*
X59904285Y23606191D01*
X59904285Y23510953D01*
X60142380Y23558572D02*
X60094761Y23463334D01*
X59999523Y23368096D01*
X59809047Y23320477D01*
X59475714Y23320477D01*
X59285238Y23368096D01*
X59190000Y23463334D01*
X59142380Y23558572D01*
X59142380Y23749048D01*
X59190000Y23844286D01*
X59285238Y23939524D01*
X59475714Y23987143D01*
X59809047Y23987143D01*
X59999523Y23939524D01*
X60094761Y23844286D01*
X60142380Y23749048D01*
X60142380Y23558572D01*
X59237619Y24368096D02*
X59190000Y24415715D01*
X59142380Y24510953D01*
X59142380Y24749048D01*
X59190000Y24844286D01*
X59237619Y24891905D01*
X59332857Y24939524D01*
X59428095Y24939524D01*
X59570952Y24891905D01*
X60142380Y24320477D01*
X60142380Y24939524D01*
%TO.C,Q1*%
X59594761Y29932381D02*
X59499523Y29980000D01*
X59404285Y30075239D01*
X59261428Y30218096D01*
X59166190Y30265715D01*
X59070952Y30265715D01*
X59118571Y30027620D02*
X59023333Y30075239D01*
X58928095Y30170477D01*
X58880476Y30360953D01*
X58880476Y30694286D01*
X58928095Y30884762D01*
X59023333Y30980000D01*
X59118571Y31027620D01*
X59309047Y31027620D01*
X59404285Y30980000D01*
X59499523Y30884762D01*
X59547142Y30694286D01*
X59547142Y30360953D01*
X59499523Y30170477D01*
X59404285Y30075239D01*
X59309047Y30027620D01*
X59118571Y30027620D01*
X60499523Y30027620D02*
X59928095Y30027620D01*
X60213809Y30027620D02*
X60213809Y31027620D01*
X60118571Y30884762D01*
X60023333Y30789524D01*
X59928095Y30741905D01*
%TD*%
M02*
