%FSLAX45Y45*%
G04 Gerber Fmt 4.5, Leading zero omitted, Abs format (unit mm)*
G04 Created by KiCad (PCBNEW (5.1.4-0-10_14)) date 2020-04-13 14:17:26*
%MOMM*%
%LPD*%
G04 APERTURE LIST*
%ADD10C,0.150000*%
%ADD11C,0.200000*%
%ADD12C,0.300000*%
G04 APERTURE END LIST*
D10*
X0Y7112000D02*
G75*
G02X508000Y7620000I508000J0D01*
G01*
X9652000Y7620000D02*
G75*
G02X10160000Y7112000I0J-508000D01*
G01*
X10160000Y508000D02*
G75*
G02X9652000Y0I-508000J0D01*
G01*
X508000Y0D02*
G75*
G02X0Y508000I0J508000D01*
G01*
X0Y7112000D02*
X0Y508000D01*
X9652000Y7620000D02*
X508000Y7620000D01*
X10160000Y508000D02*
X10160000Y7112000D01*
X508000Y0D02*
X9652000Y0D01*
D11*
X3060700Y749300D02*
X3086100Y723900D01*
X3086100Y749300D02*
X3060700Y723900D01*
X3746500Y800100D02*
X3771900Y774700D01*
X3771900Y800100D02*
X3746500Y774700D01*
X3797300Y850900D02*
X3822700Y825500D01*
X3822700Y850900D02*
X3797300Y825500D01*
X3848100Y901700D02*
X3873500Y876300D01*
X3873500Y901700D02*
X3848100Y876300D01*
X3898900Y3949700D02*
X3924300Y3924300D01*
X3924300Y3949700D02*
X3898900Y3924300D01*
X6337300Y3695700D02*
X6362700Y3670300D01*
X6362700Y3695700D02*
X6337300Y3670300D01*
X6388100Y3822700D02*
X6413500Y3797300D01*
X6413500Y3822700D02*
X6388100Y3797300D01*
X6438900Y4965700D02*
X6464300Y4940300D01*
X6464300Y4965700D02*
X6438900Y4940300D01*
X6489700Y4711700D02*
X6515100Y4686300D01*
X6515100Y4711700D02*
X6489700Y4686300D01*
X6540500Y4127500D02*
X6565900Y4102100D01*
X6565900Y4127500D02*
X6540500Y4102100D01*
X6591300Y4330700D02*
X6616700Y4305300D01*
X6616700Y4330700D02*
X6591300Y4305300D01*
X6642100Y4457700D02*
X6667500Y4432300D01*
X6667500Y4457700D02*
X6642100Y4432300D01*
X6692900Y4762500D02*
X6718300Y4737100D01*
X6718300Y4762500D02*
X6692900Y4737100D01*
X6692900Y4203700D02*
X6718300Y4178300D01*
X6718300Y4203700D02*
X6692900Y4178300D01*
X6743700Y4381500D02*
X6769100Y4356100D01*
X6769100Y4381500D02*
X6743700Y4356100D01*
X6794500Y4076700D02*
X6819900Y4051300D01*
X6819900Y4076700D02*
X6794500Y4051300D01*
X6845300Y3771900D02*
X6870700Y3746500D01*
X6870700Y3771900D02*
X6845300Y3746500D01*
X6972300Y3314700D02*
X6997700Y3289300D01*
X6997700Y3314700D02*
X6972300Y3289300D01*
X6972300Y2044700D02*
X6997700Y2019300D01*
X6997700Y2044700D02*
X6972300Y2019300D01*
X7099300Y5600700D02*
X7124700Y5575300D01*
X7124700Y5600700D02*
X7099300Y5575300D01*
X7150100Y6362700D02*
X7175500Y6337300D01*
X7175500Y6362700D02*
X7150100Y6337300D01*
X7353300Y952500D02*
X7378700Y927100D01*
X7378700Y952500D02*
X7353300Y927100D01*
X7658100Y3009900D02*
X7683500Y2984500D01*
X7683500Y3009900D02*
X7658100Y2984500D01*
X8470900Y1003300D02*
X8496300Y977900D01*
X8496300Y1003300D02*
X8470900Y977900D01*
X8572500Y2298700D02*
X8597900Y2273300D01*
X8597900Y2298700D02*
X8572500Y2273300D01*
X8674100Y1333500D02*
X8699500Y1308100D01*
X8699500Y1333500D02*
X8674100Y1308100D01*
X8724900Y1790700D02*
X8750300Y1765300D01*
X8750300Y1790700D02*
X8724900Y1765300D01*
X8775700Y1536700D02*
X8801100Y1511300D01*
X8801100Y1536700D02*
X8775700Y1511300D01*
X8826500Y4203700D02*
X8851900Y4178300D01*
X8851900Y4203700D02*
X8826500Y4178300D01*
X8826500Y3822700D02*
X8851900Y3797300D01*
X8851900Y3822700D02*
X8826500Y3797300D01*
X8877300Y4457700D02*
X8902700Y4432300D01*
X8902700Y4457700D02*
X8877300Y4432300D01*
X9156700Y901700D02*
X9182100Y876300D01*
X9182100Y901700D02*
X9156700Y876300D01*
X9182100Y3060700D02*
X9207500Y3035300D01*
X9207500Y3060700D02*
X9182100Y3035300D01*
X9207500Y850900D02*
X9232900Y825500D01*
X9232900Y850900D02*
X9207500Y825500D01*
X6263000Y6858000D02*
G75*
G03X6263000Y6858000I-40000J0D01*
G01*
X6263000Y6604000D02*
G75*
G03X6263000Y6604000I-40000J0D01*
G01*
X6263000Y6350000D02*
G75*
G03X6263000Y6350000I-40000J0D01*
G01*
X6263000Y6096000D02*
G75*
G03X6263000Y6096000I-40000J0D01*
G01*
X6263000Y5842000D02*
G75*
G03X6263000Y5842000I-40000J0D01*
G01*
X6263000Y5588000D02*
G75*
G03X6263000Y5588000I-40000J0D01*
G01*
X5755000Y3175000D02*
G75*
G03X5755000Y3175000I-40000J0D01*
G01*
X6263000Y5334000D02*
G75*
G03X6263000Y5334000I-40000J0D01*
G01*
X6263000Y5080000D02*
G75*
G03X6263000Y5080000I-40000J0D01*
G01*
X6263000Y4826000D02*
G75*
G03X6263000Y4826000I-40000J0D01*
G01*
X6263000Y4572000D02*
G75*
G03X6263000Y4572000I-40000J0D01*
G01*
X7025000Y6858000D02*
G75*
G03X7025000Y6858000I-40000J0D01*
G01*
X7025000Y6604000D02*
G75*
G03X7025000Y6604000I-40000J0D01*
G01*
X7025000Y6350000D02*
G75*
G03X7025000Y6350000I-40000J0D01*
G01*
X7025000Y6096000D02*
G75*
G03X7025000Y6096000I-40000J0D01*
G01*
X1183000Y1143000D02*
G75*
G03X1183000Y1143000I-40000J0D01*
G01*
X675000Y1143000D02*
G75*
G03X675000Y1143000I-40000J0D01*
G01*
X929000Y1143000D02*
G75*
G03X929000Y1143000I-40000J0D01*
G01*
X1183000Y1905000D02*
G75*
G03X1183000Y1905000I-40000J0D01*
G01*
X1437000Y1143000D02*
G75*
G03X1437000Y1143000I-40000J0D01*
G01*
X8041000Y2921000D02*
G75*
G03X8041000Y2921000I-40000J0D01*
G01*
X2326000Y3810000D02*
G75*
G03X2326000Y3810000I-40000J0D01*
G01*
X2326000Y2794000D02*
G75*
G03X2326000Y2794000I-40000J0D01*
G01*
X2008500Y3810000D02*
G75*
G03X2008500Y3810000I-40000J0D01*
G01*
X2008500Y2794000D02*
G75*
G03X2008500Y2794000I-40000J0D01*
G01*
X7025000Y5842000D02*
G75*
G03X7025000Y5842000I-40000J0D01*
G01*
X9057000Y2921000D02*
G75*
G03X9057000Y2921000I-40000J0D01*
G01*
X7025000Y5588000D02*
G75*
G03X7025000Y5588000I-40000J0D01*
G01*
X7025000Y5334000D02*
G75*
G03X7025000Y5334000I-40000J0D01*
G01*
X7025000Y5080000D02*
G75*
G03X7025000Y5080000I-40000J0D01*
G01*
X1945000Y1905000D02*
G75*
G03X1945000Y1905000I-40000J0D01*
G01*
X2707000Y1905000D02*
G75*
G03X2707000Y1905000I-40000J0D01*
G01*
X7660000Y2667000D02*
G75*
G03X7660000Y2667000I-40000J0D01*
G01*
X7025000Y4826000D02*
G75*
G03X7025000Y4826000I-40000J0D01*
G01*
X7660000Y2159000D02*
G75*
G03X7660000Y2159000I-40000J0D01*
G01*
X7025000Y4572000D02*
G75*
G03X7025000Y4572000I-40000J0D01*
G01*
X7660000Y2413000D02*
G75*
G03X7660000Y2413000I-40000J0D01*
G01*
X2961000Y4572000D02*
G75*
G03X2961000Y4572000I-40000J0D01*
G01*
X2961000Y4072000D02*
G75*
G03X2961000Y4072000I-40000J0D01*
G01*
X1945000Y1143000D02*
G75*
G03X1945000Y1143000I-40000J0D01*
G01*
X2707000Y1143000D02*
G75*
G03X2707000Y1143000I-40000J0D01*
G01*
X7533000Y6858000D02*
G75*
G03X7533000Y6858000I-40000J0D01*
G01*
X7533000Y6604000D02*
G75*
G03X7533000Y6604000I-40000J0D01*
G01*
X7533000Y6350000D02*
G75*
G03X7533000Y6350000I-40000J0D01*
G01*
X7533000Y6096000D02*
G75*
G03X7533000Y6096000I-40000J0D01*
G01*
X7533000Y5842000D02*
G75*
G03X7533000Y5842000I-40000J0D01*
G01*
X7533000Y5588000D02*
G75*
G03X7533000Y5588000I-40000J0D01*
G01*
X7533000Y5334000D02*
G75*
G03X7533000Y5334000I-40000J0D01*
G01*
X7533000Y5080000D02*
G75*
G03X7533000Y5080000I-40000J0D01*
G01*
X7533000Y4826000D02*
G75*
G03X7533000Y4826000I-40000J0D01*
G01*
X7533000Y4572000D02*
G75*
G03X7533000Y4572000I-40000J0D01*
G01*
X7533000Y4318000D02*
G75*
G03X7533000Y4318000I-40000J0D01*
G01*
X7533000Y4064000D02*
G75*
G03X7533000Y4064000I-40000J0D01*
G01*
X7533000Y3810000D02*
G75*
G03X7533000Y3810000I-40000J0D01*
G01*
X7533000Y3556000D02*
G75*
G03X7533000Y3556000I-40000J0D01*
G01*
X9057000Y6858000D02*
G75*
G03X9057000Y6858000I-40000J0D01*
G01*
X9057000Y6604000D02*
G75*
G03X9057000Y6604000I-40000J0D01*
G01*
X9057000Y6350000D02*
G75*
G03X9057000Y6350000I-40000J0D01*
G01*
X9057000Y6096000D02*
G75*
G03X9057000Y6096000I-40000J0D01*
G01*
X9057000Y5842000D02*
G75*
G03X9057000Y5842000I-40000J0D01*
G01*
X9057000Y5588000D02*
G75*
G03X9057000Y5588000I-40000J0D01*
G01*
X9057000Y5334000D02*
G75*
G03X9057000Y5334000I-40000J0D01*
G01*
X9057000Y5080000D02*
G75*
G03X9057000Y5080000I-40000J0D01*
G01*
X9057000Y4826000D02*
G75*
G03X9057000Y4826000I-40000J0D01*
G01*
X9057000Y4572000D02*
G75*
G03X9057000Y4572000I-40000J0D01*
G01*
X9057000Y4318000D02*
G75*
G03X9057000Y4318000I-40000J0D01*
G01*
X9057000Y4064000D02*
G75*
G03X9057000Y4064000I-40000J0D01*
G01*
X9057000Y3810000D02*
G75*
G03X9057000Y3810000I-40000J0D01*
G01*
X5755000Y3937000D02*
G75*
G03X5755000Y3937000I-40000J0D01*
G01*
X6771000Y3937000D02*
G75*
G03X6771000Y3937000I-40000J0D01*
G01*
X2961000Y3810000D02*
G75*
G03X2961000Y3810000I-40000J0D01*
G01*
X2961000Y2794000D02*
G75*
G03X2961000Y2794000I-40000J0D01*
G01*
X2643500Y3810000D02*
G75*
G03X2643500Y3810000I-40000J0D01*
G01*
X2643500Y2794000D02*
G75*
G03X2643500Y2794000I-40000J0D01*
G01*
X9057000Y3556000D02*
G75*
G03X9057000Y3556000I-40000J0D01*
G01*
X9057000Y2540000D02*
G75*
G03X9057000Y2540000I-40000J0D01*
G01*
X6263000Y2159000D02*
G75*
G03X6263000Y2159000I-40000J0D01*
G01*
X7279000Y2159000D02*
G75*
G03X7279000Y2159000I-40000J0D01*
G01*
X1691000Y3810000D02*
G75*
G03X1691000Y3810000I-40000J0D01*
G01*
X1691000Y2794000D02*
G75*
G03X1691000Y2794000I-40000J0D01*
G01*
X5755000Y5842000D02*
G75*
G03X5755000Y5842000I-40000J0D01*
G01*
X5755000Y5592000D02*
G75*
G03X5755000Y5592000I-40000J0D01*
G01*
X8041000Y2540000D02*
G75*
G03X8041000Y2540000I-40000J0D01*
G01*
X6009000Y3175000D02*
G75*
G03X6009000Y3175000I-40000J0D01*
G01*
X2199000Y4089400D02*
G75*
G03X2199000Y4089400I-40000J0D01*
G01*
X6263000Y3175000D02*
G75*
G03X6263000Y3175000I-40000J0D01*
G01*
X5755000Y3556000D02*
G75*
G03X5755000Y3556000I-40000J0D01*
G01*
X6771000Y3556000D02*
G75*
G03X6771000Y3556000I-40000J0D01*
G01*
X6263000Y2540000D02*
G75*
G03X6263000Y2540000I-40000J0D01*
G01*
X7279000Y2540000D02*
G75*
G03X7279000Y2540000I-40000J0D01*
G01*
X1191000Y6604000D02*
G75*
G03X1191000Y6604000I-40000J0D01*
G01*
X1691000Y6604000D02*
G75*
G03X1691000Y6604000I-40000J0D01*
G01*
X1183000Y4089400D02*
G75*
G03X1183000Y4089400I-40000J0D01*
G01*
X2457000Y2349500D02*
G75*
G03X2457000Y2349500I-40000J0D01*
G01*
X2707000Y2349500D02*
G75*
G03X2707000Y2349500I-40000J0D01*
G01*
X8807000Y7239000D02*
G75*
G03X8807000Y7239000I-40000J0D01*
G01*
X8041000Y2159000D02*
G75*
G03X8041000Y2159000I-40000J0D01*
G01*
X9057000Y2159000D02*
G75*
G03X9057000Y2159000I-40000J0D01*
G01*
X9057000Y7239000D02*
G75*
G03X9057000Y7239000I-40000J0D01*
G01*
X1373500Y3810000D02*
G75*
G03X1373500Y3810000I-40000J0D01*
G01*
X6775000Y7239000D02*
G75*
G03X6775000Y7239000I-40000J0D01*
G01*
X7025000Y7239000D02*
G75*
G03X7025000Y7239000I-40000J0D01*
G01*
X5882000Y2667000D02*
G75*
G03X5882000Y2667000I-40000J0D01*
G01*
X5882000Y2413000D02*
G75*
G03X5882000Y2413000I-40000J0D01*
G01*
X5882000Y2159000D02*
G75*
G03X5882000Y2159000I-40000J0D01*
G01*
X1373500Y2794000D02*
G75*
G03X1373500Y2794000I-40000J0D01*
G01*
X3556000Y5882640D02*
X3556000Y5801360D01*
X3515360Y5842000D02*
X3596640Y5842000D01*
X3556000Y5628640D02*
X3556000Y5547360D01*
X3515360Y5588000D02*
X3596640Y5588000D01*
X3556000Y5374640D02*
X3556000Y5293360D01*
X3515360Y5334000D02*
X3596640Y5334000D01*
X3556000Y5120640D02*
X3556000Y5039360D01*
X3515360Y5080000D02*
X3596640Y5080000D01*
X3556000Y4866640D02*
X3556000Y4785360D01*
X3515360Y4826000D02*
X3596640Y4826000D01*
X3556000Y4612640D02*
X3556000Y4531360D01*
X3515360Y4572000D02*
X3596640Y4572000D01*
X3556000Y4358640D02*
X3556000Y4277360D01*
X3515360Y4318000D02*
X3596640Y4318000D01*
X3556000Y4104640D02*
X3556000Y4023360D01*
X3515360Y4064000D02*
X3596640Y4064000D01*
X3556000Y3850640D02*
X3556000Y3769360D01*
X3515360Y3810000D02*
X3596640Y3810000D01*
X3556000Y3596640D02*
X3556000Y3515360D01*
X3515360Y3556000D02*
X3596640Y3556000D01*
X3556000Y3342640D02*
X3556000Y3261360D01*
X3515360Y3302000D02*
X3596640Y3302000D01*
X3556000Y3088640D02*
X3556000Y3007360D01*
X3515360Y3048000D02*
X3596640Y3048000D01*
X3556000Y2834640D02*
X3556000Y2753360D01*
X3515360Y2794000D02*
X3596640Y2794000D01*
X3556000Y2580640D02*
X3556000Y2499360D01*
X3515360Y2540000D02*
X3596640Y2540000D01*
X3556000Y2326640D02*
X3556000Y2245360D01*
X3515360Y2286000D02*
X3596640Y2286000D01*
X3556000Y2072640D02*
X3556000Y1991360D01*
X3515360Y2032000D02*
X3596640Y2032000D01*
X3556000Y1818640D02*
X3556000Y1737360D01*
X3515360Y1778000D02*
X3596640Y1778000D01*
X3556000Y1564640D02*
X3556000Y1483360D01*
X3515360Y1524000D02*
X3596640Y1524000D01*
X3556000Y1310640D02*
X3556000Y1229360D01*
X3515360Y1270000D02*
X3596640Y1270000D01*
X3556000Y1056640D02*
X3556000Y975360D01*
X3515360Y1016000D02*
X3596640Y1016000D01*
X5080000Y5882640D02*
X5080000Y5801360D01*
X5039360Y5842000D02*
X5120640Y5842000D01*
X5080000Y5628640D02*
X5080000Y5547360D01*
X5039360Y5588000D02*
X5120640Y5588000D01*
X5080000Y5374640D02*
X5080000Y5293360D01*
X5039360Y5334000D02*
X5120640Y5334000D01*
X5080000Y5120640D02*
X5080000Y5039360D01*
X5039360Y5080000D02*
X5120640Y5080000D01*
X5080000Y4866640D02*
X5080000Y4785360D01*
X5039360Y4826000D02*
X5120640Y4826000D01*
X5080000Y4612640D02*
X5080000Y4531360D01*
X5039360Y4572000D02*
X5120640Y4572000D01*
X5080000Y4358640D02*
X5080000Y4277360D01*
X5039360Y4318000D02*
X5120640Y4318000D01*
X5080000Y4104640D02*
X5080000Y4023360D01*
X5039360Y4064000D02*
X5120640Y4064000D01*
X5080000Y3850640D02*
X5080000Y3769360D01*
X5039360Y3810000D02*
X5120640Y3810000D01*
X5080000Y3596640D02*
X5080000Y3515360D01*
X5039360Y3556000D02*
X5120640Y3556000D01*
X5080000Y3342640D02*
X5080000Y3261360D01*
X5039360Y3302000D02*
X5120640Y3302000D01*
X5080000Y3088640D02*
X5080000Y3007360D01*
X5039360Y3048000D02*
X5120640Y3048000D01*
X5080000Y2834640D02*
X5080000Y2753360D01*
X5039360Y2794000D02*
X5120640Y2794000D01*
X5080000Y2580640D02*
X5080000Y2499360D01*
X5039360Y2540000D02*
X5120640Y2540000D01*
X5080000Y2326640D02*
X5080000Y2245360D01*
X5039360Y2286000D02*
X5120640Y2286000D01*
X5080000Y2072640D02*
X5080000Y1991360D01*
X5039360Y2032000D02*
X5120640Y2032000D01*
X5080000Y1818640D02*
X5080000Y1737360D01*
X5039360Y1778000D02*
X5120640Y1778000D01*
X5080000Y1564640D02*
X5080000Y1483360D01*
X5039360Y1524000D02*
X5120640Y1524000D01*
X5080000Y1310640D02*
X5080000Y1229360D01*
X5039360Y1270000D02*
X5120640Y1270000D01*
X5080000Y1056640D02*
X5080000Y975360D01*
X5039360Y1016000D02*
X5120640Y1016000D01*
X2190820Y4921180D02*
X2190820Y4984820D01*
X2127180Y4984820D01*
X2127180Y4921180D01*
X2190820Y4921180D01*
X2444820Y4921180D02*
X2444820Y4984820D01*
X2381180Y4984820D01*
X2381180Y4921180D01*
X2444820Y4921180D01*
X508000Y3760000D02*
X558000Y3810000D01*
X508000Y3860000D01*
X458000Y3810000D01*
X508000Y3760000D01*
X508000Y3506000D02*
X558000Y3556000D01*
X508000Y3606000D01*
X458000Y3556000D01*
X508000Y3506000D01*
X508000Y3252000D02*
X558000Y3302000D01*
X508000Y3352000D01*
X458000Y3302000D01*
X508000Y3252000D01*
X812000Y5919000D02*
X862000Y5969000D01*
X812000Y6019000D01*
X762000Y5969000D01*
X812000Y5919000D01*
X772000Y6069000D02*
X772000Y5869000D01*
X852000Y6069000D02*
X852000Y5869000D01*
X772000Y5869000D02*
G75*
G03X852000Y5869000I40000J0D01*
G01*
X852000Y6069000D02*
G75*
G03X772000Y6069000I-40000J0D01*
G01*
X1112000Y5439000D02*
X1162000Y5489000D01*
X1112000Y5539000D01*
X1062000Y5489000D01*
X1112000Y5439000D01*
X1212000Y5529000D02*
X1012000Y5529000D01*
X1212000Y5449000D02*
X1012000Y5449000D01*
X1012000Y5529000D02*
G75*
G03X1012000Y5449000I0J-40000D01*
G01*
X1212000Y5449000D02*
G75*
G03X1212000Y5529000I0J40000D01*
G01*
X1412000Y5919000D02*
X1462000Y5969000D01*
X1412000Y6019000D01*
X1362000Y5969000D01*
X1412000Y5919000D01*
X1372000Y6094000D02*
X1372000Y5844000D01*
X1452000Y6094000D02*
X1452000Y5844000D01*
X1372000Y5844000D02*
G75*
G03X1452000Y5844000I40000J0D01*
G01*
X1452000Y6094000D02*
G75*
G03X1372000Y6094000I-40000J0D01*
G01*
X508000Y2998000D02*
X558000Y3048000D01*
X508000Y3098000D01*
X458000Y3048000D01*
X508000Y2998000D01*
X508000Y2744000D02*
X558000Y2794000D01*
X508000Y2844000D01*
X458000Y2794000D01*
X508000Y2744000D01*
X508000Y2490000D02*
X558000Y2540000D01*
X508000Y2590000D01*
X458000Y2540000D01*
X508000Y2490000D01*
X2489200Y7162800D02*
X2590800Y7061200D01*
X2590800Y7162800D02*
X2489200Y7061200D01*
X2590800Y7112000D02*
G75*
G03X2590800Y7112000I-50800J0D01*
G01*
X1219200Y7162800D02*
X1320800Y7061200D01*
X1320800Y7162800D02*
X1219200Y7061200D01*
X1320800Y7112000D02*
G75*
G03X1320800Y7112000I-50800J0D01*
G01*
X6036310Y694690D02*
X6155690Y575310D01*
X6155690Y694690D02*
X6036310Y575310D01*
X6096000Y694690D02*
X6096000Y575310D01*
X6036310Y635000D02*
X6155690Y635000D01*
X6290310Y1202690D02*
X6409690Y1083310D01*
X6409690Y1202690D02*
X6290310Y1083310D01*
X6350000Y1202690D02*
X6350000Y1083310D01*
X6290310Y1143000D02*
X6409690Y1143000D01*
X6544310Y694690D02*
X6663690Y575310D01*
X6663690Y694690D02*
X6544310Y575310D01*
X6604000Y694690D02*
X6604000Y575310D01*
X6544310Y635000D02*
X6663690Y635000D01*
X6798310Y1202690D02*
X6917690Y1083310D01*
X6917690Y1202690D02*
X6798310Y1083310D01*
X6858000Y1202690D02*
X6858000Y1083310D01*
X6798310Y1143000D02*
X6917690Y1143000D01*
X7052310Y694690D02*
X7171690Y575310D01*
X7171690Y694690D02*
X7052310Y575310D01*
X7112000Y694690D02*
X7112000Y575310D01*
X7052310Y635000D02*
X7171690Y635000D01*
X7814310Y694690D02*
X7933690Y575310D01*
X7933690Y694690D02*
X7814310Y575310D01*
X7874000Y694690D02*
X7874000Y575310D01*
X7814310Y635000D02*
X7933690Y635000D01*
X8068310Y1202690D02*
X8187690Y1083310D01*
X8187690Y1202690D02*
X8068310Y1083310D01*
X8128000Y1202690D02*
X8128000Y1083310D01*
X8068310Y1143000D02*
X8187690Y1143000D01*
X8322310Y694690D02*
X8441690Y575310D01*
X8441690Y694690D02*
X8322310Y575310D01*
X8382000Y694690D02*
X8382000Y575310D01*
X8322310Y635000D02*
X8441690Y635000D01*
X8576310Y1202690D02*
X8695690Y1083310D01*
X8695690Y1202690D02*
X8576310Y1083310D01*
X8636000Y1202690D02*
X8636000Y1083310D01*
X8576310Y1143000D02*
X8695690Y1143000D01*
X8830310Y694690D02*
X8949690Y575310D01*
X8949690Y694690D02*
X8830310Y575310D01*
X8890000Y694690D02*
X8890000Y575310D01*
X8830310Y635000D02*
X8949690Y635000D01*
X453390Y5045710D02*
X638810Y4860290D01*
X638810Y5045710D02*
X453390Y4860290D01*
X611657Y4887444D02*
X611657Y5018557D01*
X480543Y5018557D01*
X480543Y4887444D01*
X611657Y4887444D01*
X923290Y5045710D02*
X1108710Y4860290D01*
X1108710Y5045710D02*
X923290Y4860290D01*
X1081557Y4887444D02*
X1081557Y5018557D01*
X950443Y5018557D01*
X950443Y4887444D01*
X1081557Y4887444D01*
X1393190Y5045710D02*
X1578610Y4860290D01*
X1578610Y5045710D02*
X1393190Y4860290D01*
X1551456Y4887444D02*
X1551456Y5018557D01*
X1420343Y5018557D01*
X1420343Y4887444D01*
X1551456Y4887444D01*
X349250Y7270750D02*
X666750Y6953250D01*
X666750Y7270750D02*
X349250Y6953250D01*
X508000Y6953250D02*
X666750Y7112000D01*
X508000Y7270750D01*
X349250Y7112000D01*
X508000Y6953250D01*
X9493250Y666750D02*
X9810750Y349250D01*
X9810750Y666750D02*
X9493250Y349250D01*
X9652000Y349250D02*
X9810750Y508000D01*
X9652000Y666750D01*
X9493250Y508000D01*
X9652000Y349250D01*
X349250Y666750D02*
X666750Y349250D01*
X666750Y666750D02*
X349250Y349250D01*
X508000Y349250D02*
X666750Y508000D01*
X508000Y666750D01*
X349250Y508000D01*
X508000Y349250D01*
X9493250Y7270750D02*
X9810750Y6953250D01*
X9810750Y7270750D02*
X9493250Y6953250D01*
X9652000Y6953250D02*
X9810750Y7112000D01*
X9652000Y7270750D01*
X9493250Y7112000D01*
X9652000Y6953250D01*
X4318000Y6775450D02*
X4318000Y6610350D01*
X4235450Y6692900D02*
X4400550Y6692900D01*
X4400550Y6692900D02*
G75*
G03X4400550Y6692900I-82550J0D01*
G01*
X4318000Y641350D02*
X4318000Y476250D01*
X4235450Y558800D02*
X4400550Y558800D01*
X4400550Y558800D02*
G75*
G03X4400550Y558800I-82550J0D01*
G01*
X455640Y5905360D02*
X455640Y6032640D01*
X328360Y6032640D01*
X328360Y5905360D01*
X455640Y5905360D01*
X482000Y5969000D02*
G75*
G03X482000Y5969000I-90000J0D01*
G01*
D12*
X278928Y-473214D02*
X278928Y-173214D01*
X350357Y-173214D01*
X393214Y-187500D01*
X421786Y-216071D01*
X436071Y-244643D01*
X450357Y-301786D01*
X450357Y-344643D01*
X436071Y-401786D01*
X421786Y-430357D01*
X393214Y-458929D01*
X350357Y-473214D01*
X278928Y-473214D01*
X578928Y-473214D02*
X578928Y-273214D01*
X578928Y-330357D02*
X593214Y-301786D01*
X607500Y-287500D01*
X636071Y-273214D01*
X664643Y-273214D01*
X764643Y-473214D02*
X764643Y-273214D01*
X764643Y-173214D02*
X750357Y-187500D01*
X764643Y-201786D01*
X778928Y-187500D01*
X764643Y-173214D01*
X764643Y-201786D01*
X950357Y-473214D02*
X921786Y-458929D01*
X907500Y-430357D01*
X907500Y-173214D01*
X1107500Y-473214D02*
X1078928Y-458929D01*
X1064643Y-430357D01*
X1064643Y-173214D01*
X1450357Y-473214D02*
X1450357Y-173214D01*
X1550357Y-387500D01*
X1650357Y-173214D01*
X1650357Y-473214D01*
X1921786Y-473214D02*
X1921786Y-316072D01*
X1907500Y-287500D01*
X1878928Y-273214D01*
X1821786Y-273214D01*
X1793214Y-287500D01*
X1921786Y-458929D02*
X1893214Y-473214D01*
X1821786Y-473214D01*
X1793214Y-458929D01*
X1778928Y-430357D01*
X1778928Y-401786D01*
X1793214Y-373214D01*
X1821786Y-358929D01*
X1893214Y-358929D01*
X1921786Y-344643D01*
X2064643Y-273214D02*
X2064643Y-573214D01*
X2064643Y-287500D02*
X2093214Y-273214D01*
X2150357Y-273214D01*
X2178928Y-287500D01*
X2193214Y-301786D01*
X2207500Y-330357D01*
X2207500Y-416071D01*
X2193214Y-444643D01*
X2178928Y-458929D01*
X2150357Y-473214D01*
X2093214Y-473214D01*
X2064643Y-458929D01*
X2336071Y-444643D02*
X2350357Y-458929D01*
X2336071Y-473214D01*
X2321786Y-458929D01*
X2336071Y-444643D01*
X2336071Y-473214D01*
X2336071Y-287500D02*
X2350357Y-301786D01*
X2336071Y-316072D01*
X2321786Y-301786D01*
X2336071Y-287500D01*
X2336071Y-316072D01*
X-32900Y-954800D02*
X-7500Y-980200D01*
X-7500Y-954800D02*
X-32900Y-980200D01*
X336071Y-803214D02*
X364643Y-803214D01*
X393214Y-817500D01*
X407500Y-831786D01*
X421786Y-860357D01*
X436071Y-917500D01*
X436071Y-988929D01*
X421786Y-1046071D01*
X407500Y-1074643D01*
X393214Y-1088929D01*
X364643Y-1103214D01*
X336071Y-1103214D01*
X307500Y-1088929D01*
X293214Y-1074643D01*
X278928Y-1046071D01*
X264643Y-988929D01*
X264643Y-917500D01*
X278928Y-860357D01*
X293214Y-831786D01*
X307500Y-817500D01*
X336071Y-803214D01*
X564643Y-1074643D02*
X578928Y-1088929D01*
X564643Y-1103214D01*
X550357Y-1088929D01*
X564643Y-1074643D01*
X564643Y-1103214D01*
X693214Y-831786D02*
X707500Y-817500D01*
X736071Y-803214D01*
X807500Y-803214D01*
X836071Y-817500D01*
X850357Y-831786D01*
X864643Y-860357D01*
X864643Y-888929D01*
X850357Y-931786D01*
X678928Y-1103214D01*
X864643Y-1103214D01*
X1136071Y-803214D02*
X993214Y-803214D01*
X978928Y-946071D01*
X993214Y-931786D01*
X1021786Y-917500D01*
X1093214Y-917500D01*
X1121786Y-931786D01*
X1136071Y-946071D01*
X1150357Y-974643D01*
X1150357Y-1046071D01*
X1136071Y-1074643D01*
X1121786Y-1088929D01*
X1093214Y-1103214D01*
X1021786Y-1103214D01*
X993214Y-1088929D01*
X978928Y-1074643D01*
X1278928Y-1103214D02*
X1278928Y-903214D01*
X1278928Y-931786D02*
X1293214Y-917500D01*
X1321786Y-903214D01*
X1364643Y-903214D01*
X1393214Y-917500D01*
X1407500Y-946071D01*
X1407500Y-1103214D01*
X1407500Y-946071D02*
X1421786Y-917500D01*
X1450357Y-903214D01*
X1493214Y-903214D01*
X1521786Y-917500D01*
X1536071Y-946071D01*
X1536071Y-1103214D01*
X1678928Y-1103214D02*
X1678928Y-903214D01*
X1678928Y-931786D02*
X1693214Y-917500D01*
X1721786Y-903214D01*
X1764643Y-903214D01*
X1793214Y-917500D01*
X1807500Y-946071D01*
X1807500Y-1103214D01*
X1807500Y-946071D02*
X1821786Y-917500D01*
X1850357Y-903214D01*
X1893214Y-903214D01*
X1921786Y-917500D01*
X1936071Y-946071D01*
X1936071Y-1103214D01*
X2521786Y-788929D02*
X2264643Y-1174643D01*
X2907500Y-803214D02*
X2936071Y-803214D01*
X2964643Y-817500D01*
X2978928Y-831786D01*
X2993214Y-860357D01*
X3007500Y-917500D01*
X3007500Y-988929D01*
X2993214Y-1046071D01*
X2978928Y-1074643D01*
X2964643Y-1088929D01*
X2936071Y-1103214D01*
X2907500Y-1103214D01*
X2878928Y-1088929D01*
X2864643Y-1074643D01*
X2850357Y-1046071D01*
X2836071Y-988929D01*
X2836071Y-917500D01*
X2850357Y-860357D01*
X2864643Y-831786D01*
X2878928Y-817500D01*
X2907500Y-803214D01*
X3136071Y-1074643D02*
X3150357Y-1088929D01*
X3136071Y-1103214D01*
X3121786Y-1088929D01*
X3136071Y-1074643D01*
X3136071Y-1103214D01*
X3336071Y-803214D02*
X3364643Y-803214D01*
X3393214Y-817500D01*
X3407500Y-831786D01*
X3421786Y-860357D01*
X3436071Y-917500D01*
X3436071Y-988929D01*
X3421786Y-1046071D01*
X3407500Y-1074643D01*
X3393214Y-1088929D01*
X3364643Y-1103214D01*
X3336071Y-1103214D01*
X3307500Y-1088929D01*
X3293214Y-1074643D01*
X3278928Y-1046071D01*
X3264643Y-988929D01*
X3264643Y-917500D01*
X3278928Y-860357D01*
X3293214Y-831786D01*
X3307500Y-817500D01*
X3336071Y-803214D01*
X3721786Y-1103214D02*
X3550357Y-1103214D01*
X3636071Y-1103214D02*
X3636071Y-803214D01*
X3607500Y-846071D01*
X3578928Y-874643D01*
X3550357Y-888929D01*
X3907500Y-803214D02*
X3936071Y-803214D01*
X3964643Y-817500D01*
X3978928Y-831786D01*
X3993214Y-860357D01*
X4007500Y-917500D01*
X4007500Y-988929D01*
X3993214Y-1046071D01*
X3978928Y-1074643D01*
X3964643Y-1088929D01*
X3936071Y-1103214D01*
X3907500Y-1103214D01*
X3878928Y-1088929D01*
X3864643Y-1074643D01*
X3850357Y-1046071D01*
X3836071Y-988929D01*
X3836071Y-917500D01*
X3850357Y-860357D01*
X3864643Y-831786D01*
X3878928Y-817500D01*
X3907500Y-803214D01*
X4121786Y-803214D02*
X4121786Y-860357D01*
X4236071Y-803214D02*
X4236071Y-860357D01*
X4678928Y-1217500D02*
X4664643Y-1203214D01*
X4636071Y-1160357D01*
X4621786Y-1131786D01*
X4607500Y-1088929D01*
X4593214Y-1017500D01*
X4593214Y-960357D01*
X4607500Y-888929D01*
X4621786Y-846071D01*
X4636071Y-817500D01*
X4664643Y-774643D01*
X4678928Y-760357D01*
X4764643Y-803214D02*
X4950357Y-803214D01*
X4850357Y-917500D01*
X4893214Y-917500D01*
X4921786Y-931786D01*
X4936071Y-946071D01*
X4950357Y-974643D01*
X4950357Y-1046071D01*
X4936071Y-1074643D01*
X4921786Y-1088929D01*
X4893214Y-1103214D01*
X4807500Y-1103214D01*
X4778928Y-1088929D01*
X4764643Y-1074643D01*
X5207500Y-903214D02*
X5207500Y-1103214D01*
X5136071Y-788929D02*
X5064643Y-1003214D01*
X5250357Y-1003214D01*
X5593214Y-1103214D02*
X5593214Y-803214D01*
X5721786Y-1103214D02*
X5721786Y-946071D01*
X5707500Y-917500D01*
X5678928Y-903214D01*
X5636071Y-903214D01*
X5607500Y-917500D01*
X5593214Y-931786D01*
X5907500Y-1103214D02*
X5878928Y-1088929D01*
X5864643Y-1074643D01*
X5850357Y-1046071D01*
X5850357Y-960357D01*
X5864643Y-931786D01*
X5878928Y-917500D01*
X5907500Y-903214D01*
X5950357Y-903214D01*
X5978928Y-917500D01*
X5993214Y-931786D01*
X6007500Y-960357D01*
X6007500Y-1046071D01*
X5993214Y-1074643D01*
X5978928Y-1088929D01*
X5950357Y-1103214D01*
X5907500Y-1103214D01*
X6178928Y-1103214D02*
X6150357Y-1088929D01*
X6136071Y-1060357D01*
X6136071Y-803214D01*
X6407500Y-1088929D02*
X6378928Y-1103214D01*
X6321786Y-1103214D01*
X6293214Y-1088929D01*
X6278928Y-1060357D01*
X6278928Y-946071D01*
X6293214Y-917500D01*
X6321786Y-903214D01*
X6378928Y-903214D01*
X6407500Y-917500D01*
X6421786Y-946071D01*
X6421786Y-974643D01*
X6278928Y-1003214D01*
X6536071Y-1088929D02*
X6564643Y-1103214D01*
X6621786Y-1103214D01*
X6650357Y-1088929D01*
X6664643Y-1060357D01*
X6664643Y-1046071D01*
X6650357Y-1017500D01*
X6621786Y-1003214D01*
X6578928Y-1003214D01*
X6550357Y-988929D01*
X6536071Y-960357D01*
X6536071Y-946071D01*
X6550357Y-917500D01*
X6578928Y-903214D01*
X6621786Y-903214D01*
X6650357Y-917500D01*
X6764643Y-1217500D02*
X6778928Y-1203214D01*
X6807500Y-1160357D01*
X6821786Y-1131786D01*
X6836071Y-1088929D01*
X6850357Y-1017500D01*
X6850357Y-960357D01*
X6836071Y-888929D01*
X6821786Y-846071D01*
X6807500Y-817500D01*
X6778928Y-774643D01*
X6764643Y-760357D01*
X-7500Y-1363500D02*
G75*
G03X-7500Y-1363500I-40000J0D01*
G01*
X336071Y-1199214D02*
X364643Y-1199214D01*
X393214Y-1213500D01*
X407500Y-1227786D01*
X421786Y-1256357D01*
X436071Y-1313500D01*
X436071Y-1384929D01*
X421786Y-1442071D01*
X407500Y-1470643D01*
X393214Y-1484929D01*
X364643Y-1499214D01*
X336071Y-1499214D01*
X307500Y-1484929D01*
X293214Y-1470643D01*
X278928Y-1442071D01*
X264643Y-1384929D01*
X264643Y-1313500D01*
X278928Y-1256357D01*
X293214Y-1227786D01*
X307500Y-1213500D01*
X336071Y-1199214D01*
X564643Y-1470643D02*
X578928Y-1484929D01*
X564643Y-1499214D01*
X550357Y-1484929D01*
X564643Y-1470643D01*
X564643Y-1499214D01*
X750357Y-1327786D02*
X721786Y-1313500D01*
X707500Y-1299214D01*
X693214Y-1270643D01*
X693214Y-1256357D01*
X707500Y-1227786D01*
X721786Y-1213500D01*
X750357Y-1199214D01*
X807500Y-1199214D01*
X836071Y-1213500D01*
X850357Y-1227786D01*
X864643Y-1256357D01*
X864643Y-1270643D01*
X850357Y-1299214D01*
X836071Y-1313500D01*
X807500Y-1327786D01*
X750357Y-1327786D01*
X721786Y-1342072D01*
X707500Y-1356357D01*
X693214Y-1384929D01*
X693214Y-1442071D01*
X707500Y-1470643D01*
X721786Y-1484929D01*
X750357Y-1499214D01*
X807500Y-1499214D01*
X836071Y-1484929D01*
X850357Y-1470643D01*
X864643Y-1442071D01*
X864643Y-1384929D01*
X850357Y-1356357D01*
X836071Y-1342072D01*
X807500Y-1327786D01*
X1050357Y-1199214D02*
X1078928Y-1199214D01*
X1107500Y-1213500D01*
X1121786Y-1227786D01*
X1136071Y-1256357D01*
X1150357Y-1313500D01*
X1150357Y-1384929D01*
X1136071Y-1442071D01*
X1121786Y-1470643D01*
X1107500Y-1484929D01*
X1078928Y-1499214D01*
X1050357Y-1499214D01*
X1021786Y-1484929D01*
X1007500Y-1470643D01*
X993214Y-1442071D01*
X978928Y-1384929D01*
X978928Y-1313500D01*
X993214Y-1256357D01*
X1007500Y-1227786D01*
X1021786Y-1213500D01*
X1050357Y-1199214D01*
X1278928Y-1499214D02*
X1278928Y-1299214D01*
X1278928Y-1327786D02*
X1293214Y-1313500D01*
X1321786Y-1299214D01*
X1364643Y-1299214D01*
X1393214Y-1313500D01*
X1407500Y-1342072D01*
X1407500Y-1499214D01*
X1407500Y-1342072D02*
X1421786Y-1313500D01*
X1450357Y-1299214D01*
X1493214Y-1299214D01*
X1521786Y-1313500D01*
X1536071Y-1342072D01*
X1536071Y-1499214D01*
X1678928Y-1499214D02*
X1678928Y-1299214D01*
X1678928Y-1327786D02*
X1693214Y-1313500D01*
X1721786Y-1299214D01*
X1764643Y-1299214D01*
X1793214Y-1313500D01*
X1807500Y-1342072D01*
X1807500Y-1499214D01*
X1807500Y-1342072D02*
X1821786Y-1313500D01*
X1850357Y-1299214D01*
X1893214Y-1299214D01*
X1921786Y-1313500D01*
X1936071Y-1342072D01*
X1936071Y-1499214D01*
X2521786Y-1184929D02*
X2264643Y-1570643D01*
X2907500Y-1199214D02*
X2936071Y-1199214D01*
X2964643Y-1213500D01*
X2978928Y-1227786D01*
X2993214Y-1256357D01*
X3007500Y-1313500D01*
X3007500Y-1384929D01*
X2993214Y-1442071D01*
X2978928Y-1470643D01*
X2964643Y-1484929D01*
X2936071Y-1499214D01*
X2907500Y-1499214D01*
X2878928Y-1484929D01*
X2864643Y-1470643D01*
X2850357Y-1442071D01*
X2836071Y-1384929D01*
X2836071Y-1313500D01*
X2850357Y-1256357D01*
X2864643Y-1227786D01*
X2878928Y-1213500D01*
X2907500Y-1199214D01*
X3136071Y-1470643D02*
X3150357Y-1484929D01*
X3136071Y-1499214D01*
X3121786Y-1484929D01*
X3136071Y-1470643D01*
X3136071Y-1499214D01*
X3336071Y-1199214D02*
X3364643Y-1199214D01*
X3393214Y-1213500D01*
X3407500Y-1227786D01*
X3421786Y-1256357D01*
X3436071Y-1313500D01*
X3436071Y-1384929D01*
X3421786Y-1442071D01*
X3407500Y-1470643D01*
X3393214Y-1484929D01*
X3364643Y-1499214D01*
X3336071Y-1499214D01*
X3307500Y-1484929D01*
X3293214Y-1470643D01*
X3278928Y-1442071D01*
X3264643Y-1384929D01*
X3264643Y-1313500D01*
X3278928Y-1256357D01*
X3293214Y-1227786D01*
X3307500Y-1213500D01*
X3336071Y-1199214D01*
X3536071Y-1199214D02*
X3721786Y-1199214D01*
X3621786Y-1313500D01*
X3664643Y-1313500D01*
X3693214Y-1327786D01*
X3707500Y-1342072D01*
X3721786Y-1370643D01*
X3721786Y-1442071D01*
X3707500Y-1470643D01*
X3693214Y-1484929D01*
X3664643Y-1499214D01*
X3578928Y-1499214D01*
X3550357Y-1484929D01*
X3536071Y-1470643D01*
X4007500Y-1499214D02*
X3836071Y-1499214D01*
X3921786Y-1499214D02*
X3921786Y-1199214D01*
X3893214Y-1242072D01*
X3864643Y-1270643D01*
X3836071Y-1284929D01*
X4121786Y-1199214D02*
X4121786Y-1256357D01*
X4236071Y-1199214D02*
X4236071Y-1256357D01*
X4678928Y-1613500D02*
X4664643Y-1599214D01*
X4636071Y-1556357D01*
X4621786Y-1527786D01*
X4607500Y-1484929D01*
X4593214Y-1413500D01*
X4593214Y-1356357D01*
X4607500Y-1284929D01*
X4621786Y-1242072D01*
X4636071Y-1213500D01*
X4664643Y-1170643D01*
X4678928Y-1156357D01*
X4950357Y-1499214D02*
X4778928Y-1499214D01*
X4864643Y-1499214D02*
X4864643Y-1199214D01*
X4836071Y-1242072D01*
X4807500Y-1270643D01*
X4778928Y-1284929D01*
X5136071Y-1199214D02*
X5164643Y-1199214D01*
X5193214Y-1213500D01*
X5207500Y-1227786D01*
X5221786Y-1256357D01*
X5236071Y-1313500D01*
X5236071Y-1384929D01*
X5221786Y-1442071D01*
X5207500Y-1470643D01*
X5193214Y-1484929D01*
X5164643Y-1499214D01*
X5136071Y-1499214D01*
X5107500Y-1484929D01*
X5093214Y-1470643D01*
X5078928Y-1442071D01*
X5064643Y-1384929D01*
X5064643Y-1313500D01*
X5078928Y-1256357D01*
X5093214Y-1227786D01*
X5107500Y-1213500D01*
X5136071Y-1199214D01*
X5493214Y-1199214D02*
X5436071Y-1199214D01*
X5407500Y-1213500D01*
X5393214Y-1227786D01*
X5364643Y-1270643D01*
X5350357Y-1327786D01*
X5350357Y-1442071D01*
X5364643Y-1470643D01*
X5378928Y-1484929D01*
X5407500Y-1499214D01*
X5464643Y-1499214D01*
X5493214Y-1484929D01*
X5507500Y-1470643D01*
X5521786Y-1442071D01*
X5521786Y-1370643D01*
X5507500Y-1342072D01*
X5493214Y-1327786D01*
X5464643Y-1313500D01*
X5407500Y-1313500D01*
X5378928Y-1327786D01*
X5364643Y-1342072D01*
X5350357Y-1370643D01*
X5878928Y-1499214D02*
X5878928Y-1199214D01*
X6007500Y-1499214D02*
X6007500Y-1342072D01*
X5993214Y-1313500D01*
X5964643Y-1299214D01*
X5921786Y-1299214D01*
X5893214Y-1313500D01*
X5878928Y-1327786D01*
X6193214Y-1499214D02*
X6164643Y-1484929D01*
X6150357Y-1470643D01*
X6136071Y-1442071D01*
X6136071Y-1356357D01*
X6150357Y-1327786D01*
X6164643Y-1313500D01*
X6193214Y-1299214D01*
X6236071Y-1299214D01*
X6264643Y-1313500D01*
X6278928Y-1327786D01*
X6293214Y-1356357D01*
X6293214Y-1442071D01*
X6278928Y-1470643D01*
X6264643Y-1484929D01*
X6236071Y-1499214D01*
X6193214Y-1499214D01*
X6464643Y-1499214D02*
X6436071Y-1484929D01*
X6421786Y-1456357D01*
X6421786Y-1199214D01*
X6693214Y-1484929D02*
X6664643Y-1499214D01*
X6607500Y-1499214D01*
X6578928Y-1484929D01*
X6564643Y-1456357D01*
X6564643Y-1342072D01*
X6578928Y-1313500D01*
X6607500Y-1299214D01*
X6664643Y-1299214D01*
X6693214Y-1313500D01*
X6707500Y-1342072D01*
X6707500Y-1370643D01*
X6564643Y-1399214D01*
X6821786Y-1484929D02*
X6850357Y-1499214D01*
X6907500Y-1499214D01*
X6936071Y-1484929D01*
X6950357Y-1456357D01*
X6950357Y-1442071D01*
X6936071Y-1413500D01*
X6907500Y-1399214D01*
X6864643Y-1399214D01*
X6836071Y-1384929D01*
X6821786Y-1356357D01*
X6821786Y-1342072D01*
X6836071Y-1313500D01*
X6864643Y-1299214D01*
X6907500Y-1299214D01*
X6936071Y-1313500D01*
X7050357Y-1613500D02*
X7064643Y-1599214D01*
X7093214Y-1556357D01*
X7107500Y-1527786D01*
X7121786Y-1484929D01*
X7136071Y-1413500D01*
X7136071Y-1356357D01*
X7121786Y-1284929D01*
X7107500Y-1242072D01*
X7093214Y-1213500D01*
X7064643Y-1170643D01*
X7050357Y-1156357D01*
X-48140Y-1718860D02*
X-48140Y-1800140D01*
X-88780Y-1759500D02*
X-7500Y-1759500D01*
X336071Y-1595214D02*
X364643Y-1595214D01*
X393214Y-1609500D01*
X407500Y-1623786D01*
X421786Y-1652357D01*
X436071Y-1709500D01*
X436071Y-1780929D01*
X421786Y-1838071D01*
X407500Y-1866643D01*
X393214Y-1880929D01*
X364643Y-1895214D01*
X336071Y-1895214D01*
X307500Y-1880929D01*
X293214Y-1866643D01*
X278928Y-1838071D01*
X264643Y-1780929D01*
X264643Y-1709500D01*
X278928Y-1652357D01*
X293214Y-1623786D01*
X307500Y-1609500D01*
X336071Y-1595214D01*
X564643Y-1866643D02*
X578928Y-1880929D01*
X564643Y-1895214D01*
X550357Y-1880929D01*
X564643Y-1866643D01*
X564643Y-1895214D01*
X750357Y-1723786D02*
X721786Y-1709500D01*
X707500Y-1695214D01*
X693214Y-1666643D01*
X693214Y-1652357D01*
X707500Y-1623786D01*
X721786Y-1609500D01*
X750357Y-1595214D01*
X807500Y-1595214D01*
X836071Y-1609500D01*
X850357Y-1623786D01*
X864643Y-1652357D01*
X864643Y-1666643D01*
X850357Y-1695214D01*
X836071Y-1709500D01*
X807500Y-1723786D01*
X750357Y-1723786D01*
X721786Y-1738071D01*
X707500Y-1752357D01*
X693214Y-1780929D01*
X693214Y-1838071D01*
X707500Y-1866643D01*
X721786Y-1880929D01*
X750357Y-1895214D01*
X807500Y-1895214D01*
X836071Y-1880929D01*
X850357Y-1866643D01*
X864643Y-1838071D01*
X864643Y-1780929D01*
X850357Y-1752357D01*
X836071Y-1738071D01*
X807500Y-1723786D01*
X1150357Y-1895214D02*
X978928Y-1895214D01*
X1064643Y-1895214D02*
X1064643Y-1595214D01*
X1036071Y-1638071D01*
X1007500Y-1666643D01*
X978928Y-1680929D01*
X1278928Y-1895214D02*
X1278928Y-1695214D01*
X1278928Y-1723786D02*
X1293214Y-1709500D01*
X1321786Y-1695214D01*
X1364643Y-1695214D01*
X1393214Y-1709500D01*
X1407500Y-1738071D01*
X1407500Y-1895214D01*
X1407500Y-1738071D02*
X1421786Y-1709500D01*
X1450357Y-1695214D01*
X1493214Y-1695214D01*
X1521786Y-1709500D01*
X1536071Y-1738071D01*
X1536071Y-1895214D01*
X1678928Y-1895214D02*
X1678928Y-1695214D01*
X1678928Y-1723786D02*
X1693214Y-1709500D01*
X1721786Y-1695214D01*
X1764643Y-1695214D01*
X1793214Y-1709500D01*
X1807500Y-1738071D01*
X1807500Y-1895214D01*
X1807500Y-1738071D02*
X1821786Y-1709500D01*
X1850357Y-1695214D01*
X1893214Y-1695214D01*
X1921786Y-1709500D01*
X1936071Y-1738071D01*
X1936071Y-1895214D01*
X2521786Y-1580929D02*
X2264643Y-1966643D01*
X2907500Y-1595214D02*
X2936071Y-1595214D01*
X2964643Y-1609500D01*
X2978928Y-1623786D01*
X2993214Y-1652357D01*
X3007500Y-1709500D01*
X3007500Y-1780929D01*
X2993214Y-1838071D01*
X2978928Y-1866643D01*
X2964643Y-1880929D01*
X2936071Y-1895214D01*
X2907500Y-1895214D01*
X2878928Y-1880929D01*
X2864643Y-1866643D01*
X2850357Y-1838071D01*
X2836071Y-1780929D01*
X2836071Y-1709500D01*
X2850357Y-1652357D01*
X2864643Y-1623786D01*
X2878928Y-1609500D01*
X2907500Y-1595214D01*
X3136071Y-1866643D02*
X3150357Y-1880929D01*
X3136071Y-1895214D01*
X3121786Y-1880929D01*
X3136071Y-1866643D01*
X3136071Y-1895214D01*
X3336071Y-1595214D02*
X3364643Y-1595214D01*
X3393214Y-1609500D01*
X3407500Y-1623786D01*
X3421786Y-1652357D01*
X3436071Y-1709500D01*
X3436071Y-1780929D01*
X3421786Y-1838071D01*
X3407500Y-1866643D01*
X3393214Y-1880929D01*
X3364643Y-1895214D01*
X3336071Y-1895214D01*
X3307500Y-1880929D01*
X3293214Y-1866643D01*
X3278928Y-1838071D01*
X3264643Y-1780929D01*
X3264643Y-1709500D01*
X3278928Y-1652357D01*
X3293214Y-1623786D01*
X3307500Y-1609500D01*
X3336071Y-1595214D01*
X3536071Y-1595214D02*
X3721786Y-1595214D01*
X3621786Y-1709500D01*
X3664643Y-1709500D01*
X3693214Y-1723786D01*
X3707500Y-1738071D01*
X3721786Y-1766643D01*
X3721786Y-1838071D01*
X3707500Y-1866643D01*
X3693214Y-1880929D01*
X3664643Y-1895214D01*
X3578928Y-1895214D01*
X3550357Y-1880929D01*
X3536071Y-1866643D01*
X3836071Y-1623786D02*
X3850357Y-1609500D01*
X3878928Y-1595214D01*
X3950357Y-1595214D01*
X3978928Y-1609500D01*
X3993214Y-1623786D01*
X4007500Y-1652357D01*
X4007500Y-1680929D01*
X3993214Y-1723786D01*
X3821786Y-1895214D01*
X4007500Y-1895214D01*
X4121786Y-1595214D02*
X4121786Y-1652357D01*
X4236071Y-1595214D02*
X4236071Y-1652357D01*
X4678928Y-2009500D02*
X4664643Y-1995214D01*
X4636071Y-1952357D01*
X4621786Y-1923786D01*
X4607500Y-1880929D01*
X4593214Y-1809500D01*
X4593214Y-1752357D01*
X4607500Y-1680929D01*
X4621786Y-1638071D01*
X4636071Y-1609500D01*
X4664643Y-1566643D01*
X4678928Y-1552357D01*
X4921786Y-1695214D02*
X4921786Y-1895214D01*
X4850357Y-1580929D02*
X4778928Y-1795214D01*
X4964643Y-1795214D01*
X5136071Y-1595214D02*
X5164643Y-1595214D01*
X5193214Y-1609500D01*
X5207500Y-1623786D01*
X5221786Y-1652357D01*
X5236071Y-1709500D01*
X5236071Y-1780929D01*
X5221786Y-1838071D01*
X5207500Y-1866643D01*
X5193214Y-1880929D01*
X5164643Y-1895214D01*
X5136071Y-1895214D01*
X5107500Y-1880929D01*
X5093214Y-1866643D01*
X5078928Y-1838071D01*
X5064643Y-1780929D01*
X5064643Y-1709500D01*
X5078928Y-1652357D01*
X5093214Y-1623786D01*
X5107500Y-1609500D01*
X5136071Y-1595214D01*
X5593214Y-1895214D02*
X5593214Y-1595214D01*
X5721786Y-1895214D02*
X5721786Y-1738071D01*
X5707500Y-1709500D01*
X5678928Y-1695214D01*
X5636071Y-1695214D01*
X5607500Y-1709500D01*
X5593214Y-1723786D01*
X5907500Y-1895214D02*
X5878928Y-1880929D01*
X5864643Y-1866643D01*
X5850357Y-1838071D01*
X5850357Y-1752357D01*
X5864643Y-1723786D01*
X5878928Y-1709500D01*
X5907500Y-1695214D01*
X5950357Y-1695214D01*
X5978928Y-1709500D01*
X5993214Y-1723786D01*
X6007500Y-1752357D01*
X6007500Y-1838071D01*
X5993214Y-1866643D01*
X5978928Y-1880929D01*
X5950357Y-1895214D01*
X5907500Y-1895214D01*
X6178928Y-1895214D02*
X6150357Y-1880929D01*
X6136071Y-1852357D01*
X6136071Y-1595214D01*
X6407500Y-1880929D02*
X6378928Y-1895214D01*
X6321786Y-1895214D01*
X6293214Y-1880929D01*
X6278928Y-1852357D01*
X6278928Y-1738071D01*
X6293214Y-1709500D01*
X6321786Y-1695214D01*
X6378928Y-1695214D01*
X6407500Y-1709500D01*
X6421786Y-1738071D01*
X6421786Y-1766643D01*
X6278928Y-1795214D01*
X6536071Y-1880929D02*
X6564643Y-1895214D01*
X6621786Y-1895214D01*
X6650357Y-1880929D01*
X6664643Y-1852357D01*
X6664643Y-1838071D01*
X6650357Y-1809500D01*
X6621786Y-1795214D01*
X6578928Y-1795214D01*
X6550357Y-1780929D01*
X6536071Y-1752357D01*
X6536071Y-1738071D01*
X6550357Y-1709500D01*
X6578928Y-1695214D01*
X6621786Y-1695214D01*
X6650357Y-1709500D01*
X6764643Y-2009500D02*
X6778928Y-1995214D01*
X6807500Y-1952357D01*
X6821786Y-1923786D01*
X6836071Y-1880929D01*
X6850357Y-1809500D01*
X6850357Y-1752357D01*
X6836071Y-1680929D01*
X6821786Y-1638071D01*
X6807500Y-1609500D01*
X6778928Y-1566643D01*
X6764643Y-1552357D01*
X-20680Y-2187320D02*
X-20680Y-2123680D01*
X-84320Y-2123680D01*
X-84320Y-2187320D01*
X-20680Y-2187320D01*
X336071Y-1991214D02*
X364643Y-1991214D01*
X393214Y-2005500D01*
X407500Y-2019786D01*
X421786Y-2048357D01*
X436071Y-2105500D01*
X436071Y-2176929D01*
X421786Y-2234072D01*
X407500Y-2262643D01*
X393214Y-2276929D01*
X364643Y-2291214D01*
X336071Y-2291214D01*
X307500Y-2276929D01*
X293214Y-2262643D01*
X278928Y-2234072D01*
X264643Y-2176929D01*
X264643Y-2105500D01*
X278928Y-2048357D01*
X293214Y-2019786D01*
X307500Y-2005500D01*
X336071Y-1991214D01*
X564643Y-2262643D02*
X578928Y-2276929D01*
X564643Y-2291214D01*
X550357Y-2276929D01*
X564643Y-2262643D01*
X564643Y-2291214D01*
X721786Y-2291214D02*
X778928Y-2291214D01*
X807500Y-2276929D01*
X821786Y-2262643D01*
X850357Y-2219786D01*
X864643Y-2162643D01*
X864643Y-2048357D01*
X850357Y-2019786D01*
X836071Y-2005500D01*
X807500Y-1991214D01*
X750357Y-1991214D01*
X721786Y-2005500D01*
X707500Y-2019786D01*
X693214Y-2048357D01*
X693214Y-2119786D01*
X707500Y-2148357D01*
X721786Y-2162643D01*
X750357Y-2176929D01*
X807500Y-2176929D01*
X836071Y-2162643D01*
X850357Y-2148357D01*
X864643Y-2119786D01*
X1050357Y-1991214D02*
X1078928Y-1991214D01*
X1107500Y-2005500D01*
X1121786Y-2019786D01*
X1136071Y-2048357D01*
X1150357Y-2105500D01*
X1150357Y-2176929D01*
X1136071Y-2234072D01*
X1121786Y-2262643D01*
X1107500Y-2276929D01*
X1078928Y-2291214D01*
X1050357Y-2291214D01*
X1021786Y-2276929D01*
X1007500Y-2262643D01*
X993214Y-2234072D01*
X978928Y-2176929D01*
X978928Y-2105500D01*
X993214Y-2048357D01*
X1007500Y-2019786D01*
X1021786Y-2005500D01*
X1050357Y-1991214D01*
X1278928Y-2291214D02*
X1278928Y-2091214D01*
X1278928Y-2119786D02*
X1293214Y-2105500D01*
X1321786Y-2091214D01*
X1364643Y-2091214D01*
X1393214Y-2105500D01*
X1407500Y-2134072D01*
X1407500Y-2291214D01*
X1407500Y-2134072D02*
X1421786Y-2105500D01*
X1450357Y-2091214D01*
X1493214Y-2091214D01*
X1521786Y-2105500D01*
X1536071Y-2134072D01*
X1536071Y-2291214D01*
X1678928Y-2291214D02*
X1678928Y-2091214D01*
X1678928Y-2119786D02*
X1693214Y-2105500D01*
X1721786Y-2091214D01*
X1764643Y-2091214D01*
X1793214Y-2105500D01*
X1807500Y-2134072D01*
X1807500Y-2291214D01*
X1807500Y-2134072D02*
X1821786Y-2105500D01*
X1850357Y-2091214D01*
X1893214Y-2091214D01*
X1921786Y-2105500D01*
X1936071Y-2134072D01*
X1936071Y-2291214D01*
X2521786Y-1976929D02*
X2264643Y-2362643D01*
X2907500Y-1991214D02*
X2936071Y-1991214D01*
X2964643Y-2005500D01*
X2978928Y-2019786D01*
X2993214Y-2048357D01*
X3007500Y-2105500D01*
X3007500Y-2176929D01*
X2993214Y-2234072D01*
X2978928Y-2262643D01*
X2964643Y-2276929D01*
X2936071Y-2291214D01*
X2907500Y-2291214D01*
X2878928Y-2276929D01*
X2864643Y-2262643D01*
X2850357Y-2234072D01*
X2836071Y-2176929D01*
X2836071Y-2105500D01*
X2850357Y-2048357D01*
X2864643Y-2019786D01*
X2878928Y-2005500D01*
X2907500Y-1991214D01*
X3136071Y-2262643D02*
X3150357Y-2276929D01*
X3136071Y-2291214D01*
X3121786Y-2276929D01*
X3136071Y-2262643D01*
X3136071Y-2291214D01*
X3336071Y-1991214D02*
X3364643Y-1991214D01*
X3393214Y-2005500D01*
X3407500Y-2019786D01*
X3421786Y-2048357D01*
X3436071Y-2105500D01*
X3436071Y-2176929D01*
X3421786Y-2234072D01*
X3407500Y-2262643D01*
X3393214Y-2276929D01*
X3364643Y-2291214D01*
X3336071Y-2291214D01*
X3307500Y-2276929D01*
X3293214Y-2262643D01*
X3278928Y-2234072D01*
X3264643Y-2176929D01*
X3264643Y-2105500D01*
X3278928Y-2048357D01*
X3293214Y-2019786D01*
X3307500Y-2005500D01*
X3336071Y-1991214D01*
X3536071Y-1991214D02*
X3721786Y-1991214D01*
X3621786Y-2105500D01*
X3664643Y-2105500D01*
X3693214Y-2119786D01*
X3707500Y-2134072D01*
X3721786Y-2162643D01*
X3721786Y-2234072D01*
X3707500Y-2262643D01*
X3693214Y-2276929D01*
X3664643Y-2291214D01*
X3578928Y-2291214D01*
X3550357Y-2276929D01*
X3536071Y-2262643D01*
X3993214Y-1991214D02*
X3850357Y-1991214D01*
X3836071Y-2134072D01*
X3850357Y-2119786D01*
X3878928Y-2105500D01*
X3950357Y-2105500D01*
X3978928Y-2119786D01*
X3993214Y-2134072D01*
X4007500Y-2162643D01*
X4007500Y-2234072D01*
X3993214Y-2262643D01*
X3978928Y-2276929D01*
X3950357Y-2291214D01*
X3878928Y-2291214D01*
X3850357Y-2276929D01*
X3836071Y-2262643D01*
X4121786Y-1991214D02*
X4121786Y-2048357D01*
X4236071Y-1991214D02*
X4236071Y-2048357D01*
X4678928Y-2405500D02*
X4664643Y-2391214D01*
X4636071Y-2348357D01*
X4621786Y-2319786D01*
X4607500Y-2276929D01*
X4593214Y-2205500D01*
X4593214Y-2148357D01*
X4607500Y-2076929D01*
X4621786Y-2034071D01*
X4636071Y-2005500D01*
X4664643Y-1962643D01*
X4678928Y-1948357D01*
X4778928Y-2019786D02*
X4793214Y-2005500D01*
X4821786Y-1991214D01*
X4893214Y-1991214D01*
X4921786Y-2005500D01*
X4936071Y-2019786D01*
X4950357Y-2048357D01*
X4950357Y-2076929D01*
X4936071Y-2119786D01*
X4764643Y-2291214D01*
X4950357Y-2291214D01*
X5307500Y-2291214D02*
X5307500Y-1991214D01*
X5436071Y-2291214D02*
X5436071Y-2134072D01*
X5421786Y-2105500D01*
X5393214Y-2091214D01*
X5350357Y-2091214D01*
X5321786Y-2105500D01*
X5307500Y-2119786D01*
X5621786Y-2291214D02*
X5593214Y-2276929D01*
X5578928Y-2262643D01*
X5564643Y-2234072D01*
X5564643Y-2148357D01*
X5578928Y-2119786D01*
X5593214Y-2105500D01*
X5621786Y-2091214D01*
X5664643Y-2091214D01*
X5693214Y-2105500D01*
X5707500Y-2119786D01*
X5721786Y-2148357D01*
X5721786Y-2234072D01*
X5707500Y-2262643D01*
X5693214Y-2276929D01*
X5664643Y-2291214D01*
X5621786Y-2291214D01*
X5893214Y-2291214D02*
X5864643Y-2276929D01*
X5850357Y-2248357D01*
X5850357Y-1991214D01*
X6121786Y-2276929D02*
X6093214Y-2291214D01*
X6036071Y-2291214D01*
X6007500Y-2276929D01*
X5993214Y-2248357D01*
X5993214Y-2134072D01*
X6007500Y-2105500D01*
X6036071Y-2091214D01*
X6093214Y-2091214D01*
X6121786Y-2105500D01*
X6136071Y-2134072D01*
X6136071Y-2162643D01*
X5993214Y-2191214D01*
X6250357Y-2276929D02*
X6278928Y-2291214D01*
X6336071Y-2291214D01*
X6364643Y-2276929D01*
X6378928Y-2248357D01*
X6378928Y-2234072D01*
X6364643Y-2205500D01*
X6336071Y-2191214D01*
X6293214Y-2191214D01*
X6264643Y-2176929D01*
X6250357Y-2148357D01*
X6250357Y-2134072D01*
X6264643Y-2105500D01*
X6293214Y-2091214D01*
X6336071Y-2091214D01*
X6364643Y-2105500D01*
X6478928Y-2405500D02*
X6493214Y-2391214D01*
X6521786Y-2348357D01*
X6536071Y-2319786D01*
X6550357Y-2276929D01*
X6564643Y-2205500D01*
X6564643Y-2148357D01*
X6550357Y-2076929D01*
X6536071Y-2034071D01*
X6521786Y-2005500D01*
X6493214Y-1962643D01*
X6478928Y-1948357D01*
X-57500Y-2601500D02*
X-7500Y-2551500D01*
X-57500Y-2501500D01*
X-107500Y-2551500D01*
X-57500Y-2601500D01*
X436071Y-2687214D02*
X264643Y-2687214D01*
X350357Y-2687214D02*
X350357Y-2387214D01*
X321786Y-2430072D01*
X293214Y-2458643D01*
X264643Y-2472929D01*
X564643Y-2658643D02*
X578928Y-2672929D01*
X564643Y-2687214D01*
X550357Y-2672929D01*
X564643Y-2658643D01*
X564643Y-2687214D01*
X764643Y-2387214D02*
X793214Y-2387214D01*
X821786Y-2401500D01*
X836071Y-2415786D01*
X850357Y-2444357D01*
X864643Y-2501500D01*
X864643Y-2572929D01*
X850357Y-2630072D01*
X836071Y-2658643D01*
X821786Y-2672929D01*
X793214Y-2687214D01*
X764643Y-2687214D01*
X736071Y-2672929D01*
X721786Y-2658643D01*
X707500Y-2630072D01*
X693214Y-2572929D01*
X693214Y-2501500D01*
X707500Y-2444357D01*
X721786Y-2415786D01*
X736071Y-2401500D01*
X764643Y-2387214D01*
X1050357Y-2387214D02*
X1078928Y-2387214D01*
X1107500Y-2401500D01*
X1121786Y-2415786D01*
X1136071Y-2444357D01*
X1150357Y-2501500D01*
X1150357Y-2572929D01*
X1136071Y-2630072D01*
X1121786Y-2658643D01*
X1107500Y-2672929D01*
X1078928Y-2687214D01*
X1050357Y-2687214D01*
X1021786Y-2672929D01*
X1007500Y-2658643D01*
X993214Y-2630072D01*
X978928Y-2572929D01*
X978928Y-2501500D01*
X993214Y-2444357D01*
X1007500Y-2415786D01*
X1021786Y-2401500D01*
X1050357Y-2387214D01*
X1278928Y-2687214D02*
X1278928Y-2487214D01*
X1278928Y-2515786D02*
X1293214Y-2501500D01*
X1321786Y-2487214D01*
X1364643Y-2487214D01*
X1393214Y-2501500D01*
X1407500Y-2530072D01*
X1407500Y-2687214D01*
X1407500Y-2530072D02*
X1421786Y-2501500D01*
X1450357Y-2487214D01*
X1493214Y-2487214D01*
X1521786Y-2501500D01*
X1536071Y-2530072D01*
X1536071Y-2687214D01*
X1678928Y-2687214D02*
X1678928Y-2487214D01*
X1678928Y-2515786D02*
X1693214Y-2501500D01*
X1721786Y-2487214D01*
X1764643Y-2487214D01*
X1793214Y-2501500D01*
X1807500Y-2530072D01*
X1807500Y-2687214D01*
X1807500Y-2530072D02*
X1821786Y-2501500D01*
X1850357Y-2487214D01*
X1893214Y-2487214D01*
X1921786Y-2501500D01*
X1936071Y-2530072D01*
X1936071Y-2687214D01*
X2521786Y-2372929D02*
X2264643Y-2758643D01*
X2907500Y-2387214D02*
X2936071Y-2387214D01*
X2964643Y-2401500D01*
X2978928Y-2415786D01*
X2993214Y-2444357D01*
X3007500Y-2501500D01*
X3007500Y-2572929D01*
X2993214Y-2630072D01*
X2978928Y-2658643D01*
X2964643Y-2672929D01*
X2936071Y-2687214D01*
X2907500Y-2687214D01*
X2878928Y-2672929D01*
X2864643Y-2658643D01*
X2850357Y-2630072D01*
X2836071Y-2572929D01*
X2836071Y-2501500D01*
X2850357Y-2444357D01*
X2864643Y-2415786D01*
X2878928Y-2401500D01*
X2907500Y-2387214D01*
X3136071Y-2658643D02*
X3150357Y-2672929D01*
X3136071Y-2687214D01*
X3121786Y-2672929D01*
X3136071Y-2658643D01*
X3136071Y-2687214D01*
X3336071Y-2387214D02*
X3364643Y-2387214D01*
X3393214Y-2401500D01*
X3407500Y-2415786D01*
X3421786Y-2444357D01*
X3436071Y-2501500D01*
X3436071Y-2572929D01*
X3421786Y-2630072D01*
X3407500Y-2658643D01*
X3393214Y-2672929D01*
X3364643Y-2687214D01*
X3336071Y-2687214D01*
X3307500Y-2672929D01*
X3293214Y-2658643D01*
X3278928Y-2630072D01*
X3264643Y-2572929D01*
X3264643Y-2501500D01*
X3278928Y-2444357D01*
X3293214Y-2415786D01*
X3307500Y-2401500D01*
X3336071Y-2387214D01*
X3536071Y-2387214D02*
X3721786Y-2387214D01*
X3621786Y-2501500D01*
X3664643Y-2501500D01*
X3693214Y-2515786D01*
X3707500Y-2530072D01*
X3721786Y-2558643D01*
X3721786Y-2630072D01*
X3707500Y-2658643D01*
X3693214Y-2672929D01*
X3664643Y-2687214D01*
X3578928Y-2687214D01*
X3550357Y-2672929D01*
X3536071Y-2658643D01*
X3864643Y-2687214D02*
X3921786Y-2687214D01*
X3950357Y-2672929D01*
X3964643Y-2658643D01*
X3993214Y-2615786D01*
X4007500Y-2558643D01*
X4007500Y-2444357D01*
X3993214Y-2415786D01*
X3978928Y-2401500D01*
X3950357Y-2387214D01*
X3893214Y-2387214D01*
X3864643Y-2401500D01*
X3850357Y-2415786D01*
X3836071Y-2444357D01*
X3836071Y-2515786D01*
X3850357Y-2544357D01*
X3864643Y-2558643D01*
X3893214Y-2572929D01*
X3950357Y-2572929D01*
X3978928Y-2558643D01*
X3993214Y-2544357D01*
X4007500Y-2515786D01*
X4121786Y-2387214D02*
X4121786Y-2444357D01*
X4236071Y-2387214D02*
X4236071Y-2444357D01*
X4678928Y-2801500D02*
X4664643Y-2787214D01*
X4636071Y-2744357D01*
X4621786Y-2715786D01*
X4607500Y-2672929D01*
X4593214Y-2601500D01*
X4593214Y-2544357D01*
X4607500Y-2472929D01*
X4621786Y-2430072D01*
X4636071Y-2401500D01*
X4664643Y-2358643D01*
X4678928Y-2344357D01*
X4921786Y-2387214D02*
X4864643Y-2387214D01*
X4836071Y-2401500D01*
X4821786Y-2415786D01*
X4793214Y-2458643D01*
X4778928Y-2515786D01*
X4778928Y-2630072D01*
X4793214Y-2658643D01*
X4807500Y-2672929D01*
X4836071Y-2687214D01*
X4893214Y-2687214D01*
X4921786Y-2672929D01*
X4936071Y-2658643D01*
X4950357Y-2630072D01*
X4950357Y-2558643D01*
X4936071Y-2530072D01*
X4921786Y-2515786D01*
X4893214Y-2501500D01*
X4836071Y-2501500D01*
X4807500Y-2515786D01*
X4793214Y-2530072D01*
X4778928Y-2558643D01*
X5307500Y-2687214D02*
X5307500Y-2387214D01*
X5436071Y-2687214D02*
X5436071Y-2530072D01*
X5421786Y-2501500D01*
X5393214Y-2487214D01*
X5350357Y-2487214D01*
X5321786Y-2501500D01*
X5307500Y-2515786D01*
X5621786Y-2687214D02*
X5593214Y-2672929D01*
X5578928Y-2658643D01*
X5564643Y-2630072D01*
X5564643Y-2544357D01*
X5578928Y-2515786D01*
X5593214Y-2501500D01*
X5621786Y-2487214D01*
X5664643Y-2487214D01*
X5693214Y-2501500D01*
X5707500Y-2515786D01*
X5721786Y-2544357D01*
X5721786Y-2630072D01*
X5707500Y-2658643D01*
X5693214Y-2672929D01*
X5664643Y-2687214D01*
X5621786Y-2687214D01*
X5893214Y-2687214D02*
X5864643Y-2672929D01*
X5850357Y-2644357D01*
X5850357Y-2387214D01*
X6121786Y-2672929D02*
X6093214Y-2687214D01*
X6036071Y-2687214D01*
X6007500Y-2672929D01*
X5993214Y-2644357D01*
X5993214Y-2530072D01*
X6007500Y-2501500D01*
X6036071Y-2487214D01*
X6093214Y-2487214D01*
X6121786Y-2501500D01*
X6136071Y-2530072D01*
X6136071Y-2558643D01*
X5993214Y-2587214D01*
X6250357Y-2672929D02*
X6278928Y-2687214D01*
X6336071Y-2687214D01*
X6364643Y-2672929D01*
X6378928Y-2644357D01*
X6378928Y-2630072D01*
X6364643Y-2601500D01*
X6336071Y-2587214D01*
X6293214Y-2587214D01*
X6264643Y-2572929D01*
X6250357Y-2544357D01*
X6250357Y-2530072D01*
X6264643Y-2501500D01*
X6293214Y-2487214D01*
X6336071Y-2487214D01*
X6364643Y-2501500D01*
X6736071Y-2572929D02*
X6964643Y-2572929D01*
X6850357Y-2687214D02*
X6850357Y-2458643D01*
X7307500Y-2387214D02*
X7493214Y-2387214D01*
X7393214Y-2501500D01*
X7436071Y-2501500D01*
X7464643Y-2515786D01*
X7478928Y-2530072D01*
X7493214Y-2558643D01*
X7493214Y-2630072D01*
X7478928Y-2658643D01*
X7464643Y-2672929D01*
X7436071Y-2687214D01*
X7350357Y-2687214D01*
X7321786Y-2672929D01*
X7307500Y-2658643D01*
X7836071Y-2672929D02*
X7864643Y-2687214D01*
X7921786Y-2687214D01*
X7950357Y-2672929D01*
X7964643Y-2644357D01*
X7964643Y-2630072D01*
X7950357Y-2601500D01*
X7921786Y-2587214D01*
X7878928Y-2587214D01*
X7850357Y-2572929D01*
X7836071Y-2544357D01*
X7836071Y-2530072D01*
X7850357Y-2501500D01*
X7878928Y-2487214D01*
X7921786Y-2487214D01*
X7950357Y-2501500D01*
X8136071Y-2687214D02*
X8107500Y-2672929D01*
X8093214Y-2644357D01*
X8093214Y-2387214D01*
X8293214Y-2687214D02*
X8264643Y-2672929D01*
X8250357Y-2658643D01*
X8236071Y-2630072D01*
X8236071Y-2544357D01*
X8250357Y-2515786D01*
X8264643Y-2501500D01*
X8293214Y-2487214D01*
X8336071Y-2487214D01*
X8364643Y-2501500D01*
X8378928Y-2515786D01*
X8393214Y-2544357D01*
X8393214Y-2630072D01*
X8378928Y-2658643D01*
X8364643Y-2672929D01*
X8336071Y-2687214D01*
X8293214Y-2687214D01*
X8478928Y-2487214D02*
X8593214Y-2487214D01*
X8521786Y-2387214D02*
X8521786Y-2644357D01*
X8536071Y-2672929D01*
X8564643Y-2687214D01*
X8593214Y-2687214D01*
X8678928Y-2672929D02*
X8707500Y-2687214D01*
X8764643Y-2687214D01*
X8793214Y-2672929D01*
X8807500Y-2644357D01*
X8807500Y-2630072D01*
X8793214Y-2601500D01*
X8764643Y-2587214D01*
X8721786Y-2587214D01*
X8693214Y-2572929D01*
X8678928Y-2544357D01*
X8678928Y-2530072D01*
X8693214Y-2501500D01*
X8721786Y-2487214D01*
X8764643Y-2487214D01*
X8793214Y-2501500D01*
X8907500Y-2801500D02*
X8921786Y-2787214D01*
X8950357Y-2744357D01*
X8964643Y-2715786D01*
X8978928Y-2672929D01*
X8993214Y-2601500D01*
X8993214Y-2544357D01*
X8978928Y-2472929D01*
X8964643Y-2430072D01*
X8950357Y-2401500D01*
X8921786Y-2358643D01*
X8907500Y-2344357D01*
X-109100Y-2896700D02*
X-7500Y-2998300D01*
X-7500Y-2896700D02*
X-109100Y-2998300D01*
X-7500Y-2947500D02*
G75*
G03X-7500Y-2947500I-50800J0D01*
G01*
X436071Y-3083214D02*
X264643Y-3083214D01*
X350357Y-3083214D02*
X350357Y-2783214D01*
X321786Y-2826071D01*
X293214Y-2854643D01*
X264643Y-2868929D01*
X564643Y-3054643D02*
X578928Y-3068929D01*
X564643Y-3083214D01*
X550357Y-3068929D01*
X564643Y-3054643D01*
X564643Y-3083214D01*
X764643Y-2783214D02*
X793214Y-2783214D01*
X821786Y-2797500D01*
X836071Y-2811786D01*
X850357Y-2840357D01*
X864643Y-2897500D01*
X864643Y-2968929D01*
X850357Y-3026071D01*
X836071Y-3054643D01*
X821786Y-3068929D01*
X793214Y-3083214D01*
X764643Y-3083214D01*
X736071Y-3068929D01*
X721786Y-3054643D01*
X707500Y-3026071D01*
X693214Y-2968929D01*
X693214Y-2897500D01*
X707500Y-2840357D01*
X721786Y-2811786D01*
X736071Y-2797500D01*
X764643Y-2783214D01*
X978928Y-2811786D02*
X993214Y-2797500D01*
X1021786Y-2783214D01*
X1093214Y-2783214D01*
X1121786Y-2797500D01*
X1136071Y-2811786D01*
X1150357Y-2840357D01*
X1150357Y-2868929D01*
X1136071Y-2911786D01*
X964643Y-3083214D01*
X1150357Y-3083214D01*
X1278928Y-3083214D02*
X1278928Y-2883214D01*
X1278928Y-2911786D02*
X1293214Y-2897500D01*
X1321786Y-2883214D01*
X1364643Y-2883214D01*
X1393214Y-2897500D01*
X1407500Y-2926071D01*
X1407500Y-3083214D01*
X1407500Y-2926071D02*
X1421786Y-2897500D01*
X1450357Y-2883214D01*
X1493214Y-2883214D01*
X1521786Y-2897500D01*
X1536071Y-2926071D01*
X1536071Y-3083214D01*
X1678928Y-3083214D02*
X1678928Y-2883214D01*
X1678928Y-2911786D02*
X1693214Y-2897500D01*
X1721786Y-2883214D01*
X1764643Y-2883214D01*
X1793214Y-2897500D01*
X1807500Y-2926071D01*
X1807500Y-3083214D01*
X1807500Y-2926071D02*
X1821786Y-2897500D01*
X1850357Y-2883214D01*
X1893214Y-2883214D01*
X1921786Y-2897500D01*
X1936071Y-2926071D01*
X1936071Y-3083214D01*
X2521786Y-2768929D02*
X2264643Y-3154643D01*
X2907500Y-2783214D02*
X2936071Y-2783214D01*
X2964643Y-2797500D01*
X2978928Y-2811786D01*
X2993214Y-2840357D01*
X3007500Y-2897500D01*
X3007500Y-2968929D01*
X2993214Y-3026071D01*
X2978928Y-3054643D01*
X2964643Y-3068929D01*
X2936071Y-3083214D01*
X2907500Y-3083214D01*
X2878928Y-3068929D01*
X2864643Y-3054643D01*
X2850357Y-3026071D01*
X2836071Y-2968929D01*
X2836071Y-2897500D01*
X2850357Y-2840357D01*
X2864643Y-2811786D01*
X2878928Y-2797500D01*
X2907500Y-2783214D01*
X3136071Y-3054643D02*
X3150357Y-3068929D01*
X3136071Y-3083214D01*
X3121786Y-3068929D01*
X3136071Y-3054643D01*
X3136071Y-3083214D01*
X3336071Y-2783214D02*
X3364643Y-2783214D01*
X3393214Y-2797500D01*
X3407500Y-2811786D01*
X3421786Y-2840357D01*
X3436071Y-2897500D01*
X3436071Y-2968929D01*
X3421786Y-3026071D01*
X3407500Y-3054643D01*
X3393214Y-3068929D01*
X3364643Y-3083214D01*
X3336071Y-3083214D01*
X3307500Y-3068929D01*
X3293214Y-3054643D01*
X3278928Y-3026071D01*
X3264643Y-2968929D01*
X3264643Y-2897500D01*
X3278928Y-2840357D01*
X3293214Y-2811786D01*
X3307500Y-2797500D01*
X3336071Y-2783214D01*
X3693214Y-2883214D02*
X3693214Y-3083214D01*
X3621786Y-2768929D02*
X3550357Y-2983214D01*
X3736071Y-2983214D01*
X3907500Y-2783214D02*
X3936071Y-2783214D01*
X3964643Y-2797500D01*
X3978928Y-2811786D01*
X3993214Y-2840357D01*
X4007500Y-2897500D01*
X4007500Y-2968929D01*
X3993214Y-3026071D01*
X3978928Y-3054643D01*
X3964643Y-3068929D01*
X3936071Y-3083214D01*
X3907500Y-3083214D01*
X3878928Y-3068929D01*
X3864643Y-3054643D01*
X3850357Y-3026071D01*
X3836071Y-2968929D01*
X3836071Y-2897500D01*
X3850357Y-2840357D01*
X3864643Y-2811786D01*
X3878928Y-2797500D01*
X3907500Y-2783214D01*
X4121786Y-2783214D02*
X4121786Y-2840357D01*
X4236071Y-2783214D02*
X4236071Y-2840357D01*
X4678928Y-3197500D02*
X4664643Y-3183214D01*
X4636071Y-3140357D01*
X4621786Y-3111786D01*
X4607500Y-3068929D01*
X4593214Y-2997500D01*
X4593214Y-2940357D01*
X4607500Y-2868929D01*
X4621786Y-2826071D01*
X4636071Y-2797500D01*
X4664643Y-2754643D01*
X4678928Y-2740357D01*
X4778928Y-2811786D02*
X4793214Y-2797500D01*
X4821786Y-2783214D01*
X4893214Y-2783214D01*
X4921786Y-2797500D01*
X4936071Y-2811786D01*
X4950357Y-2840357D01*
X4950357Y-2868929D01*
X4936071Y-2911786D01*
X4764643Y-3083214D01*
X4950357Y-3083214D01*
X5307500Y-3083214D02*
X5307500Y-2783214D01*
X5436071Y-3083214D02*
X5436071Y-2926071D01*
X5421786Y-2897500D01*
X5393214Y-2883214D01*
X5350357Y-2883214D01*
X5321786Y-2897500D01*
X5307500Y-2911786D01*
X5621786Y-3083214D02*
X5593214Y-3068929D01*
X5578928Y-3054643D01*
X5564643Y-3026071D01*
X5564643Y-2940357D01*
X5578928Y-2911786D01*
X5593214Y-2897500D01*
X5621786Y-2883214D01*
X5664643Y-2883214D01*
X5693214Y-2897500D01*
X5707500Y-2911786D01*
X5721786Y-2940357D01*
X5721786Y-3026071D01*
X5707500Y-3054643D01*
X5693214Y-3068929D01*
X5664643Y-3083214D01*
X5621786Y-3083214D01*
X5893214Y-3083214D02*
X5864643Y-3068929D01*
X5850357Y-3040357D01*
X5850357Y-2783214D01*
X6121786Y-3068929D02*
X6093214Y-3083214D01*
X6036071Y-3083214D01*
X6007500Y-3068929D01*
X5993214Y-3040357D01*
X5993214Y-2926071D01*
X6007500Y-2897500D01*
X6036071Y-2883214D01*
X6093214Y-2883214D01*
X6121786Y-2897500D01*
X6136071Y-2926071D01*
X6136071Y-2954643D01*
X5993214Y-2983214D01*
X6250357Y-3068929D02*
X6278928Y-3083214D01*
X6336071Y-3083214D01*
X6364643Y-3068929D01*
X6378928Y-3040357D01*
X6378928Y-3026071D01*
X6364643Y-2997500D01*
X6336071Y-2983214D01*
X6293214Y-2983214D01*
X6264643Y-2968929D01*
X6250357Y-2940357D01*
X6250357Y-2926071D01*
X6264643Y-2897500D01*
X6293214Y-2883214D01*
X6336071Y-2883214D01*
X6364643Y-2897500D01*
X6478928Y-3197500D02*
X6493214Y-3183214D01*
X6521786Y-3140357D01*
X6536071Y-3111786D01*
X6550357Y-3068929D01*
X6564643Y-2997500D01*
X6564643Y-2940357D01*
X6550357Y-2868929D01*
X6536071Y-2826071D01*
X6521786Y-2797500D01*
X6493214Y-2754643D01*
X6478928Y-2740357D01*
X-126880Y-3283810D02*
X-7500Y-3403190D01*
X-7500Y-3283810D02*
X-126880Y-3403190D01*
X-67190Y-3283810D02*
X-67190Y-3403190D01*
X-126880Y-3343500D02*
X-7500Y-3343500D01*
X436071Y-3479214D02*
X264643Y-3479214D01*
X350357Y-3479214D02*
X350357Y-3179214D01*
X321786Y-3222071D01*
X293214Y-3250643D01*
X264643Y-3264929D01*
X564643Y-3450643D02*
X578928Y-3464929D01*
X564643Y-3479214D01*
X550357Y-3464929D01*
X564643Y-3450643D01*
X564643Y-3479214D01*
X864643Y-3479214D02*
X693214Y-3479214D01*
X778928Y-3479214D02*
X778928Y-3179214D01*
X750357Y-3222071D01*
X721786Y-3250643D01*
X693214Y-3264929D01*
X1007500Y-3479214D02*
X1064643Y-3479214D01*
X1093214Y-3464929D01*
X1107500Y-3450643D01*
X1136071Y-3407786D01*
X1150357Y-3350643D01*
X1150357Y-3236357D01*
X1136071Y-3207786D01*
X1121786Y-3193500D01*
X1093214Y-3179214D01*
X1036071Y-3179214D01*
X1007500Y-3193500D01*
X993214Y-3207786D01*
X978928Y-3236357D01*
X978928Y-3307786D01*
X993214Y-3336357D01*
X1007500Y-3350643D01*
X1036071Y-3364929D01*
X1093214Y-3364929D01*
X1121786Y-3350643D01*
X1136071Y-3336357D01*
X1150357Y-3307786D01*
X1278928Y-3479214D02*
X1278928Y-3279214D01*
X1278928Y-3307786D02*
X1293214Y-3293500D01*
X1321786Y-3279214D01*
X1364643Y-3279214D01*
X1393214Y-3293500D01*
X1407500Y-3322071D01*
X1407500Y-3479214D01*
X1407500Y-3322071D02*
X1421786Y-3293500D01*
X1450357Y-3279214D01*
X1493214Y-3279214D01*
X1521786Y-3293500D01*
X1536071Y-3322071D01*
X1536071Y-3479214D01*
X1678928Y-3479214D02*
X1678928Y-3279214D01*
X1678928Y-3307786D02*
X1693214Y-3293500D01*
X1721786Y-3279214D01*
X1764643Y-3279214D01*
X1793214Y-3293500D01*
X1807500Y-3322071D01*
X1807500Y-3479214D01*
X1807500Y-3322071D02*
X1821786Y-3293500D01*
X1850357Y-3279214D01*
X1893214Y-3279214D01*
X1921786Y-3293500D01*
X1936071Y-3322071D01*
X1936071Y-3479214D01*
X2521786Y-3164929D02*
X2264643Y-3550643D01*
X2907500Y-3179214D02*
X2936071Y-3179214D01*
X2964643Y-3193500D01*
X2978928Y-3207786D01*
X2993214Y-3236357D01*
X3007500Y-3293500D01*
X3007500Y-3364929D01*
X2993214Y-3422071D01*
X2978928Y-3450643D01*
X2964643Y-3464929D01*
X2936071Y-3479214D01*
X2907500Y-3479214D01*
X2878928Y-3464929D01*
X2864643Y-3450643D01*
X2850357Y-3422071D01*
X2836071Y-3364929D01*
X2836071Y-3293500D01*
X2850357Y-3236357D01*
X2864643Y-3207786D01*
X2878928Y-3193500D01*
X2907500Y-3179214D01*
X3136071Y-3450643D02*
X3150357Y-3464929D01*
X3136071Y-3479214D01*
X3121786Y-3464929D01*
X3136071Y-3450643D01*
X3136071Y-3479214D01*
X3336071Y-3179214D02*
X3364643Y-3179214D01*
X3393214Y-3193500D01*
X3407500Y-3207786D01*
X3421786Y-3236357D01*
X3436071Y-3293500D01*
X3436071Y-3364929D01*
X3421786Y-3422071D01*
X3407500Y-3450643D01*
X3393214Y-3464929D01*
X3364643Y-3479214D01*
X3336071Y-3479214D01*
X3307500Y-3464929D01*
X3293214Y-3450643D01*
X3278928Y-3422071D01*
X3264643Y-3364929D01*
X3264643Y-3293500D01*
X3278928Y-3236357D01*
X3293214Y-3207786D01*
X3307500Y-3193500D01*
X3336071Y-3179214D01*
X3693214Y-3279214D02*
X3693214Y-3479214D01*
X3621786Y-3164929D02*
X3550357Y-3379214D01*
X3736071Y-3379214D01*
X3821786Y-3179214D02*
X4021786Y-3179214D01*
X3893214Y-3479214D01*
X4121786Y-3179214D02*
X4121786Y-3236357D01*
X4236071Y-3179214D02*
X4236071Y-3236357D01*
X4678928Y-3593500D02*
X4664643Y-3579214D01*
X4636071Y-3536357D01*
X4621786Y-3507786D01*
X4607500Y-3464929D01*
X4593214Y-3393500D01*
X4593214Y-3336357D01*
X4607500Y-3264929D01*
X4621786Y-3222071D01*
X4636071Y-3193500D01*
X4664643Y-3150643D01*
X4678928Y-3136357D01*
X4950357Y-3479214D02*
X4778928Y-3479214D01*
X4864643Y-3479214D02*
X4864643Y-3179214D01*
X4836071Y-3222071D01*
X4807500Y-3250643D01*
X4778928Y-3264929D01*
X5136071Y-3179214D02*
X5164643Y-3179214D01*
X5193214Y-3193500D01*
X5207500Y-3207786D01*
X5221786Y-3236357D01*
X5236071Y-3293500D01*
X5236071Y-3364929D01*
X5221786Y-3422071D01*
X5207500Y-3450643D01*
X5193214Y-3464929D01*
X5164643Y-3479214D01*
X5136071Y-3479214D01*
X5107500Y-3464929D01*
X5093214Y-3450643D01*
X5078928Y-3422071D01*
X5064643Y-3364929D01*
X5064643Y-3293500D01*
X5078928Y-3236357D01*
X5093214Y-3207786D01*
X5107500Y-3193500D01*
X5136071Y-3179214D01*
X5593214Y-3479214D02*
X5593214Y-3179214D01*
X5721786Y-3479214D02*
X5721786Y-3322071D01*
X5707500Y-3293500D01*
X5678928Y-3279214D01*
X5636071Y-3279214D01*
X5607500Y-3293500D01*
X5593214Y-3307786D01*
X5907500Y-3479214D02*
X5878928Y-3464929D01*
X5864643Y-3450643D01*
X5850357Y-3422071D01*
X5850357Y-3336357D01*
X5864643Y-3307786D01*
X5878928Y-3293500D01*
X5907500Y-3279214D01*
X5950357Y-3279214D01*
X5978928Y-3293500D01*
X5993214Y-3307786D01*
X6007500Y-3336357D01*
X6007500Y-3422071D01*
X5993214Y-3450643D01*
X5978928Y-3464929D01*
X5950357Y-3479214D01*
X5907500Y-3479214D01*
X6178928Y-3479214D02*
X6150357Y-3464929D01*
X6136071Y-3436357D01*
X6136071Y-3179214D01*
X6407500Y-3464929D02*
X6378928Y-3479214D01*
X6321786Y-3479214D01*
X6293214Y-3464929D01*
X6278928Y-3436357D01*
X6278928Y-3322071D01*
X6293214Y-3293500D01*
X6321786Y-3279214D01*
X6378928Y-3279214D01*
X6407500Y-3293500D01*
X6421786Y-3322071D01*
X6421786Y-3350643D01*
X6278928Y-3379214D01*
X6536071Y-3464929D02*
X6564643Y-3479214D01*
X6621786Y-3479214D01*
X6650357Y-3464929D01*
X6664643Y-3436357D01*
X6664643Y-3422071D01*
X6650357Y-3393500D01*
X6621786Y-3379214D01*
X6578928Y-3379214D01*
X6550357Y-3364929D01*
X6536071Y-3336357D01*
X6536071Y-3322071D01*
X6550357Y-3293500D01*
X6578928Y-3279214D01*
X6621786Y-3279214D01*
X6650357Y-3293500D01*
X6764643Y-3593500D02*
X6778928Y-3579214D01*
X6807500Y-3536357D01*
X6821786Y-3507786D01*
X6836071Y-3464929D01*
X6850357Y-3393500D01*
X6850357Y-3336357D01*
X6836071Y-3264929D01*
X6821786Y-3222071D01*
X6807500Y-3193500D01*
X6778928Y-3150643D01*
X6764643Y-3136357D01*
X-192920Y-3646790D02*
X-7500Y-3832210D01*
X-7500Y-3646790D02*
X-192920Y-3832210D01*
X-34654Y-3805057D02*
X-34654Y-3673944D01*
X-165767Y-3673944D01*
X-165767Y-3805057D01*
X-34654Y-3805057D01*
X436071Y-3875214D02*
X264643Y-3875214D01*
X350357Y-3875214D02*
X350357Y-3575214D01*
X321786Y-3618071D01*
X293214Y-3646643D01*
X264643Y-3660929D01*
X564643Y-3846643D02*
X578928Y-3860929D01*
X564643Y-3875214D01*
X550357Y-3860929D01*
X564643Y-3846643D01*
X564643Y-3875214D01*
X750357Y-3703786D02*
X721786Y-3689500D01*
X707500Y-3675214D01*
X693214Y-3646643D01*
X693214Y-3632357D01*
X707500Y-3603786D01*
X721786Y-3589500D01*
X750357Y-3575214D01*
X807500Y-3575214D01*
X836071Y-3589500D01*
X850357Y-3603786D01*
X864643Y-3632357D01*
X864643Y-3646643D01*
X850357Y-3675214D01*
X836071Y-3689500D01*
X807500Y-3703786D01*
X750357Y-3703786D01*
X721786Y-3718071D01*
X707500Y-3732357D01*
X693214Y-3760929D01*
X693214Y-3818071D01*
X707500Y-3846643D01*
X721786Y-3860929D01*
X750357Y-3875214D01*
X807500Y-3875214D01*
X836071Y-3860929D01*
X850357Y-3846643D01*
X864643Y-3818071D01*
X864643Y-3760929D01*
X850357Y-3732357D01*
X836071Y-3718071D01*
X807500Y-3703786D01*
X1136071Y-3575214D02*
X993214Y-3575214D01*
X978928Y-3718071D01*
X993214Y-3703786D01*
X1021786Y-3689500D01*
X1093214Y-3689500D01*
X1121786Y-3703786D01*
X1136071Y-3718071D01*
X1150357Y-3746643D01*
X1150357Y-3818071D01*
X1136071Y-3846643D01*
X1121786Y-3860929D01*
X1093214Y-3875214D01*
X1021786Y-3875214D01*
X993214Y-3860929D01*
X978928Y-3846643D01*
X1278928Y-3875214D02*
X1278928Y-3675214D01*
X1278928Y-3703786D02*
X1293214Y-3689500D01*
X1321786Y-3675214D01*
X1364643Y-3675214D01*
X1393214Y-3689500D01*
X1407500Y-3718071D01*
X1407500Y-3875214D01*
X1407500Y-3718071D02*
X1421786Y-3689500D01*
X1450357Y-3675214D01*
X1493214Y-3675214D01*
X1521786Y-3689500D01*
X1536071Y-3718071D01*
X1536071Y-3875214D01*
X1678928Y-3875214D02*
X1678928Y-3675214D01*
X1678928Y-3703786D02*
X1693214Y-3689500D01*
X1721786Y-3675214D01*
X1764643Y-3675214D01*
X1793214Y-3689500D01*
X1807500Y-3718071D01*
X1807500Y-3875214D01*
X1807500Y-3718071D02*
X1821786Y-3689500D01*
X1850357Y-3675214D01*
X1893214Y-3675214D01*
X1921786Y-3689500D01*
X1936071Y-3718071D01*
X1936071Y-3875214D01*
X2521786Y-3560929D02*
X2264643Y-3946643D01*
X2907500Y-3575214D02*
X2936071Y-3575214D01*
X2964643Y-3589500D01*
X2978928Y-3603786D01*
X2993214Y-3632357D01*
X3007500Y-3689500D01*
X3007500Y-3760929D01*
X2993214Y-3818071D01*
X2978928Y-3846643D01*
X2964643Y-3860929D01*
X2936071Y-3875214D01*
X2907500Y-3875214D01*
X2878928Y-3860929D01*
X2864643Y-3846643D01*
X2850357Y-3818071D01*
X2836071Y-3760929D01*
X2836071Y-3689500D01*
X2850357Y-3632357D01*
X2864643Y-3603786D01*
X2878928Y-3589500D01*
X2907500Y-3575214D01*
X3136071Y-3846643D02*
X3150357Y-3860929D01*
X3136071Y-3875214D01*
X3121786Y-3860929D01*
X3136071Y-3846643D01*
X3136071Y-3875214D01*
X3336071Y-3575214D02*
X3364643Y-3575214D01*
X3393214Y-3589500D01*
X3407500Y-3603786D01*
X3421786Y-3632357D01*
X3436071Y-3689500D01*
X3436071Y-3760929D01*
X3421786Y-3818071D01*
X3407500Y-3846643D01*
X3393214Y-3860929D01*
X3364643Y-3875214D01*
X3336071Y-3875214D01*
X3307500Y-3860929D01*
X3293214Y-3846643D01*
X3278928Y-3818071D01*
X3264643Y-3760929D01*
X3264643Y-3689500D01*
X3278928Y-3632357D01*
X3293214Y-3603786D01*
X3307500Y-3589500D01*
X3336071Y-3575214D01*
X3536071Y-3575214D02*
X3736071Y-3575214D01*
X3607500Y-3875214D01*
X3821786Y-3575214D02*
X4007500Y-3575214D01*
X3907500Y-3689500D01*
X3950357Y-3689500D01*
X3978928Y-3703786D01*
X3993214Y-3718071D01*
X4007500Y-3746643D01*
X4007500Y-3818071D01*
X3993214Y-3846643D01*
X3978928Y-3860929D01*
X3950357Y-3875214D01*
X3864643Y-3875214D01*
X3836071Y-3860929D01*
X3821786Y-3846643D01*
X4121786Y-3575214D02*
X4121786Y-3632357D01*
X4236071Y-3575214D02*
X4236071Y-3632357D01*
X4678928Y-3989500D02*
X4664643Y-3975214D01*
X4636071Y-3932357D01*
X4621786Y-3903786D01*
X4607500Y-3860929D01*
X4593214Y-3789500D01*
X4593214Y-3732357D01*
X4607500Y-3660929D01*
X4621786Y-3618071D01*
X4636071Y-3589500D01*
X4664643Y-3546643D01*
X4678928Y-3532357D01*
X4764643Y-3575214D02*
X4950357Y-3575214D01*
X4850357Y-3689500D01*
X4893214Y-3689500D01*
X4921786Y-3703786D01*
X4936071Y-3718071D01*
X4950357Y-3746643D01*
X4950357Y-3818071D01*
X4936071Y-3846643D01*
X4921786Y-3860929D01*
X4893214Y-3875214D01*
X4807500Y-3875214D01*
X4778928Y-3860929D01*
X4764643Y-3846643D01*
X5307500Y-3875214D02*
X5307500Y-3575214D01*
X5436071Y-3875214D02*
X5436071Y-3718071D01*
X5421786Y-3689500D01*
X5393214Y-3675214D01*
X5350357Y-3675214D01*
X5321786Y-3689500D01*
X5307500Y-3703786D01*
X5621786Y-3875214D02*
X5593214Y-3860929D01*
X5578928Y-3846643D01*
X5564643Y-3818071D01*
X5564643Y-3732357D01*
X5578928Y-3703786D01*
X5593214Y-3689500D01*
X5621786Y-3675214D01*
X5664643Y-3675214D01*
X5693214Y-3689500D01*
X5707500Y-3703786D01*
X5721786Y-3732357D01*
X5721786Y-3818071D01*
X5707500Y-3846643D01*
X5693214Y-3860929D01*
X5664643Y-3875214D01*
X5621786Y-3875214D01*
X5893214Y-3875214D02*
X5864643Y-3860929D01*
X5850357Y-3832357D01*
X5850357Y-3575214D01*
X6121786Y-3860929D02*
X6093214Y-3875214D01*
X6036071Y-3875214D01*
X6007500Y-3860929D01*
X5993214Y-3832357D01*
X5993214Y-3718071D01*
X6007500Y-3689500D01*
X6036071Y-3675214D01*
X6093214Y-3675214D01*
X6121786Y-3689500D01*
X6136071Y-3718071D01*
X6136071Y-3746643D01*
X5993214Y-3775214D01*
X6250357Y-3860929D02*
X6278928Y-3875214D01*
X6336071Y-3875214D01*
X6364643Y-3860929D01*
X6378928Y-3832357D01*
X6378928Y-3818071D01*
X6364643Y-3789500D01*
X6336071Y-3775214D01*
X6293214Y-3775214D01*
X6264643Y-3760929D01*
X6250357Y-3732357D01*
X6250357Y-3718071D01*
X6264643Y-3689500D01*
X6293214Y-3675214D01*
X6336071Y-3675214D01*
X6364643Y-3689500D01*
X6478928Y-3989500D02*
X6493214Y-3975214D01*
X6521786Y-3932357D01*
X6536071Y-3903786D01*
X6550357Y-3860929D01*
X6564643Y-3789500D01*
X6564643Y-3732357D01*
X6550357Y-3660929D01*
X6536071Y-3618071D01*
X6521786Y-3589500D01*
X6493214Y-3546643D01*
X6478928Y-3532357D01*
X-325000Y-3976750D02*
X-7500Y-4294250D01*
X-7500Y-3976750D02*
X-325000Y-4294250D01*
X-166250Y-4294250D02*
X-7500Y-4135500D01*
X-166250Y-3976750D01*
X-325000Y-4135500D01*
X-166250Y-4294250D01*
X250357Y-3971214D02*
X436071Y-3971214D01*
X336071Y-4085500D01*
X378928Y-4085500D01*
X407500Y-4099786D01*
X421786Y-4114071D01*
X436071Y-4142643D01*
X436071Y-4214072D01*
X421786Y-4242643D01*
X407500Y-4256929D01*
X378928Y-4271214D01*
X293214Y-4271214D01*
X264643Y-4256929D01*
X250357Y-4242643D01*
X564643Y-4242643D02*
X578928Y-4256929D01*
X564643Y-4271214D01*
X550357Y-4256929D01*
X564643Y-4242643D01*
X564643Y-4271214D01*
X864643Y-4271214D02*
X693214Y-4271214D01*
X778928Y-4271214D02*
X778928Y-3971214D01*
X750357Y-4014071D01*
X721786Y-4042643D01*
X693214Y-4056929D01*
X964643Y-3971214D02*
X1164643Y-3971214D01*
X1036071Y-4271214D01*
X1278928Y-4271214D02*
X1278928Y-4071214D01*
X1278928Y-4099786D02*
X1293214Y-4085500D01*
X1321786Y-4071214D01*
X1364643Y-4071214D01*
X1393214Y-4085500D01*
X1407500Y-4114071D01*
X1407500Y-4271214D01*
X1407500Y-4114071D02*
X1421786Y-4085500D01*
X1450357Y-4071214D01*
X1493214Y-4071214D01*
X1521786Y-4085500D01*
X1536071Y-4114071D01*
X1536071Y-4271214D01*
X1678928Y-4271214D02*
X1678928Y-4071214D01*
X1678928Y-4099786D02*
X1693214Y-4085500D01*
X1721786Y-4071214D01*
X1764643Y-4071214D01*
X1793214Y-4085500D01*
X1807500Y-4114071D01*
X1807500Y-4271214D01*
X1807500Y-4114071D02*
X1821786Y-4085500D01*
X1850357Y-4071214D01*
X1893214Y-4071214D01*
X1921786Y-4085500D01*
X1936071Y-4114071D01*
X1936071Y-4271214D01*
X2521786Y-3956929D02*
X2264643Y-4342643D01*
X2907500Y-3971214D02*
X2936071Y-3971214D01*
X2964643Y-3985500D01*
X2978928Y-3999786D01*
X2993214Y-4028357D01*
X3007500Y-4085500D01*
X3007500Y-4156929D01*
X2993214Y-4214072D01*
X2978928Y-4242643D01*
X2964643Y-4256929D01*
X2936071Y-4271214D01*
X2907500Y-4271214D01*
X2878928Y-4256929D01*
X2864643Y-4242643D01*
X2850357Y-4214072D01*
X2836071Y-4156929D01*
X2836071Y-4085500D01*
X2850357Y-4028357D01*
X2864643Y-3999786D01*
X2878928Y-3985500D01*
X2907500Y-3971214D01*
X3136071Y-4242643D02*
X3150357Y-4256929D01*
X3136071Y-4271214D01*
X3121786Y-4256929D01*
X3136071Y-4242643D01*
X3136071Y-4271214D01*
X3436071Y-4271214D02*
X3264643Y-4271214D01*
X3350357Y-4271214D02*
X3350357Y-3971214D01*
X3321786Y-4014071D01*
X3293214Y-4042643D01*
X3264643Y-4056929D01*
X3550357Y-3999786D02*
X3564643Y-3985500D01*
X3593214Y-3971214D01*
X3664643Y-3971214D01*
X3693214Y-3985500D01*
X3707500Y-3999786D01*
X3721786Y-4028357D01*
X3721786Y-4056929D01*
X3707500Y-4099786D01*
X3536071Y-4271214D01*
X3721786Y-4271214D01*
X3993214Y-3971214D02*
X3850357Y-3971214D01*
X3836071Y-4114071D01*
X3850357Y-4099786D01*
X3878928Y-4085500D01*
X3950357Y-4085500D01*
X3978928Y-4099786D01*
X3993214Y-4114071D01*
X4007500Y-4142643D01*
X4007500Y-4214072D01*
X3993214Y-4242643D01*
X3978928Y-4256929D01*
X3950357Y-4271214D01*
X3878928Y-4271214D01*
X3850357Y-4256929D01*
X3836071Y-4242643D01*
X4121786Y-3971214D02*
X4121786Y-4028357D01*
X4236071Y-3971214D02*
X4236071Y-4028357D01*
X4678928Y-4385500D02*
X4664643Y-4371214D01*
X4636071Y-4328357D01*
X4621786Y-4299786D01*
X4607500Y-4256929D01*
X4593214Y-4185500D01*
X4593214Y-4128357D01*
X4607500Y-4056929D01*
X4621786Y-4014071D01*
X4636071Y-3985500D01*
X4664643Y-3942643D01*
X4678928Y-3928357D01*
X4921786Y-4071214D02*
X4921786Y-4271214D01*
X4850357Y-3956929D02*
X4778928Y-4171214D01*
X4964643Y-4171214D01*
X5307500Y-4271214D02*
X5307500Y-3971214D01*
X5436071Y-4271214D02*
X5436071Y-4114071D01*
X5421786Y-4085500D01*
X5393214Y-4071214D01*
X5350357Y-4071214D01*
X5321786Y-4085500D01*
X5307500Y-4099786D01*
X5621786Y-4271214D02*
X5593214Y-4256929D01*
X5578928Y-4242643D01*
X5564643Y-4214072D01*
X5564643Y-4128357D01*
X5578928Y-4099786D01*
X5593214Y-4085500D01*
X5621786Y-4071214D01*
X5664643Y-4071214D01*
X5693214Y-4085500D01*
X5707500Y-4099786D01*
X5721786Y-4128357D01*
X5721786Y-4214072D01*
X5707500Y-4242643D01*
X5693214Y-4256929D01*
X5664643Y-4271214D01*
X5621786Y-4271214D01*
X5893214Y-4271214D02*
X5864643Y-4256929D01*
X5850357Y-4228357D01*
X5850357Y-3971214D01*
X6121786Y-4256929D02*
X6093214Y-4271214D01*
X6036071Y-4271214D01*
X6007500Y-4256929D01*
X5993214Y-4228357D01*
X5993214Y-4114071D01*
X6007500Y-4085500D01*
X6036071Y-4071214D01*
X6093214Y-4071214D01*
X6121786Y-4085500D01*
X6136071Y-4114071D01*
X6136071Y-4142643D01*
X5993214Y-4171214D01*
X6250357Y-4256929D02*
X6278928Y-4271214D01*
X6336071Y-4271214D01*
X6364643Y-4256929D01*
X6378928Y-4228357D01*
X6378928Y-4214072D01*
X6364643Y-4185500D01*
X6336071Y-4171214D01*
X6293214Y-4171214D01*
X6264643Y-4156929D01*
X6250357Y-4128357D01*
X6250357Y-4114071D01*
X6264643Y-4085500D01*
X6293214Y-4071214D01*
X6336071Y-4071214D01*
X6364643Y-4085500D01*
X6478928Y-4385500D02*
X6493214Y-4371214D01*
X6521786Y-4328357D01*
X6536071Y-4299786D01*
X6550357Y-4256929D01*
X6564643Y-4185500D01*
X6564643Y-4128357D01*
X6550357Y-4056929D01*
X6536071Y-4014071D01*
X6521786Y-3985500D01*
X6493214Y-3942643D01*
X6478928Y-3928357D01*
X-90050Y-4500450D02*
X-90050Y-4665550D01*
X-172600Y-4583000D02*
X-7500Y-4583000D01*
X-7500Y-4583000D02*
G75*
G03X-7500Y-4583000I-82550J0D01*
G01*
X436071Y-4718714D02*
X264643Y-4718714D01*
X350357Y-4718714D02*
X350357Y-4418714D01*
X321786Y-4461572D01*
X293214Y-4490143D01*
X264643Y-4504429D01*
X564643Y-4690143D02*
X578928Y-4704429D01*
X564643Y-4718714D01*
X550357Y-4704429D01*
X564643Y-4690143D01*
X564643Y-4718714D01*
X836071Y-4418714D02*
X778928Y-4418714D01*
X750357Y-4433000D01*
X736071Y-4447286D01*
X707500Y-4490143D01*
X693214Y-4547286D01*
X693214Y-4661572D01*
X707500Y-4690143D01*
X721786Y-4704429D01*
X750357Y-4718714D01*
X807500Y-4718714D01*
X836071Y-4704429D01*
X850357Y-4690143D01*
X864643Y-4661572D01*
X864643Y-4590143D01*
X850357Y-4561572D01*
X836071Y-4547286D01*
X807500Y-4533000D01*
X750357Y-4533000D01*
X721786Y-4547286D01*
X707500Y-4561572D01*
X693214Y-4590143D01*
X1136071Y-4418714D02*
X993214Y-4418714D01*
X978928Y-4561572D01*
X993214Y-4547286D01*
X1021786Y-4533000D01*
X1093214Y-4533000D01*
X1121786Y-4547286D01*
X1136071Y-4561572D01*
X1150357Y-4590143D01*
X1150357Y-4661572D01*
X1136071Y-4690143D01*
X1121786Y-4704429D01*
X1093214Y-4718714D01*
X1021786Y-4718714D01*
X993214Y-4704429D01*
X978928Y-4690143D01*
X1278928Y-4718714D02*
X1278928Y-4518714D01*
X1278928Y-4547286D02*
X1293214Y-4533000D01*
X1321786Y-4518714D01*
X1364643Y-4518714D01*
X1393214Y-4533000D01*
X1407500Y-4561572D01*
X1407500Y-4718714D01*
X1407500Y-4561572D02*
X1421786Y-4533000D01*
X1450357Y-4518714D01*
X1493214Y-4518714D01*
X1521786Y-4533000D01*
X1536071Y-4561572D01*
X1536071Y-4718714D01*
X1678928Y-4718714D02*
X1678928Y-4518714D01*
X1678928Y-4547286D02*
X1693214Y-4533000D01*
X1721786Y-4518714D01*
X1764643Y-4518714D01*
X1793214Y-4533000D01*
X1807500Y-4561572D01*
X1807500Y-4718714D01*
X1807500Y-4561572D02*
X1821786Y-4533000D01*
X1850357Y-4518714D01*
X1893214Y-4518714D01*
X1921786Y-4533000D01*
X1936071Y-4561572D01*
X1936071Y-4718714D01*
X2521786Y-4404429D02*
X2264643Y-4790143D01*
X2907500Y-4418714D02*
X2936071Y-4418714D01*
X2964643Y-4433000D01*
X2978928Y-4447286D01*
X2993214Y-4475857D01*
X3007500Y-4533000D01*
X3007500Y-4604429D01*
X2993214Y-4661572D01*
X2978928Y-4690143D01*
X2964643Y-4704429D01*
X2936071Y-4718714D01*
X2907500Y-4718714D01*
X2878928Y-4704429D01*
X2864643Y-4690143D01*
X2850357Y-4661572D01*
X2836071Y-4604429D01*
X2836071Y-4533000D01*
X2850357Y-4475857D01*
X2864643Y-4447286D01*
X2878928Y-4433000D01*
X2907500Y-4418714D01*
X3136071Y-4690143D02*
X3150357Y-4704429D01*
X3136071Y-4718714D01*
X3121786Y-4704429D01*
X3136071Y-4690143D01*
X3136071Y-4718714D01*
X3336071Y-4418714D02*
X3364643Y-4418714D01*
X3393214Y-4433000D01*
X3407500Y-4447286D01*
X3421786Y-4475857D01*
X3436071Y-4533000D01*
X3436071Y-4604429D01*
X3421786Y-4661572D01*
X3407500Y-4690143D01*
X3393214Y-4704429D01*
X3364643Y-4718714D01*
X3336071Y-4718714D01*
X3307500Y-4704429D01*
X3293214Y-4690143D01*
X3278928Y-4661572D01*
X3264643Y-4604429D01*
X3264643Y-4533000D01*
X3278928Y-4475857D01*
X3293214Y-4447286D01*
X3307500Y-4433000D01*
X3336071Y-4418714D01*
X3693214Y-4418714D02*
X3636071Y-4418714D01*
X3607500Y-4433000D01*
X3593214Y-4447286D01*
X3564643Y-4490143D01*
X3550357Y-4547286D01*
X3550357Y-4661572D01*
X3564643Y-4690143D01*
X3578928Y-4704429D01*
X3607500Y-4718714D01*
X3664643Y-4718714D01*
X3693214Y-4704429D01*
X3707500Y-4690143D01*
X3721786Y-4661572D01*
X3721786Y-4590143D01*
X3707500Y-4561572D01*
X3693214Y-4547286D01*
X3664643Y-4533000D01*
X3607500Y-4533000D01*
X3578928Y-4547286D01*
X3564643Y-4561572D01*
X3550357Y-4590143D01*
X3993214Y-4418714D02*
X3850357Y-4418714D01*
X3836071Y-4561572D01*
X3850357Y-4547286D01*
X3878928Y-4533000D01*
X3950357Y-4533000D01*
X3978928Y-4547286D01*
X3993214Y-4561572D01*
X4007500Y-4590143D01*
X4007500Y-4661572D01*
X3993214Y-4690143D01*
X3978928Y-4704429D01*
X3950357Y-4718714D01*
X3878928Y-4718714D01*
X3850357Y-4704429D01*
X3836071Y-4690143D01*
X4121786Y-4418714D02*
X4121786Y-4475857D01*
X4236071Y-4418714D02*
X4236071Y-4475857D01*
X4678928Y-4833000D02*
X4664643Y-4818714D01*
X4636071Y-4775857D01*
X4621786Y-4747286D01*
X4607500Y-4704429D01*
X4593214Y-4633000D01*
X4593214Y-4575857D01*
X4607500Y-4504429D01*
X4621786Y-4461572D01*
X4636071Y-4433000D01*
X4664643Y-4390143D01*
X4678928Y-4375857D01*
X4778928Y-4447286D02*
X4793214Y-4433000D01*
X4821786Y-4418714D01*
X4893214Y-4418714D01*
X4921786Y-4433000D01*
X4936071Y-4447286D01*
X4950357Y-4475857D01*
X4950357Y-4504429D01*
X4936071Y-4547286D01*
X4764643Y-4718714D01*
X4950357Y-4718714D01*
X5307500Y-4718714D02*
X5307500Y-4418714D01*
X5436071Y-4718714D02*
X5436071Y-4561572D01*
X5421786Y-4533000D01*
X5393214Y-4518714D01*
X5350357Y-4518714D01*
X5321786Y-4533000D01*
X5307500Y-4547286D01*
X5621786Y-4718714D02*
X5593214Y-4704429D01*
X5578928Y-4690143D01*
X5564643Y-4661572D01*
X5564643Y-4575857D01*
X5578928Y-4547286D01*
X5593214Y-4533000D01*
X5621786Y-4518714D01*
X5664643Y-4518714D01*
X5693214Y-4533000D01*
X5707500Y-4547286D01*
X5721786Y-4575857D01*
X5721786Y-4661572D01*
X5707500Y-4690143D01*
X5693214Y-4704429D01*
X5664643Y-4718714D01*
X5621786Y-4718714D01*
X5893214Y-4718714D02*
X5864643Y-4704429D01*
X5850357Y-4675857D01*
X5850357Y-4418714D01*
X6121786Y-4704429D02*
X6093214Y-4718714D01*
X6036071Y-4718714D01*
X6007500Y-4704429D01*
X5993214Y-4675857D01*
X5993214Y-4561572D01*
X6007500Y-4533000D01*
X6036071Y-4518714D01*
X6093214Y-4518714D01*
X6121786Y-4533000D01*
X6136071Y-4561572D01*
X6136071Y-4590143D01*
X5993214Y-4618714D01*
X6250357Y-4704429D02*
X6278928Y-4718714D01*
X6336071Y-4718714D01*
X6364643Y-4704429D01*
X6378928Y-4675857D01*
X6378928Y-4661572D01*
X6364643Y-4633000D01*
X6336071Y-4618714D01*
X6293214Y-4618714D01*
X6264643Y-4604429D01*
X6250357Y-4575857D01*
X6250357Y-4561572D01*
X6264643Y-4533000D01*
X6293214Y-4518714D01*
X6336071Y-4518714D01*
X6364643Y-4533000D01*
X6478928Y-4833000D02*
X6493214Y-4818714D01*
X6521786Y-4775857D01*
X6536071Y-4747286D01*
X6550357Y-4704429D01*
X6564643Y-4633000D01*
X6564643Y-4575857D01*
X6550357Y-4504429D01*
X6536071Y-4461572D01*
X6521786Y-4433000D01*
X6493214Y-4390143D01*
X6478928Y-4375857D01*
X7021786Y-4833000D02*
X7007500Y-4818714D01*
X6978928Y-4775857D01*
X6964643Y-4747286D01*
X6950357Y-4704429D01*
X6936071Y-4633000D01*
X6936071Y-4575857D01*
X6950357Y-4504429D01*
X6964643Y-4461572D01*
X6978928Y-4433000D01*
X7007500Y-4390143D01*
X7021786Y-4375857D01*
X7136071Y-4518714D02*
X7136071Y-4718714D01*
X7136071Y-4547286D02*
X7150357Y-4533000D01*
X7178928Y-4518714D01*
X7221786Y-4518714D01*
X7250357Y-4533000D01*
X7264643Y-4561572D01*
X7264643Y-4718714D01*
X7450357Y-4718714D02*
X7421786Y-4704429D01*
X7407500Y-4690143D01*
X7393214Y-4661572D01*
X7393214Y-4575857D01*
X7407500Y-4547286D01*
X7421786Y-4533000D01*
X7450357Y-4518714D01*
X7493214Y-4518714D01*
X7521786Y-4533000D01*
X7536071Y-4547286D01*
X7550357Y-4575857D01*
X7550357Y-4661572D01*
X7536071Y-4690143D01*
X7521786Y-4704429D01*
X7493214Y-4718714D01*
X7450357Y-4718714D01*
X7636071Y-4518714D02*
X7750357Y-4518714D01*
X7678928Y-4418714D02*
X7678928Y-4675857D01*
X7693214Y-4704429D01*
X7721786Y-4718714D01*
X7750357Y-4718714D01*
X8078928Y-4518714D02*
X8078928Y-4818714D01*
X8078928Y-4533000D02*
X8107500Y-4518714D01*
X8164643Y-4518714D01*
X8193214Y-4533000D01*
X8207500Y-4547286D01*
X8221786Y-4575857D01*
X8221786Y-4661572D01*
X8207500Y-4690143D01*
X8193214Y-4704429D01*
X8164643Y-4718714D01*
X8107500Y-4718714D01*
X8078928Y-4704429D01*
X8393214Y-4718714D02*
X8364643Y-4704429D01*
X8350357Y-4675857D01*
X8350357Y-4418714D01*
X8636071Y-4718714D02*
X8636071Y-4561572D01*
X8621786Y-4533000D01*
X8593214Y-4518714D01*
X8536071Y-4518714D01*
X8507500Y-4533000D01*
X8636071Y-4704429D02*
X8607500Y-4718714D01*
X8536071Y-4718714D01*
X8507500Y-4704429D01*
X8493214Y-4675857D01*
X8493214Y-4647286D01*
X8507500Y-4618714D01*
X8536071Y-4604429D01*
X8607500Y-4604429D01*
X8636071Y-4590143D01*
X8736071Y-4518714D02*
X8850357Y-4518714D01*
X8778928Y-4418714D02*
X8778928Y-4675857D01*
X8793214Y-4704429D01*
X8821786Y-4718714D01*
X8850357Y-4718714D01*
X9064643Y-4704429D02*
X9036071Y-4718714D01*
X8978928Y-4718714D01*
X8950357Y-4704429D01*
X8936071Y-4675857D01*
X8936071Y-4561572D01*
X8950357Y-4533000D01*
X8978928Y-4518714D01*
X9036071Y-4518714D01*
X9064643Y-4533000D01*
X9078928Y-4561572D01*
X9078928Y-4590143D01*
X8936071Y-4618714D01*
X9336071Y-4718714D02*
X9336071Y-4418714D01*
X9336071Y-4704429D02*
X9307500Y-4718714D01*
X9250357Y-4718714D01*
X9221786Y-4704429D01*
X9207500Y-4690143D01*
X9193214Y-4661572D01*
X9193214Y-4575857D01*
X9207500Y-4547286D01*
X9221786Y-4533000D01*
X9250357Y-4518714D01*
X9307500Y-4518714D01*
X9336071Y-4533000D01*
X9450357Y-4833000D02*
X9464643Y-4818714D01*
X9493214Y-4775857D01*
X9507500Y-4747286D01*
X9521786Y-4704429D01*
X9536071Y-4633000D01*
X9536071Y-4575857D01*
X9521786Y-4504429D01*
X9507500Y-4461572D01*
X9493214Y-4433000D01*
X9464643Y-4390143D01*
X9450357Y-4375857D01*
X-33860Y-5042640D02*
X-33860Y-4915360D01*
X-161140Y-4915360D01*
X-161140Y-5042640D01*
X-33860Y-5042640D01*
X-7500Y-4979000D02*
G75*
G03X-7500Y-4979000I-90000J0D01*
G01*
X436071Y-5114714D02*
X264643Y-5114714D01*
X350357Y-5114714D02*
X350357Y-4814714D01*
X321786Y-4857572D01*
X293214Y-4886143D01*
X264643Y-4900429D01*
X564643Y-5086143D02*
X578928Y-5100429D01*
X564643Y-5114714D01*
X550357Y-5100429D01*
X564643Y-5086143D01*
X564643Y-5114714D01*
X750357Y-4943286D02*
X721786Y-4929000D01*
X707500Y-4914714D01*
X693214Y-4886143D01*
X693214Y-4871857D01*
X707500Y-4843286D01*
X721786Y-4829000D01*
X750357Y-4814714D01*
X807500Y-4814714D01*
X836071Y-4829000D01*
X850357Y-4843286D01*
X864643Y-4871857D01*
X864643Y-4886143D01*
X850357Y-4914714D01*
X836071Y-4929000D01*
X807500Y-4943286D01*
X750357Y-4943286D01*
X721786Y-4957572D01*
X707500Y-4971857D01*
X693214Y-5000429D01*
X693214Y-5057572D01*
X707500Y-5086143D01*
X721786Y-5100429D01*
X750357Y-5114714D01*
X807500Y-5114714D01*
X836071Y-5100429D01*
X850357Y-5086143D01*
X864643Y-5057572D01*
X864643Y-5000429D01*
X850357Y-4971857D01*
X836071Y-4957572D01*
X807500Y-4943286D01*
X1050357Y-4814714D02*
X1078928Y-4814714D01*
X1107500Y-4829000D01*
X1121786Y-4843286D01*
X1136071Y-4871857D01*
X1150357Y-4929000D01*
X1150357Y-5000429D01*
X1136071Y-5057572D01*
X1121786Y-5086143D01*
X1107500Y-5100429D01*
X1078928Y-5114714D01*
X1050357Y-5114714D01*
X1021786Y-5100429D01*
X1007500Y-5086143D01*
X993214Y-5057572D01*
X978928Y-5000429D01*
X978928Y-4929000D01*
X993214Y-4871857D01*
X1007500Y-4843286D01*
X1021786Y-4829000D01*
X1050357Y-4814714D01*
X1278928Y-5114714D02*
X1278928Y-4914714D01*
X1278928Y-4943286D02*
X1293214Y-4929000D01*
X1321786Y-4914714D01*
X1364643Y-4914714D01*
X1393214Y-4929000D01*
X1407500Y-4957572D01*
X1407500Y-5114714D01*
X1407500Y-4957572D02*
X1421786Y-4929000D01*
X1450357Y-4914714D01*
X1493214Y-4914714D01*
X1521786Y-4929000D01*
X1536071Y-4957572D01*
X1536071Y-5114714D01*
X1678928Y-5114714D02*
X1678928Y-4914714D01*
X1678928Y-4943286D02*
X1693214Y-4929000D01*
X1721786Y-4914714D01*
X1764643Y-4914714D01*
X1793214Y-4929000D01*
X1807500Y-4957572D01*
X1807500Y-5114714D01*
X1807500Y-4957572D02*
X1821786Y-4929000D01*
X1850357Y-4914714D01*
X1893214Y-4914714D01*
X1921786Y-4929000D01*
X1936071Y-4957572D01*
X1936071Y-5114714D01*
X2521786Y-4800429D02*
X2264643Y-5186143D01*
X2907500Y-4814714D02*
X2936071Y-4814714D01*
X2964643Y-4829000D01*
X2978928Y-4843286D01*
X2993214Y-4871857D01*
X3007500Y-4929000D01*
X3007500Y-5000429D01*
X2993214Y-5057572D01*
X2978928Y-5086143D01*
X2964643Y-5100429D01*
X2936071Y-5114714D01*
X2907500Y-5114714D01*
X2878928Y-5100429D01*
X2864643Y-5086143D01*
X2850357Y-5057572D01*
X2836071Y-5000429D01*
X2836071Y-4929000D01*
X2850357Y-4871857D01*
X2864643Y-4843286D01*
X2878928Y-4829000D01*
X2907500Y-4814714D01*
X3136071Y-5086143D02*
X3150357Y-5100429D01*
X3136071Y-5114714D01*
X3121786Y-5100429D01*
X3136071Y-5086143D01*
X3136071Y-5114714D01*
X3336071Y-4814714D02*
X3364643Y-4814714D01*
X3393214Y-4829000D01*
X3407500Y-4843286D01*
X3421786Y-4871857D01*
X3436071Y-4929000D01*
X3436071Y-5000429D01*
X3421786Y-5057572D01*
X3407500Y-5086143D01*
X3393214Y-5100429D01*
X3364643Y-5114714D01*
X3336071Y-5114714D01*
X3307500Y-5100429D01*
X3293214Y-5086143D01*
X3278928Y-5057572D01*
X3264643Y-5000429D01*
X3264643Y-4929000D01*
X3278928Y-4871857D01*
X3293214Y-4843286D01*
X3307500Y-4829000D01*
X3336071Y-4814714D01*
X3536071Y-4814714D02*
X3736071Y-4814714D01*
X3607500Y-5114714D01*
X4007500Y-5114714D02*
X3836071Y-5114714D01*
X3921786Y-5114714D02*
X3921786Y-4814714D01*
X3893214Y-4857572D01*
X3864643Y-4886143D01*
X3836071Y-4900429D01*
X4121786Y-4814714D02*
X4121786Y-4871857D01*
X4236071Y-4814714D02*
X4236071Y-4871857D01*
X4678928Y-5229000D02*
X4664643Y-5214714D01*
X4636071Y-5171857D01*
X4621786Y-5143286D01*
X4607500Y-5100429D01*
X4593214Y-5029000D01*
X4593214Y-4971857D01*
X4607500Y-4900429D01*
X4621786Y-4857572D01*
X4636071Y-4829000D01*
X4664643Y-4786143D01*
X4678928Y-4771857D01*
X4950357Y-5114714D02*
X4778928Y-5114714D01*
X4864643Y-5114714D02*
X4864643Y-4814714D01*
X4836071Y-4857572D01*
X4807500Y-4886143D01*
X4778928Y-4900429D01*
X5307500Y-5114714D02*
X5307500Y-4814714D01*
X5436071Y-5114714D02*
X5436071Y-4957572D01*
X5421786Y-4929000D01*
X5393214Y-4914714D01*
X5350357Y-4914714D01*
X5321786Y-4929000D01*
X5307500Y-4943286D01*
X5621786Y-5114714D02*
X5593214Y-5100429D01*
X5578928Y-5086143D01*
X5564643Y-5057572D01*
X5564643Y-4971857D01*
X5578928Y-4943286D01*
X5593214Y-4929000D01*
X5621786Y-4914714D01*
X5664643Y-4914714D01*
X5693214Y-4929000D01*
X5707500Y-4943286D01*
X5721786Y-4971857D01*
X5721786Y-5057572D01*
X5707500Y-5086143D01*
X5693214Y-5100429D01*
X5664643Y-5114714D01*
X5621786Y-5114714D01*
X5893214Y-5114714D02*
X5864643Y-5100429D01*
X5850357Y-5071857D01*
X5850357Y-4814714D01*
X6121786Y-5100429D02*
X6093214Y-5114714D01*
X6036071Y-5114714D01*
X6007500Y-5100429D01*
X5993214Y-5071857D01*
X5993214Y-4957572D01*
X6007500Y-4929000D01*
X6036071Y-4914714D01*
X6093214Y-4914714D01*
X6121786Y-4929000D01*
X6136071Y-4957572D01*
X6136071Y-4986143D01*
X5993214Y-5014714D01*
X6236071Y-5229000D02*
X6250357Y-5214714D01*
X6278928Y-5171857D01*
X6293214Y-5143286D01*
X6307500Y-5100429D01*
X6321786Y-5029000D01*
X6321786Y-4971857D01*
X6307500Y-4900429D01*
X6293214Y-4857572D01*
X6278928Y-4829000D01*
X6250357Y-4786143D01*
X6236071Y-4771857D01*
X6778928Y-5229000D02*
X6764643Y-5214714D01*
X6736071Y-5171857D01*
X6721786Y-5143286D01*
X6707500Y-5100429D01*
X6693214Y-5029000D01*
X6693214Y-4971857D01*
X6707500Y-4900429D01*
X6721786Y-4857572D01*
X6736071Y-4829000D01*
X6764643Y-4786143D01*
X6778928Y-4771857D01*
X6893214Y-4914714D02*
X6893214Y-5114714D01*
X6893214Y-4943286D02*
X6907500Y-4929000D01*
X6936071Y-4914714D01*
X6978928Y-4914714D01*
X7007500Y-4929000D01*
X7021786Y-4957572D01*
X7021786Y-5114714D01*
X7207500Y-5114714D02*
X7178928Y-5100429D01*
X7164643Y-5086143D01*
X7150357Y-5057572D01*
X7150357Y-4971857D01*
X7164643Y-4943286D01*
X7178928Y-4929000D01*
X7207500Y-4914714D01*
X7250357Y-4914714D01*
X7278928Y-4929000D01*
X7293214Y-4943286D01*
X7307500Y-4971857D01*
X7307500Y-5057572D01*
X7293214Y-5086143D01*
X7278928Y-5100429D01*
X7250357Y-5114714D01*
X7207500Y-5114714D01*
X7393214Y-4914714D02*
X7507500Y-4914714D01*
X7436071Y-4814714D02*
X7436071Y-5071857D01*
X7450357Y-5100429D01*
X7478928Y-5114714D01*
X7507500Y-5114714D01*
X7836071Y-4914714D02*
X7836071Y-5214714D01*
X7836071Y-4929000D02*
X7864643Y-4914714D01*
X7921786Y-4914714D01*
X7950357Y-4929000D01*
X7964643Y-4943286D01*
X7978928Y-4971857D01*
X7978928Y-5057572D01*
X7964643Y-5086143D01*
X7950357Y-5100429D01*
X7921786Y-5114714D01*
X7864643Y-5114714D01*
X7836071Y-5100429D01*
X8150357Y-5114714D02*
X8121786Y-5100429D01*
X8107500Y-5071857D01*
X8107500Y-4814714D01*
X8393214Y-5114714D02*
X8393214Y-4957572D01*
X8378928Y-4929000D01*
X8350357Y-4914714D01*
X8293214Y-4914714D01*
X8264643Y-4929000D01*
X8393214Y-5100429D02*
X8364643Y-5114714D01*
X8293214Y-5114714D01*
X8264643Y-5100429D01*
X8250357Y-5071857D01*
X8250357Y-5043286D01*
X8264643Y-5014714D01*
X8293214Y-5000429D01*
X8364643Y-5000429D01*
X8393214Y-4986143D01*
X8493214Y-4914714D02*
X8607500Y-4914714D01*
X8536071Y-4814714D02*
X8536071Y-5071857D01*
X8550357Y-5100429D01*
X8578928Y-5114714D01*
X8607500Y-5114714D01*
X8821786Y-5100429D02*
X8793214Y-5114714D01*
X8736071Y-5114714D01*
X8707500Y-5100429D01*
X8693214Y-5071857D01*
X8693214Y-4957572D01*
X8707500Y-4929000D01*
X8736071Y-4914714D01*
X8793214Y-4914714D01*
X8821786Y-4929000D01*
X8836071Y-4957572D01*
X8836071Y-4986143D01*
X8693214Y-5014714D01*
X9093214Y-5114714D02*
X9093214Y-4814714D01*
X9093214Y-5100429D02*
X9064643Y-5114714D01*
X9007500Y-5114714D01*
X8978928Y-5100429D01*
X8964643Y-5086143D01*
X8950357Y-5057572D01*
X8950357Y-4971857D01*
X8964643Y-4943286D01*
X8978928Y-4929000D01*
X9007500Y-4914714D01*
X9064643Y-4914714D01*
X9093214Y-4929000D01*
X9207500Y-5229000D02*
X9221786Y-5214714D01*
X9250357Y-5171857D01*
X9264643Y-5143286D01*
X9278928Y-5100429D01*
X9293214Y-5029000D01*
X9293214Y-4971857D01*
X9278928Y-4900429D01*
X9264643Y-4857572D01*
X9250357Y-4829000D01*
X9221786Y-4786143D01*
X9207500Y-4771857D01*
M02*
