%TF.GenerationSoftware,KiCad,Pcbnew,(5.1.4-0-10_14)*%
%TF.CreationDate,2020-04-13T14:17:21-07:00*%
%TF.ProjectId,8051dumper,38303531-6475-46d7-9065-722e6b696361,1*%
%TF.SameCoordinates,PX60e4b00PYc1c9600*%
%TF.FileFunction,Copper,L4,Bot*%
%TF.FilePolarity,Positive*%
%FSLAX46Y46*%
G04 Gerber Fmt 4.6, Leading zero omitted, Abs format (unit mm)*
G04 Created by KiCad (PCBNEW (5.1.4-0-10_14)) date 2020-04-13 14:17:21*
%MOMM*%
%LPD*%
G04 APERTURE LIST*
%TA.AperFunction,ComponentPad*%
%ADD10O,1.600000X1.600000*%
%TD*%
%TA.AperFunction,ComponentPad*%
%ADD11C,1.600000*%
%TD*%
%TA.AperFunction,ComponentPad*%
%ADD12C,1.800000*%
%TD*%
%TA.AperFunction,ComponentPad*%
%ADD13R,1.800000X1.800000*%
%TD*%
%TA.AperFunction,ComponentPad*%
%ADD14R,1.600000X1.600000*%
%TD*%
%TA.AperFunction,ComponentPad*%
%ADD15O,2.921000X3.708400*%
%TD*%
%TA.AperFunction,Conductor*%
%ADD16C,0.152400*%
%TD*%
%TA.AperFunction,ComponentPad*%
%ADD17C,2.921000*%
%TD*%
%TA.AperFunction,ComponentPad*%
%ADD18R,1.700000X1.700000*%
%TD*%
%TA.AperFunction,ComponentPad*%
%ADD19O,1.700000X1.700000*%
%TD*%
%TA.AperFunction,ComponentPad*%
%ADD20O,4.000000X2.000000*%
%TD*%
%TA.AperFunction,ComponentPad*%
%ADD21O,2.000000X4.000000*%
%TD*%
%TA.AperFunction,ComponentPad*%
%ADD22O,2.000000X4.500000*%
%TD*%
%TA.AperFunction,ComponentPad*%
%ADD23C,6.350000*%
%TD*%
%TA.AperFunction,ComponentPad*%
%ADD24O,1.600200X1.600200*%
%TD*%
%TA.AperFunction,ComponentPad*%
%ADD25R,1.600200X1.600200*%
%TD*%
%TA.AperFunction,ComponentPad*%
%ADD26C,2.032000*%
%TD*%
%TA.AperFunction,ComponentPad*%
%ADD27C,1.905000*%
%TD*%
%TA.AperFunction,ComponentPad*%
%ADD28R,1.500000X1.500000*%
%TD*%
%TA.AperFunction,ComponentPad*%
%ADD29C,1.500000*%
%TD*%
%TA.AperFunction,ViaPad*%
%ADD30C,0.508000*%
%TD*%
G04 APERTURE END LIST*
D10*
%TO.P,R14,2*%
%TO.N,Net-(D1-Pad2)*%
X21590000Y40894000D03*
D11*
%TO.P,R14,1*%
%TO.N,+5V*%
X11430000Y40894000D03*
%TD*%
D12*
%TO.P,D1,2*%
%TO.N,Net-(D1-Pad2)*%
X21590000Y49530000D03*
D13*
%TO.P,D1,1*%
%TO.N,GND*%
X24130000Y49530000D03*
%TD*%
D10*
%TO.P,R13,2*%
%TO.N,~S4*%
X13335000Y27940000D03*
D11*
%TO.P,R13,1*%
%TO.N,+5V*%
X13335000Y38100000D03*
%TD*%
D10*
%TO.P,R12,2*%
%TO.N,~S3*%
X16510000Y27940000D03*
D11*
%TO.P,R12,1*%
%TO.N,+5V*%
X16510000Y38100000D03*
%TD*%
D10*
%TO.P,R11,2*%
%TO.N,~S2*%
X19685000Y27940000D03*
D11*
%TO.P,R11,1*%
%TO.N,+5V*%
X19685000Y38100000D03*
%TD*%
D10*
%TO.P,R10,2*%
%TO.N,~S1*%
X22860000Y27940000D03*
D11*
%TO.P,R10,1*%
%TO.N,+5V*%
X22860000Y38100000D03*
%TD*%
%TO.P,S4,C*%
%TO.N,GND*%
X11430000Y19050000D03*
%TO.P,S4,4*%
%TO.N,~S4*%
X6350000Y11430000D03*
%TO.P,S4,3*%
%TO.N,~S3*%
X8890000Y11430000D03*
%TO.P,S4,2*%
%TO.N,~S2*%
X11430000Y11430000D03*
%TO.P,S4,1*%
%TO.N,~S1*%
X13970000Y11430000D03*
%TD*%
D10*
%TO.P,U2,20*%
%TO.N,+5V*%
X69850000Y68580000D03*
%TO.P,U2,10*%
%TO.N,GND*%
X62230000Y45720000D03*
%TO.P,U2,19*%
%TO.N,/A4*%
X69850000Y66040000D03*
%TO.P,U2,9*%
%TO.N,/A3*%
X62230000Y48260000D03*
%TO.P,U2,18*%
%TO.N,/AD4*%
X69850000Y63500000D03*
%TO.P,U2,8*%
%TO.N,/AD3*%
X62230000Y50800000D03*
%TO.P,U2,17*%
%TO.N,/AD5*%
X69850000Y60960000D03*
%TO.P,U2,7*%
%TO.N,/AD2*%
X62230000Y53340000D03*
%TO.P,U2,16*%
%TO.N,/A5*%
X69850000Y58420000D03*
%TO.P,U2,6*%
%TO.N,/A2*%
X62230000Y55880000D03*
%TO.P,U2,15*%
%TO.N,/A6*%
X69850000Y55880000D03*
%TO.P,U2,5*%
%TO.N,/A1*%
X62230000Y58420000D03*
%TO.P,U2,14*%
%TO.N,/AD6*%
X69850000Y53340000D03*
%TO.P,U2,4*%
%TO.N,/AD1*%
X62230000Y60960000D03*
%TO.P,U2,13*%
%TO.N,/AD7*%
X69850000Y50800000D03*
%TO.P,U2,3*%
%TO.N,/AD0*%
X62230000Y63500000D03*
%TO.P,U2,12*%
%TO.N,/A7*%
X69850000Y48260000D03*
%TO.P,U2,2*%
%TO.N,/A0*%
X62230000Y66040000D03*
%TO.P,U2,11*%
%TO.N,ALE*%
X69850000Y45720000D03*
D14*
%TO.P,U2,1*%
%TO.N,GND*%
X62230000Y68580000D03*
%TD*%
D15*
%TO.P,S1,3*%
%TO.N,GND*%
X5461000Y49530000D03*
%TO.P,S1,2*%
%TO.N,+5V*%
X10160000Y49530000D03*
D16*
%TD*%
%TO.N,Net-(C6-Pad1)*%
%TO.C,S1*%
G36*
X16090283Y51382976D02*
G01*
X16114952Y51379317D01*
X16139143Y51373257D01*
X16162624Y51364856D01*
X16185168Y51354193D01*
X16206559Y51341372D01*
X16226590Y51326516D01*
X16245068Y51309768D01*
X16261816Y51291290D01*
X16276672Y51271259D01*
X16289493Y51249868D01*
X16300156Y51227324D01*
X16308557Y51203843D01*
X16314617Y51179652D01*
X16318276Y51154983D01*
X16319500Y51130074D01*
X16319500Y47929926D01*
X16318276Y47905017D01*
X16314617Y47880348D01*
X16308557Y47856157D01*
X16300156Y47832676D01*
X16289493Y47810132D01*
X16276672Y47788741D01*
X16261816Y47768710D01*
X16245068Y47750232D01*
X16226590Y47733484D01*
X16206559Y47718628D01*
X16185168Y47705807D01*
X16162624Y47695144D01*
X16139143Y47686743D01*
X16114952Y47680683D01*
X16090283Y47677024D01*
X16065374Y47675800D01*
X13652626Y47675800D01*
X13627717Y47677024D01*
X13603048Y47680683D01*
X13578857Y47686743D01*
X13555376Y47695144D01*
X13532832Y47705807D01*
X13511441Y47718628D01*
X13491410Y47733484D01*
X13472932Y47750232D01*
X13456184Y47768710D01*
X13441328Y47788741D01*
X13428507Y47810132D01*
X13417844Y47832676D01*
X13409443Y47856157D01*
X13403383Y47880348D01*
X13399724Y47905017D01*
X13398500Y47929926D01*
X13398500Y51130074D01*
X13399724Y51154983D01*
X13403383Y51179652D01*
X13409443Y51203843D01*
X13417844Y51227324D01*
X13428507Y51249868D01*
X13441328Y51271259D01*
X13456184Y51291290D01*
X13472932Y51309768D01*
X13491410Y51326516D01*
X13511441Y51341372D01*
X13532832Y51354193D01*
X13555376Y51364856D01*
X13578857Y51373257D01*
X13603048Y51379317D01*
X13627717Y51382976D01*
X13652626Y51384200D01*
X16065374Y51384200D01*
X16090283Y51382976D01*
X16090283Y51382976D01*
G37*
D17*
%TO.P,S1,1*%
%TO.N,Net-(C6-Pad1)*%
X14859000Y49530000D03*
%TD*%
D11*
%TO.P,C1,2*%
%TO.N,GND*%
X57150000Y55920000D03*
%TO.P,C1,1*%
%TO.N,+5V*%
X57150000Y58420000D03*
%TD*%
%TO.P,C4,2*%
%TO.N,GND*%
X24170000Y23495000D03*
%TO.P,C4,1*%
%TO.N,+5V*%
X26670000Y23495000D03*
%TD*%
%TO.P,C3,2*%
%TO.N,GND*%
X87670000Y72390000D03*
%TO.P,C3,1*%
%TO.N,+5V*%
X90170000Y72390000D03*
%TD*%
%TO.P,C2,2*%
%TO.N,GND*%
X67350000Y72390000D03*
%TO.P,C2,1*%
%TO.N,+5V*%
X69850000Y72390000D03*
%TD*%
%TO.P,C6,2*%
%TO.N,GND*%
X11510000Y66040000D03*
%TO.P,C6,1*%
%TO.N,Net-(C6-Pad1)*%
X16510000Y66040000D03*
%TD*%
%TO.P,C5,2*%
%TO.N,RST*%
X29210000Y40720000D03*
%TO.P,C5,1*%
%TO.N,+5V*%
X29210000Y45720000D03*
%TD*%
D10*
%TO.P,R9,2*%
%TO.N,Net-(R9-Pad2)*%
X29210000Y27940000D03*
D11*
%TO.P,R9,1*%
%TO.N,RST*%
X29210000Y38100000D03*
%TD*%
D10*
%TO.P,R8,2*%
%TO.N,GND*%
X26035000Y27940000D03*
D11*
%TO.P,R8,1*%
%TO.N,RST*%
X26035000Y38100000D03*
%TD*%
D10*
%TO.P,R7,2*%
%TO.N,Net-(R7-Pad2)*%
X90170000Y21590000D03*
D11*
%TO.P,R7,1*%
%TO.N,Net-(Q3-Pad3)*%
X80010000Y21590000D03*
%TD*%
D10*
%TO.P,R6,2*%
%TO.N,Net-(R6-Pad2)*%
X72390000Y21590000D03*
D11*
%TO.P,R6,1*%
%TO.N,Net-(Q2-Pad3)*%
X62230000Y21590000D03*
%TD*%
D10*
%TO.P,R5,2*%
%TO.N,~GRNBTN*%
X90170000Y29210000D03*
D11*
%TO.P,R5,1*%
%TO.N,+5V*%
X80010000Y29210000D03*
%TD*%
D10*
%TO.P,R4,2*%
%TO.N,~GRNLED*%
X90170000Y25400000D03*
D11*
%TO.P,R4,1*%
%TO.N,Net-(Q3-Pad2)*%
X80010000Y25400000D03*
%TD*%
D10*
%TO.P,R3,2*%
%TO.N,~REDLED*%
X72390000Y25400000D03*
D11*
%TO.P,R3,1*%
%TO.N,Net-(Q2-Pad2)*%
X62230000Y25400000D03*
%TD*%
D10*
%TO.P,R2,2*%
%TO.N,GND*%
X67310000Y35560000D03*
D11*
%TO.P,R2,1*%
%TO.N,/~EA*%
X57150000Y35560000D03*
%TD*%
D10*
%TO.P,R1,2*%
%TO.N,EA*%
X57150000Y39370000D03*
D11*
%TO.P,R1,1*%
%TO.N,Net-(Q1-Pad2)*%
X67310000Y39370000D03*
%TD*%
D18*
%TO.P,J1,1*%
%TO.N,GND*%
X5080000Y38100000D03*
D19*
%TO.P,J1,2*%
%TO.N,Net-(J1-Pad2)*%
X5080000Y35560000D03*
%TO.P,J1,3*%
%TO.N,N/C*%
X5080000Y33020000D03*
%TO.P,J1,4*%
%TO.N,/RXD*%
X5080000Y30480000D03*
%TO.P,J1,5*%
%TO.N,/TXD*%
X5080000Y27940000D03*
%TO.P,J1,6*%
%TO.N,Net-(J1-Pad2)*%
X5080000Y25400000D03*
%TD*%
D10*
%TO.P,U3,28*%
%TO.N,+5V*%
X90170000Y68580000D03*
%TO.P,U3,14*%
%TO.N,GND*%
X74930000Y35560000D03*
%TO.P,U3,27*%
%TO.N,+5V*%
X90170000Y66040000D03*
%TO.P,U3,13*%
%TO.N,/AD2*%
X74930000Y38100000D03*
%TO.P,U3,26*%
%TO.N,/A13*%
X90170000Y63500000D03*
%TO.P,U3,12*%
%TO.N,/AD1*%
X74930000Y40640000D03*
%TO.P,U3,25*%
%TO.N,/A8*%
X90170000Y60960000D03*
%TO.P,U3,11*%
%TO.N,/AD0*%
X74930000Y43180000D03*
%TO.P,U3,24*%
%TO.N,/A9*%
X90170000Y58420000D03*
%TO.P,U3,10*%
%TO.N,/A0*%
X74930000Y45720000D03*
%TO.P,U3,23*%
%TO.N,/A11*%
X90170000Y55880000D03*
%TO.P,U3,9*%
%TO.N,/A1*%
X74930000Y48260000D03*
%TO.P,U3,22*%
%TO.N,~PSEN*%
X90170000Y53340000D03*
%TO.P,U3,8*%
%TO.N,/A2*%
X74930000Y50800000D03*
%TO.P,U3,21*%
%TO.N,/A10*%
X90170000Y50800000D03*
%TO.P,U3,7*%
%TO.N,/A3*%
X74930000Y53340000D03*
%TO.P,U3,20*%
%TO.N,GND*%
X90170000Y48260000D03*
%TO.P,U3,6*%
%TO.N,/A4*%
X74930000Y55880000D03*
%TO.P,U3,19*%
%TO.N,/AD7*%
X90170000Y45720000D03*
%TO.P,U3,5*%
%TO.N,/A5*%
X74930000Y58420000D03*
%TO.P,U3,18*%
%TO.N,/AD6*%
X90170000Y43180000D03*
%TO.P,U3,4*%
%TO.N,/A6*%
X74930000Y60960000D03*
%TO.P,U3,17*%
%TO.N,/AD5*%
X90170000Y40640000D03*
%TO.P,U3,3*%
%TO.N,/A7*%
X74930000Y63500000D03*
%TO.P,U3,16*%
%TO.N,/AD4*%
X90170000Y38100000D03*
%TO.P,U3,2*%
%TO.N,/A12*%
X74930000Y66040000D03*
%TO.P,U3,15*%
%TO.N,/AD3*%
X90170000Y35560000D03*
D14*
%TO.P,U3,1*%
%TO.N,/A14*%
X74930000Y68580000D03*
%TD*%
D20*
%TO.P,J2,3*%
%TO.N,N/C*%
X11120000Y54890000D03*
D21*
%TO.P,J2,2*%
%TO.N,GND*%
X8120000Y59690000D03*
D22*
%TO.P,J2,1*%
%TO.N,Net-(C6-Pad1)*%
X14120000Y59690000D03*
%TD*%
D23*
%TO.P,REF\002A\002A,1*%
%TO.N,GND*%
X96520000Y71120000D03*
%TD*%
%TO.P,REF\002A\002A,1*%
%TO.N,GND*%
X96520000Y5080000D03*
%TD*%
%TO.P,REF\002A\002A,1*%
%TO.N,GND*%
X5080000Y71120000D03*
%TD*%
%TO.P,REF\002A\002A,1*%
%TO.N,GND*%
X5080000Y5080000D03*
%TD*%
D24*
%TO.P,U1,40*%
%TO.N,+5V*%
X50800000Y58420000D03*
%TO.P,U1,20*%
%TO.N,GND*%
X35560000Y10160000D03*
%TO.P,U1,39*%
%TO.N,/AD0*%
X50800000Y55880000D03*
%TO.P,U1,19*%
%TO.N,GND*%
X35560000Y12700000D03*
%TO.P,U1,38*%
%TO.N,/AD1*%
X50800000Y53340000D03*
%TO.P,U1,18*%
%TO.N,/CLK*%
X35560000Y15240000D03*
%TO.P,U1,37*%
%TO.N,/AD2*%
X50800000Y50800000D03*
%TO.P,U1,17*%
%TO.N,N/C*%
X35560000Y17780000D03*
%TO.P,U1,36*%
%TO.N,/AD3*%
X50800000Y48260000D03*
%TO.P,U1,16*%
%TO.N,N/C*%
X35560000Y20320000D03*
%TO.P,U1,35*%
%TO.N,/AD4*%
X50800000Y45720000D03*
%TO.P,U1,15*%
%TO.N,N/C*%
X35560000Y22860000D03*
%TO.P,U1,34*%
%TO.N,/AD5*%
X50800000Y43180000D03*
%TO.P,U1,14*%
%TO.N,N/C*%
X35560000Y25400000D03*
%TO.P,U1,33*%
%TO.N,/AD6*%
X50800000Y40640000D03*
%TO.P,U1,13*%
%TO.N,N/C*%
X35560000Y27940000D03*
%TO.P,U1,32*%
%TO.N,/AD7*%
X50800000Y38100000D03*
%TO.P,U1,12*%
%TO.N,N/C*%
X35560000Y30480000D03*
%TO.P,U1,31*%
%TO.N,/~EA*%
X50800000Y35560000D03*
%TO.P,U1,11*%
%TO.N,/TXD*%
X35560000Y33020000D03*
%TO.P,U1,30*%
%TO.N,ALE*%
X50800000Y33020000D03*
%TO.P,U1,10*%
%TO.N,/RXD*%
X35560000Y35560000D03*
%TO.P,U1,29*%
%TO.N,~PSEN*%
X50800000Y30480000D03*
%TO.P,U1,9*%
%TO.N,RST*%
X35560000Y38100000D03*
%TO.P,U1,28*%
%TO.N,N/C*%
X50800000Y27940000D03*
%TO.P,U1,8*%
%TO.N,~S1*%
X35560000Y40640000D03*
%TO.P,U1,27*%
%TO.N,/A14*%
X50800000Y25400000D03*
%TO.P,U1,7*%
%TO.N,~S2*%
X35560000Y43180000D03*
%TO.P,U1,26*%
%TO.N,/A13*%
X50800000Y22860000D03*
%TO.P,U1,6*%
%TO.N,~S3*%
X35560000Y45720000D03*
%TO.P,U1,25*%
%TO.N,/A12*%
X50800000Y20320000D03*
%TO.P,U1,5*%
%TO.N,~S4*%
X35560000Y48260000D03*
%TO.P,U1,24*%
%TO.N,/A11*%
X50800000Y17780000D03*
%TO.P,U1,4*%
%TO.N,~GRNBTN*%
X35560000Y50800000D03*
%TO.P,U1,23*%
%TO.N,/A10*%
X50800000Y15240000D03*
%TO.P,U1,3*%
%TO.N,~GRNLED*%
X35560000Y53340000D03*
%TO.P,U1,22*%
%TO.N,/A9*%
X50800000Y12700000D03*
%TO.P,U1,2*%
%TO.N,~REDLED*%
X35560000Y55880000D03*
%TO.P,U1,21*%
%TO.N,/A8*%
X50800000Y10160000D03*
D25*
%TO.P,U1,1*%
%TO.N,EA*%
X35560000Y58420000D03*
%TD*%
D11*
%TO.P,X1,4*%
%TO.N,GND*%
X19050000Y11430000D03*
%TO.P,X1,5*%
%TO.N,/CLK*%
X26670000Y11430000D03*
%TO.P,X1,8*%
%TO.N,+5V*%
X26670000Y19050000D03*
D14*
%TO.P,X1,1*%
X19050000Y19050000D03*
%TD*%
D26*
%TO.P,TP2,1*%
%TO.N,GND*%
X12700000Y71120000D03*
%TD*%
%TO.P,TP1,1*%
%TO.N,Net-(C6-Pad1)*%
X25400000Y71120000D03*
%TD*%
D27*
%TO.P,S3,L-*%
%TO.N,GND*%
X81280000Y11430000D03*
%TO.P,S3,L+*%
%TO.N,Net-(R7-Pad2)*%
X86360000Y11430000D03*
%TO.P,S3,3*%
%TO.N,N/C*%
X88900000Y6350000D03*
%TO.P,S3,2*%
%TO.N,~GRNBTN*%
X83820000Y6350000D03*
%TO.P,S3,1*%
%TO.N,GND*%
X78740000Y6350000D03*
%TD*%
%TO.P,S2,L-*%
%TO.N,GND*%
X63500000Y11430000D03*
%TO.P,S2,L+*%
%TO.N,Net-(R6-Pad2)*%
X68580000Y11430000D03*
%TO.P,S2,3*%
%TO.N,N/C*%
X71120000Y6350000D03*
%TO.P,S2,2*%
%TO.N,Net-(R9-Pad2)*%
X66040000Y6350000D03*
%TO.P,S2,1*%
%TO.N,+5V*%
X60960000Y6350000D03*
%TD*%
D28*
%TO.P,Q3,1*%
%TO.N,+5V*%
X76200000Y26670000D03*
D29*
%TO.P,Q3,3*%
%TO.N,Net-(Q3-Pad3)*%
X76200000Y21590000D03*
%TO.P,Q3,2*%
%TO.N,Net-(Q3-Pad2)*%
X76200000Y24130000D03*
%TD*%
D28*
%TO.P,Q2,1*%
%TO.N,+5V*%
X58420000Y26670000D03*
D29*
%TO.P,Q2,3*%
%TO.N,Net-(Q2-Pad3)*%
X58420000Y21590000D03*
%TO.P,Q2,2*%
%TO.N,Net-(Q2-Pad2)*%
X58420000Y24130000D03*
%TD*%
D28*
%TO.P,Q1,1*%
%TO.N,+5V*%
X62230000Y31750000D03*
D29*
%TO.P,Q1,3*%
%TO.N,/~EA*%
X57150000Y31750000D03*
%TO.P,Q1,2*%
%TO.N,Net-(Q1-Pad2)*%
X59690000Y31750000D03*
%TD*%
D30*
%TO.N,EA*%
X39116000Y39370000D03*
%TO.N,~REDLED*%
X38608000Y8890000D03*
X73660000Y9398000D03*
%TO.N,~GRNLED*%
X38100000Y8382000D03*
X91694000Y8890000D03*
%TO.N,~GRNBTN*%
X37592000Y7874000D03*
X92202000Y8382000D03*
%TO.N,/AD0*%
X66040000Y43180000D03*
%TO.N,/AD1*%
X65532000Y41148000D03*
%TO.N,/AD2*%
X64008000Y38100000D03*
%TO.N,/AD3*%
X63500000Y36830000D03*
%TO.N,/AD4*%
X67056000Y47498000D03*
X67056000Y41910000D03*
X88392000Y41910000D03*
X88392000Y38100000D03*
%TO.N,/AD5*%
X67564000Y43688000D03*
X88900000Y44450000D03*
%TO.N,/AD6*%
X68072000Y40640000D03*
%TO.N,/AD7*%
X68580000Y37592000D03*
%TO.N,ALE*%
X69850000Y33020000D03*
%TO.N,~PSEN*%
X91948000Y30480000D03*
%TO.N,/A14*%
X76708000Y29972000D03*
%TO.N,/A13*%
X85852000Y22860000D03*
%TO.N,/A12*%
X69850000Y20320000D03*
%TO.N,/A11*%
X87376000Y17780000D03*
%TO.N,/A10*%
X87884000Y15240000D03*
%TO.N,/A9*%
X86868000Y13208000D03*
%TO.N,/A8*%
X84836000Y9906000D03*
%TO.N,/A7*%
X71628000Y63500000D03*
%TO.N,/A2*%
X64516000Y49530000D03*
%TO.N,/A1*%
X65024000Y46990000D03*
%TO.N,/A4*%
X71120000Y55880000D03*
%TO.N,/A0*%
X66548000Y44450000D03*
%TO.N,Net-(R9-Pad2)*%
X30734000Y7366000D03*
%TD*%
D16*
%TO.N,Net-(J1-Pad2)*%
X3877919Y35560000D02*
X3302000Y34984081D01*
X5080000Y35560000D02*
X3877919Y35560000D01*
X3302000Y34984081D02*
X3302000Y25908000D01*
X3810000Y25400000D02*
X5080000Y25400000D01*
X3302000Y25908000D02*
X3810000Y25400000D01*
%TO.N,/~EA*%
X57150000Y35560000D02*
X57150000Y31750000D01*
%TO.N,Net-(Q1-Pad2)*%
X65786000Y39370000D02*
X67310000Y39370000D01*
X65532000Y39116000D02*
X65786000Y39370000D01*
X65532000Y37592000D02*
X65532000Y39116000D01*
X59690000Y31750000D02*
X65532000Y37592000D01*
%TO.N,EA*%
X36830000Y57150000D02*
X35560000Y58420000D01*
X39116000Y54864000D02*
X36830000Y57150000D01*
X39116000Y39370000D02*
X39116000Y54864000D01*
%TO.N,~REDLED*%
X72390000Y25400000D02*
X73660000Y24130000D01*
X73660000Y24130000D02*
X73660000Y10160000D01*
X35560000Y55880000D02*
X38608000Y52832000D01*
X38608000Y52832000D02*
X38608000Y45720000D01*
X38608000Y45720000D02*
X38608000Y8890000D01*
X73660000Y10160000D02*
X73660000Y9398000D01*
%TO.N,~GRNLED*%
X35560000Y53340000D02*
X38100000Y50800000D01*
X38100000Y50800000D02*
X38100000Y44704000D01*
X38100000Y44704000D02*
X38100000Y39370000D01*
X38100000Y39370000D02*
X38100000Y8382000D01*
X91694000Y23876000D02*
X90170000Y25400000D01*
X91694000Y8890000D02*
X91694000Y23876000D01*
%TO.N,~GRNBTN*%
X90170000Y29210000D02*
X92202000Y27178000D01*
X92202000Y27178000D02*
X92202000Y10668000D01*
X35560000Y50800000D02*
X36360099Y49999901D01*
X36360099Y49999901D02*
X37592000Y48768000D01*
X37592000Y48768000D02*
X37592000Y43942000D01*
X37592000Y43942000D02*
X37592000Y7874000D01*
X92202000Y10668000D02*
X92202000Y8382000D01*
%TO.N,Net-(R6-Pad2)*%
X72390000Y15240000D02*
X68580000Y11430000D01*
X72390000Y21590000D02*
X72390000Y15240000D01*
%TO.N,Net-(R7-Pad2)*%
X90170000Y15240000D02*
X86360000Y11430000D01*
X90170000Y21590000D02*
X90170000Y15240000D01*
%TO.N,/AD0*%
X62230000Y63500000D02*
X66040000Y59690000D01*
X66040000Y59690000D02*
X66040000Y55118000D01*
X66040000Y55118000D02*
X66040000Y43180000D01*
%TO.N,/AD1*%
X62230000Y60960000D02*
X65532000Y57658000D01*
X65532000Y57658000D02*
X65532000Y54102000D01*
X65532000Y54102000D02*
X65532000Y46228000D01*
X65532000Y46228000D02*
X65532000Y41148000D01*
%TO.N,/AD2*%
X62230000Y53340000D02*
X64008000Y51562000D01*
X64008000Y51562000D02*
X64008000Y48006000D01*
X64008000Y48006000D02*
X64008000Y46736000D01*
X64008000Y46736000D02*
X64008000Y38100000D01*
%TO.N,/AD3*%
X63500000Y49530000D02*
X62230000Y50800000D01*
X63500000Y36830000D02*
X63500000Y49530000D01*
%TO.N,/AD4*%
X68718630Y63500000D02*
X67056000Y61837370D01*
X69850000Y63500000D02*
X68718630Y63500000D01*
X67056000Y61837370D02*
X67056000Y60706000D01*
X67056000Y60706000D02*
X67056000Y59182000D01*
X67056000Y59182000D02*
X67056000Y47498000D01*
X67056000Y47498000D02*
X67056000Y42164000D01*
X67056000Y42164000D02*
X67056000Y41910000D01*
X88392000Y41910000D02*
X88392000Y38100000D01*
%TO.N,/AD5*%
X68718630Y60960000D02*
X67564000Y59805370D01*
X69850000Y60960000D02*
X68718630Y60960000D01*
X67564000Y59805370D02*
X67564000Y58166000D01*
X67564000Y58166000D02*
X67564000Y43688000D01*
X90170000Y40640000D02*
X89038630Y40640000D01*
X89038630Y40640000D02*
X88900000Y40778630D01*
X88900000Y40778630D02*
X88900000Y44450000D01*
%TO.N,/AD6*%
X68718630Y53340000D02*
X68072000Y52693370D01*
X69850000Y53340000D02*
X68718630Y53340000D01*
X68072000Y52693370D02*
X68072000Y51816000D01*
X68072000Y51816000D02*
X68072000Y50800000D01*
X68072000Y50800000D02*
X68072000Y46990000D01*
X68072000Y46990000D02*
X68072000Y41148000D01*
X68072000Y41148000D02*
X68072000Y40640000D01*
%TO.N,/AD7*%
X69850000Y50800000D02*
X69088000Y50800000D01*
X69088000Y50800000D02*
X68580000Y50292000D01*
X68580000Y50292000D02*
X68580000Y48514000D01*
X68580000Y48514000D02*
X68580000Y37592000D01*
%TO.N,ALE*%
X69850000Y33020000D02*
X69850000Y45720000D01*
%TO.N,~PSEN*%
X91440000Y53340000D02*
X90170000Y53340000D01*
X91948000Y52832000D02*
X91440000Y53340000D01*
X91948000Y48260000D02*
X91948000Y52832000D01*
X91948000Y30734000D02*
X91948000Y48260000D01*
%TO.N,/A14*%
X75882400Y68580000D02*
X76708000Y67754400D01*
X74930000Y68580000D02*
X75882400Y68580000D01*
X76708000Y67754400D02*
X76708000Y59182000D01*
X76708000Y59182000D02*
X76708000Y33020000D01*
X76708000Y33020000D02*
X76708000Y32766000D01*
X76708000Y32766000D02*
X76708000Y29972000D01*
%TO.N,/A13*%
X90170000Y63500000D02*
X85852000Y59182000D01*
X85852000Y59182000D02*
X85852000Y55118000D01*
X85852000Y55118000D02*
X85852000Y35814000D01*
X85852000Y35814000D02*
X85852000Y22860000D01*
%TO.N,/A12*%
X74930000Y66040000D02*
X76200000Y64770000D01*
X76200000Y64770000D02*
X76200000Y63500000D01*
X76200000Y63500000D02*
X76200000Y32766000D01*
X76200000Y32766000D02*
X76200000Y30480000D01*
X76200000Y30480000D02*
X73914000Y28194000D01*
X73914000Y28194000D02*
X71882000Y28194000D01*
X69850000Y26162000D02*
X69850000Y20320000D01*
X71882000Y28194000D02*
X69850000Y26162000D01*
%TO.N,/A11*%
X89038630Y55880000D02*
X87376000Y54217370D01*
X90170000Y55880000D02*
X89038630Y55880000D01*
X87376000Y54217370D02*
X87376000Y35814000D01*
X87376000Y35814000D02*
X87376000Y17780000D01*
%TO.N,/A10*%
X89038630Y50800000D02*
X87884000Y49645370D01*
X90170000Y50800000D02*
X89038630Y50800000D01*
X87884000Y49645370D02*
X87884000Y35814000D01*
X87884000Y35814000D02*
X87884000Y15240000D01*
%TO.N,/A9*%
X89038630Y58420000D02*
X86868000Y56249370D01*
X90170000Y58420000D02*
X89038630Y58420000D01*
X86868000Y56249370D02*
X86868000Y35814000D01*
X86868000Y13208000D02*
X86868000Y35814000D01*
%TO.N,/A8*%
X90170000Y60960000D02*
X86360000Y57150000D01*
X86360000Y57150000D02*
X86360000Y36322000D01*
X86360000Y36322000D02*
X86360000Y35814000D01*
X86360000Y35814000D02*
X86360000Y14224000D01*
X86360000Y14224000D02*
X84836000Y12700000D01*
X84836000Y12700000D02*
X84836000Y10160000D01*
X84836000Y10160000D02*
X84836000Y9906000D01*
%TO.N,/A7*%
X69850000Y48260000D02*
X71628000Y50038000D01*
X71628000Y50038000D02*
X71628000Y63500000D01*
%TO.N,/A2*%
X64516000Y53594000D02*
X62230000Y55880000D01*
X64516000Y49530000D02*
X64516000Y53594000D01*
%TO.N,/A1*%
X62230000Y58420000D02*
X65024000Y55626000D01*
X65024000Y55626000D02*
X65024000Y51308000D01*
X65024000Y51308000D02*
X65024000Y48006000D01*
X65024000Y46990000D02*
X65024000Y48006000D01*
%TO.N,/A4*%
X71120000Y64770000D02*
X71120000Y56388000D01*
X69850000Y66040000D02*
X71120000Y64770000D01*
X71120000Y55880000D02*
X71120000Y56388000D01*
%TO.N,/A0*%
X66548000Y61722000D02*
X62230000Y66040000D01*
X66548000Y44450000D02*
X66548000Y61722000D01*
%TO.N,Net-(R9-Pad2)*%
X30734000Y26416000D02*
X29210000Y27940000D01*
X30734000Y7366000D02*
X30734000Y26416000D01*
%TO.N,~S1*%
X13970000Y11430000D02*
X13970000Y22225000D01*
X13970000Y22225000D02*
X14605000Y22860000D01*
X14605000Y22860000D02*
X22225000Y22860000D01*
X22860000Y23495000D02*
X22860000Y27940000D01*
X22225000Y22860000D02*
X22860000Y23495000D01*
X22860000Y29845000D02*
X22860000Y27940000D01*
X24130000Y31115000D02*
X22860000Y29845000D01*
X24130000Y41275000D02*
X24130000Y31115000D01*
X35560000Y40640000D02*
X33020000Y40640000D01*
X24765000Y41910000D02*
X24130000Y41275000D01*
X31750000Y41910000D02*
X24765000Y41910000D01*
X33020000Y40640000D02*
X31750000Y41910000D01*
%TO.N,~S2*%
X19050000Y23495000D02*
X19685000Y24130000D01*
X19685000Y24130000D02*
X19685000Y27940000D01*
X12700000Y22860000D02*
X13335000Y23495000D01*
X12700000Y17780000D02*
X12700000Y22860000D01*
X11430000Y16510000D02*
X12700000Y17780000D01*
X13335000Y23495000D02*
X19050000Y23495000D01*
X11430000Y11430000D02*
X11430000Y16510000D01*
X19685000Y29845000D02*
X19685000Y27940000D01*
X20955000Y38100000D02*
X20955000Y31115000D01*
X23495000Y41910000D02*
X23495000Y40640000D01*
X20955000Y31115000D02*
X19685000Y29845000D01*
X23495000Y40640000D02*
X20955000Y38100000D01*
X31750000Y42545000D02*
X24130000Y42545000D01*
X24130000Y42545000D02*
X23495000Y41910000D01*
X32385000Y43180000D02*
X31750000Y42545000D01*
X35560000Y43180000D02*
X32385000Y43180000D01*
%TO.N,~S3*%
X8890000Y11430000D02*
X8890000Y23495000D01*
X8890000Y23495000D02*
X9525000Y24130000D01*
X9525000Y24130000D02*
X15875000Y24130000D01*
X15875000Y24130000D02*
X16510000Y24765000D01*
X16510000Y24765000D02*
X16510000Y27940000D01*
X17780000Y31115000D02*
X16510000Y29845000D01*
X18415000Y43180000D02*
X17780000Y42545000D01*
X31115000Y43180000D02*
X18415000Y43180000D01*
X16510000Y29845000D02*
X16510000Y27940000D01*
X33655000Y45720000D02*
X31115000Y43180000D01*
X17780000Y42545000D02*
X17780000Y31115000D01*
X35560000Y45720000D02*
X33655000Y45720000D01*
%TO.N,~S4*%
X6350000Y11430000D02*
X6350000Y24130000D01*
X6350000Y24130000D02*
X6985000Y24765000D01*
X6985000Y24765000D02*
X12700000Y24765000D01*
X12700000Y24765000D02*
X13335000Y25400000D01*
X13335000Y25400000D02*
X13335000Y27940000D01*
X13335000Y29845000D02*
X13335000Y27940000D01*
X14605000Y43180000D02*
X14605000Y31115000D01*
X15240000Y43815000D02*
X14605000Y43180000D01*
X14605000Y31115000D02*
X13335000Y29845000D01*
X30480000Y43815000D02*
X15240000Y43815000D01*
X33020000Y46355000D02*
X30480000Y43815000D01*
X33020000Y47625000D02*
X33020000Y46355000D01*
X33655000Y48260000D02*
X33020000Y47625000D01*
X35560000Y48260000D02*
X33655000Y48260000D01*
%TD*%
M02*
