M48
; DRILL file {KiCad (5.1.4-0-10_14)} date Monday, April 13, 2020 at 02:17:26 PM
; FORMAT={-:-/ absolute / metric / decimal}
; #@! TF.CreationDate,2020-04-13T14:17:26-07:00
; #@! TF.GenerationSoftware,Kicad,Pcbnew,(5.1.4-0-10_14)
FMAT,2
METRIC
T1C0.254
T2C0.800
T3C0.813
T4C0.900
T5C1.000
T6C1.016
T7C1.194
T8C1.854
T9C3.175
T10C1.651
T11C1.800
%
G90
G05
T1
X30.734Y7.366
X37.592Y7.874
X38.1Y8.382
X38.608Y8.89
X39.116Y39.37
X63.5Y36.83
X64.008Y38.1
X64.516Y49.53
X65.024Y46.99
X65.532Y41.148
X66.04Y43.18
X66.548Y44.45
X67.056Y47.498
X67.056Y41.91
X67.564Y43.688
X68.072Y40.64
X68.58Y37.592
X69.85Y33.02
X69.85Y20.32
X71.12Y55.88
X71.628Y63.5
X73.66Y9.398
X76.708Y29.972
X84.836Y9.906
X85.852Y22.86
X86.868Y13.208
X87.376Y17.78
X87.884Y15.24
X88.392Y41.91
X88.392Y38.1
X88.9Y44.45
X91.694Y8.89
X91.948Y30.48
X92.202Y8.382
T2
X62.23Y68.58
X62.23Y66.04
X62.23Y63.5
X62.23Y60.96
X62.23Y58.42
X62.23Y55.88
X57.15Y31.75
X62.23Y53.34
X62.23Y50.8
X62.23Y48.26
X62.23Y45.72
X69.85Y68.58
X69.85Y66.04
X69.85Y63.5
X69.85Y60.96
X11.43Y11.43
X6.35Y11.43
X8.89Y11.43
X11.43Y19.05
X13.97Y11.43
X80.01Y29.21
X22.86Y38.1
X22.86Y27.94
X19.685Y38.1
X19.685Y27.94
X69.85Y58.42
X90.17Y29.21
X69.85Y55.88
X69.85Y53.34
X69.85Y50.8
X19.05Y19.05
X26.67Y19.05
X76.2Y26.67
X69.85Y48.26
X76.2Y21.59
X69.85Y45.72
X76.2Y24.13
X29.21Y45.72
X29.21Y40.72
X19.05Y11.43
X26.67Y11.43
X74.93Y68.58
X74.93Y66.04
X74.93Y63.5
X74.93Y60.96
X74.93Y58.42
X74.93Y55.88
X74.93Y53.34
X74.93Y50.8
X74.93Y48.26
X74.93Y45.72
X74.93Y43.18
X74.93Y40.64
X74.93Y38.1
X74.93Y35.56
X90.17Y68.58
X90.17Y66.04
X90.17Y63.5
X90.17Y60.96
X90.17Y58.42
X90.17Y55.88
X90.17Y53.34
X90.17Y50.8
X90.17Y48.26
X90.17Y45.72
X90.17Y43.18
X90.17Y40.64
X90.17Y38.1
X57.15Y39.37
X67.31Y39.37
X29.21Y38.1
X29.21Y27.94
X26.035Y38.1
X26.035Y27.94
X90.17Y35.56
X90.17Y25.4
X62.23Y21.59
X72.39Y21.59
X16.51Y38.1
X16.51Y27.94
X57.15Y58.42
X57.15Y55.92
X80.01Y25.4
X59.69Y31.75
X21.59Y40.894
X62.23Y31.75
X57.15Y35.56
X67.31Y35.56
X62.23Y25.4
X72.39Y25.4
X11.51Y66.04
X16.51Y66.04
X11.43Y40.894
X24.17Y23.495
X26.67Y23.495
X87.67Y72.39
X80.01Y21.59
X90.17Y21.59
X90.17Y72.39
X13.335Y38.1
X67.35Y72.39
X69.85Y72.39
X58.42Y26.67
X58.42Y24.13
X58.42Y21.59
X13.335Y27.94
T3
X35.56Y58.42
X35.56Y55.88
X35.56Y53.34
X35.56Y50.8
X35.56Y48.26
X35.56Y45.72
X35.56Y43.18
X35.56Y40.64
X35.56Y38.1
X35.56Y35.56
X35.56Y33.02
X35.56Y30.48
X35.56Y27.94
X35.56Y25.4
X35.56Y22.86
X35.56Y20.32
X35.56Y17.78
X35.56Y15.24
X35.56Y12.7
X35.56Y10.16
X50.8Y58.42
X50.8Y55.88
X50.8Y53.34
X50.8Y50.8
X50.8Y48.26
X50.8Y45.72
X50.8Y43.18
X50.8Y40.64
X50.8Y38.1
X50.8Y35.56
X50.8Y33.02
X50.8Y30.48
X50.8Y27.94
X50.8Y25.4
X50.8Y22.86
X50.8Y20.32
X50.8Y17.78
X50.8Y15.24
X50.8Y12.7
X50.8Y10.16
T4
X21.59Y49.53
X24.13Y49.53
T5
X5.08Y38.1
X5.08Y35.56
X5.08Y33.02
X5.08Y30.48
X5.08Y27.94
X5.08Y25.4
T6
X25.4Y71.12
X12.7Y71.12
T7
X60.96Y6.35
X63.5Y11.43
X66.04Y6.35
X68.58Y11.43
X71.12Y6.35
X78.74Y6.35
X81.28Y11.43
X83.82Y6.35
X86.36Y11.43
X88.9Y6.35
T8
X5.461Y49.53
X10.16Y49.53
X14.859Y49.53
T9
X5.08Y71.12
X96.52Y5.08
X5.08Y5.08
X96.52Y71.12
T10
X43.18Y66.929
X43.18Y5.588
T11
X3.92Y59.69
T5
G00X8.12Y60.69
M15
G01X8.12Y58.69
M16
G05
G00X12.12Y54.89
M15
G01X10.12Y54.89
M16
G05
G00X14.12Y60.94
M15
G01X14.12Y58.44
M16
G05
T0
M30
