%TF.GenerationSoftware,KiCad,Pcbnew,(5.1.4-0-10_14)*%
%TF.CreationDate,2020-04-13T14:17:21-07:00*%
%TF.ProjectId,8051dumper,38303531-6475-46d7-9065-722e6b696361,1*%
%TF.SameCoordinates,PX60e4b00PYc1c9600*%
%TF.FileFunction,Soldermask,Top*%
%TF.FilePolarity,Negative*%
%FSLAX46Y46*%
G04 Gerber Fmt 4.6, Leading zero omitted, Abs format (unit mm)*
G04 Created by KiCad (PCBNEW (5.1.4-0-10_14)) date 2020-04-13 14:17:21*
%MOMM*%
%LPD*%
G04 APERTURE LIST*
%ADD10O,2.000000X2.000000*%
%ADD11C,2.000000*%
%ADD12C,2.200000*%
%ADD13R,2.200000X2.200000*%
%ADD14R,2.000000X2.000000*%
%ADD15O,3.321000X4.108400*%
%ADD16C,0.152400*%
%ADD17C,3.321000*%
%ADD18R,2.100000X2.100000*%
%ADD19O,2.100000X2.100000*%
%ADD20O,4.400000X2.400000*%
%ADD21O,2.400000X4.400000*%
%ADD22O,2.400000X4.900000*%
%ADD23C,6.750000*%
%ADD24C,2.051000*%
%ADD25O,2.000200X2.000200*%
%ADD26R,2.000200X2.000200*%
%ADD27C,2.432000*%
%ADD28C,2.305000*%
%ADD29R,1.900000X1.900000*%
%ADD30C,1.900000*%
G04 APERTURE END LIST*
D10*
%TO.C,R14*%
X21590000Y40894000D03*
D11*
X11430000Y40894000D03*
%TD*%
D12*
%TO.C,D1*%
X21590000Y49530000D03*
D13*
X24130000Y49530000D03*
%TD*%
D10*
%TO.C,R13*%
X13335000Y27940000D03*
D11*
X13335000Y38100000D03*
%TD*%
D10*
%TO.C,R12*%
X16510000Y27940000D03*
D11*
X16510000Y38100000D03*
%TD*%
D10*
%TO.C,R11*%
X19685000Y27940000D03*
D11*
X19685000Y38100000D03*
%TD*%
D10*
%TO.C,R10*%
X22860000Y27940000D03*
D11*
X22860000Y38100000D03*
%TD*%
%TO.C,S4*%
X11430000Y19050000D03*
X6350000Y11430000D03*
X8890000Y11430000D03*
X11430000Y11430000D03*
X13970000Y11430000D03*
%TD*%
D10*
%TO.C,U2*%
X69850000Y68580000D03*
X62230000Y45720000D03*
X69850000Y66040000D03*
X62230000Y48260000D03*
X69850000Y63500000D03*
X62230000Y50800000D03*
X69850000Y60960000D03*
X62230000Y53340000D03*
X69850000Y58420000D03*
X62230000Y55880000D03*
X69850000Y55880000D03*
X62230000Y58420000D03*
X69850000Y53340000D03*
X62230000Y60960000D03*
X69850000Y50800000D03*
X62230000Y63500000D03*
X69850000Y48260000D03*
X62230000Y66040000D03*
X69850000Y45720000D03*
D14*
X62230000Y68580000D03*
%TD*%
D15*
%TO.C,S1*%
X5461000Y49530000D03*
X10160000Y49530000D03*
D16*
G36*
X16258893Y51582809D02*
G01*
X16286940Y51578648D01*
X16314444Y51571759D01*
X16341141Y51562207D01*
X16366772Y51550084D01*
X16391092Y51535507D01*
X16413866Y51518617D01*
X16434875Y51499575D01*
X16453917Y51478566D01*
X16470807Y51455792D01*
X16485384Y51431472D01*
X16497507Y51405841D01*
X16507059Y51379144D01*
X16513948Y51351640D01*
X16518109Y51323593D01*
X16519500Y51295273D01*
X16519500Y47764727D01*
X16518109Y47736407D01*
X16513948Y47708360D01*
X16507059Y47680856D01*
X16497507Y47654159D01*
X16485384Y47628528D01*
X16470807Y47604208D01*
X16453917Y47581434D01*
X16434875Y47560425D01*
X16413866Y47541383D01*
X16391092Y47524493D01*
X16366772Y47509916D01*
X16341141Y47497793D01*
X16314444Y47488241D01*
X16286940Y47481352D01*
X16258893Y47477191D01*
X16230573Y47475800D01*
X13487427Y47475800D01*
X13459107Y47477191D01*
X13431060Y47481352D01*
X13403556Y47488241D01*
X13376859Y47497793D01*
X13351228Y47509916D01*
X13326908Y47524493D01*
X13304134Y47541383D01*
X13283125Y47560425D01*
X13264083Y47581434D01*
X13247193Y47604208D01*
X13232616Y47628528D01*
X13220493Y47654159D01*
X13210941Y47680856D01*
X13204052Y47708360D01*
X13199891Y47736407D01*
X13198500Y47764727D01*
X13198500Y51295273D01*
X13199891Y51323593D01*
X13204052Y51351640D01*
X13210941Y51379144D01*
X13220493Y51405841D01*
X13232616Y51431472D01*
X13247193Y51455792D01*
X13264083Y51478566D01*
X13283125Y51499575D01*
X13304134Y51518617D01*
X13326908Y51535507D01*
X13351228Y51550084D01*
X13376859Y51562207D01*
X13403556Y51571759D01*
X13431060Y51578648D01*
X13459107Y51582809D01*
X13487427Y51584200D01*
X16230573Y51584200D01*
X16258893Y51582809D01*
X16258893Y51582809D01*
G37*
D17*
X14859000Y49530000D03*
%TD*%
D11*
%TO.C,C1*%
X57150000Y55920000D03*
X57150000Y58420000D03*
%TD*%
%TO.C,C4*%
X24170000Y23495000D03*
X26670000Y23495000D03*
%TD*%
%TO.C,C3*%
X87670000Y72390000D03*
X90170000Y72390000D03*
%TD*%
%TO.C,C2*%
X67350000Y72390000D03*
X69850000Y72390000D03*
%TD*%
%TO.C,C6*%
X11510000Y66040000D03*
X16510000Y66040000D03*
%TD*%
%TO.C,C5*%
X29210000Y40720000D03*
X29210000Y45720000D03*
%TD*%
D10*
%TO.C,R9*%
X29210000Y27940000D03*
D11*
X29210000Y38100000D03*
%TD*%
D10*
%TO.C,R8*%
X26035000Y27940000D03*
D11*
X26035000Y38100000D03*
%TD*%
D10*
%TO.C,R7*%
X90170000Y21590000D03*
D11*
X80010000Y21590000D03*
%TD*%
D10*
%TO.C,R6*%
X72390000Y21590000D03*
D11*
X62230000Y21590000D03*
%TD*%
D10*
%TO.C,R5*%
X90170000Y29210000D03*
D11*
X80010000Y29210000D03*
%TD*%
D10*
%TO.C,R4*%
X90170000Y25400000D03*
D11*
X80010000Y25400000D03*
%TD*%
D10*
%TO.C,R3*%
X72390000Y25400000D03*
D11*
X62230000Y25400000D03*
%TD*%
D10*
%TO.C,R2*%
X67310000Y35560000D03*
D11*
X57150000Y35560000D03*
%TD*%
D10*
%TO.C,R1*%
X57150000Y39370000D03*
D11*
X67310000Y39370000D03*
%TD*%
D18*
%TO.C,J1*%
X5080000Y38100000D03*
D19*
X5080000Y35560000D03*
X5080000Y33020000D03*
X5080000Y30480000D03*
X5080000Y27940000D03*
X5080000Y25400000D03*
%TD*%
D10*
%TO.C,U3*%
X90170000Y68580000D03*
X74930000Y35560000D03*
X90170000Y66040000D03*
X74930000Y38100000D03*
X90170000Y63500000D03*
X74930000Y40640000D03*
X90170000Y60960000D03*
X74930000Y43180000D03*
X90170000Y58420000D03*
X74930000Y45720000D03*
X90170000Y55880000D03*
X74930000Y48260000D03*
X90170000Y53340000D03*
X74930000Y50800000D03*
X90170000Y50800000D03*
X74930000Y53340000D03*
X90170000Y48260000D03*
X74930000Y55880000D03*
X90170000Y45720000D03*
X74930000Y58420000D03*
X90170000Y43180000D03*
X74930000Y60960000D03*
X90170000Y40640000D03*
X74930000Y63500000D03*
X90170000Y38100000D03*
X74930000Y66040000D03*
X90170000Y35560000D03*
D14*
X74930000Y68580000D03*
%TD*%
D12*
%TO.C,J2*%
X3920000Y59690000D03*
D20*
X11120000Y54890000D03*
D21*
X8120000Y59690000D03*
D22*
X14120000Y59690000D03*
%TD*%
D23*
%TO.C,REF\002A\002A*%
X96520000Y71120000D03*
%TD*%
%TO.C,REF\002A\002A*%
X96520000Y5080000D03*
%TD*%
%TO.C,REF\002A\002A*%
X5080000Y71120000D03*
%TD*%
%TO.C,REF\002A\002A*%
X5080000Y5080000D03*
%TD*%
D24*
%TO.C,U1*%
X43180000Y66929000D03*
X43180000Y5588000D03*
D25*
X50800000Y58420000D03*
X35560000Y10160000D03*
X50800000Y55880000D03*
X35560000Y12700000D03*
X50800000Y53340000D03*
X35560000Y15240000D03*
X50800000Y50800000D03*
X35560000Y17780000D03*
X50800000Y48260000D03*
X35560000Y20320000D03*
X50800000Y45720000D03*
X35560000Y22860000D03*
X50800000Y43180000D03*
X35560000Y25400000D03*
X50800000Y40640000D03*
X35560000Y27940000D03*
X50800000Y38100000D03*
X35560000Y30480000D03*
X50800000Y35560000D03*
X35560000Y33020000D03*
X50800000Y33020000D03*
X35560000Y35560000D03*
X50800000Y30480000D03*
X35560000Y38100000D03*
X50800000Y27940000D03*
X35560000Y40640000D03*
X50800000Y25400000D03*
X35560000Y43180000D03*
X50800000Y22860000D03*
X35560000Y45720000D03*
X50800000Y20320000D03*
X35560000Y48260000D03*
X50800000Y17780000D03*
X35560000Y50800000D03*
X50800000Y15240000D03*
X35560000Y53340000D03*
X50800000Y12700000D03*
X35560000Y55880000D03*
X50800000Y10160000D03*
D26*
X35560000Y58420000D03*
%TD*%
D11*
%TO.C,X1*%
X19050000Y11430000D03*
X26670000Y11430000D03*
X26670000Y19050000D03*
D14*
X19050000Y19050000D03*
%TD*%
D27*
%TO.C,TP2*%
X12700000Y71120000D03*
%TD*%
%TO.C,TP1*%
X25400000Y71120000D03*
%TD*%
D28*
%TO.C,S3*%
X81280000Y11430000D03*
X86360000Y11430000D03*
X88900000Y6350000D03*
X83820000Y6350000D03*
X78740000Y6350000D03*
%TD*%
%TO.C,S2*%
X63500000Y11430000D03*
X68580000Y11430000D03*
X71120000Y6350000D03*
X66040000Y6350000D03*
X60960000Y6350000D03*
%TD*%
D29*
%TO.C,Q3*%
X76200000Y26670000D03*
D30*
X76200000Y21590000D03*
X76200000Y24130000D03*
%TD*%
D29*
%TO.C,Q2*%
X58420000Y26670000D03*
D30*
X58420000Y21590000D03*
X58420000Y24130000D03*
%TD*%
D29*
%TO.C,Q1*%
X62230000Y31750000D03*
D30*
X57150000Y31750000D03*
X59690000Y31750000D03*
%TD*%
M02*
